<svg width="76" height="76" viewBox="0 0 76 76" fill="none" xmlns="http://www.w3.org/2000/svg">
<path d="M38.0002 57.4526C48.7435 57.4526 57.4526 48.7435 57.4526 38.0002C57.4526 27.257 48.7435 18.5479 38.0002 18.5479C27.257 18.5479 18.5479 27.257 18.5479 38.0002C18.5479 48.7435 27.257 57.4526 38.0002 57.4526Z" stroke="#784839" stroke-width="0.904762"/>
<path d="M38.8329 19H38V21.8436H38.8329V19Z" fill="#784839"/>
<path d="M57.7283 38H54.8848V38.8329H57.7283V38Z" fill="#784839"/>
<path d="M38.8329 54.2856H38V57.1292H38.8329V54.2856Z" fill="#784839"/>
<path d="M21.8436 38H19V38.8329H21.8436V38Z" fill="#784839"/>
<path d="M38.0001 31.6665L35.2913 37.6203L35.2432 37.6985C36.1572 39.714 37.0863 41.7146 38.0001 43.7306L40.757 37.6986L38.0001 31.6665Z" fill="#B56041"/>
<path d="M37.8916 9.26475C37.3198 9.26475 36.7914 9.16704 36.3064 8.97161C35.8215 8.76895 35.4017 8.49028 35.047 8.13561C34.6996 7.77371 34.4245 7.35028 34.2219 6.86533C34.0264 6.37314 33.9287 5.8339 33.9287 5.24761C33.9287 4.66133 34.0264 4.12571 34.2219 3.64075C34.4245 3.14856 34.6996 2.72514 35.047 2.37047C35.4017 2.00856 35.8215 1.7299 36.3064 1.53447C36.7914 1.3318 37.3198 1.23047 37.8916 1.23047C38.2752 1.23047 38.6226 1.27028 38.9339 1.3499C39.2451 1.42952 39.5238 1.53447 39.7699 1.66475C40.0232 1.79504 40.2439 1.94342 40.4321 2.1099C40.6203 2.27637 40.7832 2.44647 40.9207 2.62018C41.2464 3.02552 41.4853 3.48514 41.6373 3.99904H40.6601C40.5226 3.65885 40.3308 3.35123 40.0847 3.07618C39.9761 2.96037 39.8531 2.84818 39.7156 2.73961C39.578 2.63104 39.4188 2.53333 39.2379 2.44647C39.0569 2.35961 38.8542 2.29085 38.6299 2.24018C38.4055 2.18228 38.1594 2.15333 37.8916 2.15333C37.4573 2.15333 37.0556 2.22933 36.6864 2.38133C36.3245 2.52609 36.0097 2.73599 35.7419 3.01104C35.4813 3.27885 35.275 3.60456 35.123 3.98818C34.9782 4.36456 34.9059 4.78437 34.9059 5.24761C34.9059 5.71085 34.9782 6.13428 35.123 6.5179C35.275 6.89428 35.4813 7.21999 35.7419 7.49504C36.0097 7.76285 36.3245 7.97275 36.6864 8.12475C37.0556 8.26952 37.4573 8.3419 37.8916 8.3419C38.1666 8.3419 38.4199 8.31294 38.6516 8.25504C38.8832 8.19713 39.0895 8.12114 39.2704 8.02704C39.4586 7.93294 39.6215 7.82799 39.759 7.71218C39.9038 7.58914 40.0304 7.46609 40.139 7.34304C40.3851 7.05352 40.5769 6.71694 40.7144 6.33333H41.6916C41.5179 6.88342 41.2645 7.37199 40.9316 7.79904C40.7868 7.98723 40.6167 8.16818 40.4213 8.3419C40.2331 8.51561 40.0123 8.67123 39.759 8.80875C39.5129 8.94628 39.2342 9.05485 38.923 9.13447C38.6118 9.22133 38.2679 9.26475 37.8916 9.26475Z" fill="#B56041"/>
<path d="M38.9949 74.4073C38.481 74.4073 37.9996 74.3169 37.5509 74.1359C37.1093 73.955 36.7185 73.7052 36.3783 73.3868C36.0381 73.0683 35.7594 72.6919 35.5423 72.2576C35.3252 71.8161 35.1912 71.3384 35.1406 70.8245H34.0006V74.1902H33.0234V66.5902H34.0006V69.9016H35.1406C35.2057 69.4022 35.3469 68.939 35.564 68.5119C35.7812 68.0776 36.0562 67.7049 36.3892 67.3936C36.7293 67.0751 37.1202 66.8254 37.5617 66.6445C38.0032 66.4635 38.481 66.373 38.9949 66.373C39.5377 66.373 40.0444 66.4744 40.5149 66.677C40.9853 66.8725 41.3907 67.1511 41.7309 67.513C42.0783 67.8677 42.3497 68.2911 42.5452 68.7833C42.7478 69.2683 42.8492 69.8039 42.8492 70.3902C42.8492 70.9765 42.7478 71.5157 42.5452 72.0079C42.3497 72.4929 42.0783 72.9163 41.7309 73.2782C41.3907 73.6329 40.9853 73.9115 40.5149 74.1142C40.0444 74.3096 39.5377 74.4073 38.9949 74.4073ZM38.9949 73.4845C39.4002 73.4845 39.7766 73.4121 40.124 73.2673C40.4787 73.1153 40.7827 72.9054 41.036 72.6376C41.2966 72.3626 41.4992 72.0369 41.644 71.6605C41.796 71.2769 41.872 70.8534 41.872 70.3902C41.872 69.927 41.796 69.5071 41.644 69.1308C41.4992 68.7471 41.2966 68.4214 41.036 68.1536C40.7827 67.8786 40.4787 67.6687 40.124 67.5239C39.7766 67.3719 39.4002 67.2959 38.9949 67.2959C38.5895 67.2959 38.2095 67.3719 37.8549 67.5239C37.5074 67.6687 37.2034 67.8786 36.9429 68.1536C36.6895 68.4214 36.4869 68.7471 36.3349 69.1308C36.1901 69.5071 36.1177 69.927 36.1177 70.3902C36.1177 70.8534 36.1901 71.2769 36.3349 71.6605C36.4869 72.0369 36.6895 72.3626 36.9429 72.6376C37.2034 72.9054 37.5074 73.1153 37.8549 73.2673C38.2095 73.4121 38.5895 73.4845 38.9949 73.4845Z" fill="#784839"/>
<path d="M67.8213 34.019H71.4584C71.7986 34.019 72.1062 34.0697 72.3813 34.171C72.6563 34.2724 72.888 34.4135 73.0761 34.5945C73.2716 34.7682 73.42 34.9745 73.5213 35.2133C73.6299 35.4522 73.6841 35.7055 73.6841 35.9733C73.6841 36.299 73.6262 36.5669 73.5104 36.7768C73.4019 36.9867 73.2788 37.1531 73.1413 37.2762C72.9821 37.4209 72.8011 37.5295 72.5984 37.6019V37.6562C72.859 37.7141 73.0942 37.8154 73.3041 37.9602C73.4779 38.0832 73.6371 38.2642 73.7819 38.503C73.9339 38.7419 74.0099 39.0568 74.0099 39.4476C74.0099 39.7589 73.952 40.0484 73.8361 40.3162C73.7276 40.5768 73.5611 40.8048 73.3367 41.0002C73.1196 41.1956 72.8481 41.3476 72.5224 41.4562C72.1967 41.5648 71.824 41.619 71.4041 41.619H67.8213V34.019ZM71.4041 40.6962C71.947 40.6962 72.3523 40.5768 72.6201 40.3379C72.8952 40.099 73.0327 39.8023 73.0327 39.4476C73.0327 39.064 72.8952 38.7528 72.6201 38.5139C72.3523 38.2678 71.947 38.1448 71.4041 38.1448H68.7984V40.6962H71.4041ZM71.4041 37.2219C71.8167 37.2219 72.1352 37.1133 72.3596 36.8962C72.5912 36.679 72.707 36.4076 72.707 36.0819C72.707 35.7562 72.5912 35.4848 72.3596 35.2676C72.1352 35.0505 71.8167 34.9419 71.4041 34.9419H68.7984V37.2219H71.4041Z" fill="#784839"/>
<path d="M5.28391 41.836C4.93648 41.836 4.62525 41.7999 4.3502 41.7275C4.07515 41.6623 3.82905 41.5755 3.61191 41.4669C3.40201 41.3511 3.21744 41.2244 3.0582 41.0869C2.89896 40.9421 2.76144 40.7938 2.64563 40.6418C2.37782 40.2943 2.18963 39.8962 2.08105 39.4475H3.0582C3.15229 39.7225 3.29344 39.9686 3.48163 40.1858C3.6481 40.3739 3.87248 40.544 4.15477 40.696C4.44429 40.8408 4.82067 40.9132 5.28391 40.9132C5.93534 40.9132 6.41305 40.7829 6.71705 40.5223C7.02829 40.2618 7.18391 39.9397 7.18391 39.556C7.18391 39.3679 7.1441 39.1905 7.06448 39.024C6.9921 38.8576 6.87629 38.7128 6.71705 38.5898C6.56505 38.4667 6.36963 38.3726 6.13077 38.3075C5.89191 38.2351 5.60963 38.1989 5.28391 38.1989H4.30677V37.276H5.28391C5.55172 37.276 5.79058 37.2435 6.00048 37.1783C6.21039 37.1059 6.3841 37.0119 6.52163 36.896C6.66639 36.773 6.77496 36.6319 6.84734 36.4726C6.92696 36.3134 6.96677 36.1469 6.96677 35.9732C6.96677 35.8139 6.93058 35.6583 6.8582 35.5063C6.78582 35.3543 6.67725 35.2204 6.53248 35.1046C6.38772 34.9888 6.21039 34.8983 6.00048 34.8332C5.79058 34.7608 5.55172 34.7246 5.28391 34.7246C4.87134 34.7246 4.53477 34.7934 4.2742 34.9309C4.01363 35.0612 3.81096 35.2096 3.6662 35.376C3.48525 35.5642 3.35496 35.7814 3.27534 36.0275H2.2982C2.41401 35.6149 2.59858 35.2458 2.85191 34.92C2.96048 34.7825 3.08715 34.6486 3.23191 34.5183C3.38391 34.3808 3.55763 34.2614 3.75305 34.16C3.95572 34.0515 4.18372 33.9646 4.43706 33.8995C4.69039 33.8343 4.97267 33.8018 5.28391 33.8018C5.70372 33.8018 6.07648 33.8597 6.4022 33.9755C6.73515 34.0913 7.01382 34.2469 7.2382 34.4423C7.46982 34.6378 7.64353 34.8694 7.75934 35.1372C7.88239 35.3978 7.94391 35.6764 7.94391 35.9732C7.94391 36.2989 7.87877 36.5703 7.74848 36.7875C7.62544 37.0046 7.49153 37.1783 7.34677 37.3086C7.16582 37.4606 6.96677 37.5764 6.74963 37.656V37.7103C7.0102 37.7899 7.24544 37.9094 7.45534 38.0686C7.62906 38.2061 7.78829 38.3943 7.93305 38.6332C8.08505 38.8648 8.16106 39.1724 8.16106 39.556C8.16106 39.8673 8.09591 40.164 7.96563 40.4463C7.84258 40.7214 7.65801 40.9639 7.41191 41.1738C7.16582 41.3764 6.86544 41.5357 6.51077 41.6515C6.1561 41.7745 5.74715 41.836 5.28391 41.836Z" fill="#784839"/>
</svg>
