<svg width="64" height="64" viewBox="0 0 64 64" fill="none" xmlns="http://www.w3.org/2000/svg">
	<g clip-path="url(#clip0_130_957)">
		<path d="M17.7946 46.205C11.0971 39.5075 11.0971 28.6485 17.7946 21.9509C24.4922 28.6485 24.4922 39.5075 17.7946 46.205Z" stroke="#B56041" stroke-width="3.2" stroke-miterlimit="10"/>
		<path d="M38.6378 31.3471L49.6632 20.3217C53.1963 16.7885 53.1963 11.0602 49.6632 7.52711L44.0104 1.87427L35.1541 10.7306C30.1289 15.7558 30.1519 23.9175 35.2231 28.9141C40.2543 33.8712 48.3886 33.7263 53.3828 28.7319L62.1254 19.9893L60.0052 17.8691C57.631 15.4949 53.7817 15.4949 51.4074 17.8691" stroke="#B56041" stroke-width="3.2" stroke-miterlimit="10"/>
		<path d="M59.0428 17.0946L59.106 16.9701C60.8032 13.3535 60.8643 9.18191 59.2738 5.51714L58.9242 4.71159L58.3325 4.47444C54.7513 3.03902 50.7349 3.15459 47.2421 4.79356L47.0293 4.89339" stroke="#B56041" stroke-width="3.2" stroke-miterlimit="10"/>
		<path d="M35.1542 28.8457L1.87402 62.1259" stroke="#B56041" stroke-width="3.2" stroke-miterlimit="10"/>
		<path d="M17.7959 46.2058C24.4934 52.9033 35.3524 52.9033 42.05 46.2058C35.3524 39.5082 24.4936 39.5082 17.7959 46.2058Z" stroke="#B56041" stroke-width="3.2" stroke-miterlimit="10"/>
	</g>
	<defs>
	<clipPath id="clip0_130_957">
		<rect width="64" height="64" fill="white"/>
	</clipPath>
	</defs>
</svg>
