<svg width="20" height="20" viewBox="0 0 20 20" fill="none" xmlns="http://www.w3.org/2000/svg">
<path d="M12.5 3.33333V7.5M12.5 7.5L16.6667 7.5M12.5 7.5L17.5 2.5M8.52253 11.5526C7.52121 10.5512 6.73055 9.41904 6.15056 8.21102C6.10067 8.10712 6.07572 8.05516 6.05656 7.98942C5.98845 7.75579 6.03737 7.46891 6.17905 7.27105C6.21892 7.21537 6.26655 7.16774 6.36181 7.07248C6.65315 6.78115 6.79881 6.63548 6.89405 6.48899C7.25321 5.93659 7.25321 5.22443 6.89405 4.67203C6.79881 4.52554 6.65315 4.37988 6.36181 4.08854L6.19942 3.92615C5.75655 3.48328 5.53511 3.26184 5.29729 3.14156C4.82433 2.90233 4.26577 2.90233 3.79281 3.14156C3.55499 3.26184 3.33355 3.48328 2.89069 3.92615L2.75932 4.05751C2.31797 4.49886 2.09729 4.71954 1.92875 5.01956C1.74174 5.35249 1.60727 5.86956 1.60841 6.25141C1.60943 6.59554 1.67618 6.83072 1.80969 7.30109C2.52716 9.82892 3.88089 12.2142 5.87088 14.2042C7.86086 16.1942 10.2462 17.5479 12.774 18.2654C13.2444 18.3989 13.4795 18.4657 13.8237 18.4667C14.2055 18.4678 14.7226 18.3333 15.0555 18.1463C15.3555 17.9778 15.5762 17.7571 16.0176 17.3158L16.1489 17.1844C16.5918 16.7415 16.8132 16.5201 16.9335 16.2823C17.1728 15.8093 17.1728 15.2508 16.9335 14.7778C16.8132 14.54 16.5918 14.3185 16.1489 13.8757L15.9865 13.7133C15.6952 13.4219 15.5495 13.2763 15.4031 13.181C14.8506 12.8219 14.1385 12.8219 13.5861 13.181C13.4396 13.2763 13.2939 13.4219 13.0026 13.7133C12.9073 13.8085 12.8597 13.8562 12.804 13.896C12.6062 14.0377 12.3193 14.0866 12.0857 14.0185C12.0199 13.9994 11.968 13.9744 11.8641 13.9245C10.656 13.3445 9.52384 12.5539 8.52253 11.5526Z" stroke="#E3DACF" stroke-width="1.2" stroke-linecap="round" stroke-linejoin="round"/>
</svg>
