<svg width="24" height="24" viewBox="0 0 24 24" fill="none" xmlns="http://www.w3.org/2000/svg">
<path d="M15.3333 17.5835C16.4379 17.5835 17.3333 16.6881 17.3333 15.5835C17.3333 14.4789 16.4379 13.5835 15.3333 13.5835C14.2287 13.5835 13.3333 14.4789 13.3333 15.5835C13.3333 16.6881 14.2287 17.5835 15.3333 17.5835Z" stroke="#B56041" stroke-width="1.7" stroke-miterlimit="10" stroke-linecap="round" stroke-linejoin="round"/>
<path d="M6.75 10C7.85457 10 8.75 9.10457 8.75 8C8.75 6.89543 7.85457 6 6.75 6C5.64543 6 4.75 6.89543 4.75 8C4.75 9.10457 5.64543 10 6.75 10Z" stroke="#B56041" stroke-width="1.7" stroke-miterlimit="10" stroke-linecap="round" stroke-linejoin="round"/>
<path d="M20.5 15.7915H17.75" stroke="#B56041" stroke-width="1.7" stroke-miterlimit="10" stroke-linecap="round" stroke-linejoin="round"/>
<path d="M3 8.2085H4.75" stroke="#B56041" stroke-width="1.7" stroke-miterlimit="10" stroke-linecap="round" stroke-linejoin="round"/>
<path d="M13.3333 15.7915H3" stroke="#B56041" stroke-width="1.7" stroke-miterlimit="10" stroke-linecap="round" stroke-linejoin="round"/>
<path d="M9.16663 8.2085H20.5" stroke="#B56041" stroke-width="1.7" stroke-miterlimit="10" stroke-linecap="round" stroke-linejoin="round"/>
</svg>
