<svg width="20" height="20" viewBox="0 0 20 20" fill="none" xmlns="http://www.w3.org/2000/svg">
<path d="M9.99967 9.99984L6.43894 7.03255C5.90989 6.59169 5.64537 6.37125 5.45521 6.10103C5.28671 5.86161 5.16158 5.59445 5.08552 5.31174C4.99967 4.99266 4.99967 4.64833 4.99967 3.95967V1.6665M9.99967 9.99984L13.5604 7.03256C14.0895 6.59169 14.354 6.37125 14.5441 6.10103C14.7126 5.86161 14.8378 5.59445 14.9138 5.31174C14.9997 4.99266 14.9997 4.64833 14.9997 3.95967V1.6665M9.99967 9.99984L6.43894 12.9671C5.90989 13.408 5.64537 13.6284 5.45521 13.8986C5.28671 14.1381 5.16158 14.4052 5.08552 14.6879C4.99967 15.007 4.99967 15.3513 4.99967 16.04V18.3332M9.99967 9.99984L13.5604 12.9671C14.0895 13.408 14.354 13.6284 14.5441 13.8986C14.7126 14.1381 14.8378 14.4052 14.9138 14.6879C14.9997 15.007 14.9997 15.3513 14.9997 16.04V18.3332M3.33301 1.6665H16.6663M3.33301 18.3332H16.6663" stroke="#B56041" stroke-width="1.4" stroke-linecap="round" stroke-linejoin="round"/>
</svg>
