<svg width="36" height="36" viewBox="0 0 36 36" fill="none" xmlns="http://www.w3.org/2000/svg">
<path d="M34.5566 4.51877H34.4817V2.1844C34.4817 1.60193 34.0095 1.12971 33.427 1.12971C32.8445 1.12971 32.3723 1.60193 32.3723 2.1844V4.51877H29.9628V2.1844C29.9628 1.60193 29.4906 1.12971 28.9082 1.12971C28.3257 1.12971 27.8535 1.60193 27.8535 2.1844V4.51877H27.7785C27.1961 4.51877 26.7238 4.99099 26.7238 5.57346V8.96252C26.7238 11.0494 28.1702 12.8039 30.113 13.2787V28.1672C30.113 28.8315 29.5725 29.3719 28.9082 29.3719C28.2439 29.3719 27.7035 28.8315 27.7035 28.1672V18C27.7035 15.2874 25.7551 13.0225 23.1847 12.528V3.87886C23.1847 1.74009 21.4447 0 19.3059 0H4.61983C2.48099 0 0.740969 1.74009 0.740969 3.87886V33.8906H0.666016C0.670037 34.4118 0.666016 34.3628 0.666016 34.9453C0.666016 35.5278 0.670152 35.4706 0.666016 36H1.79566H22.13H23.2597C23.2597 35.5616 23.2597 35.5278 23.2597 34.9453C23.2597 34.3628 23.2597 34.4904 23.2597 33.8906H23.1847V14.7007C24.5806 15.1479 25.5941 16.4576 25.5941 18V28.1672C25.5941 29.9946 27.0808 31.4813 28.9082 31.4813C30.7356 31.4813 32.2223 29.9946 32.2223 28.1672V13.2787C34.165 12.8039 35.6113 11.0493 35.6113 8.96252V5.57346C35.6113 4.99092 35.1391 4.51877 34.5566 4.51877ZM2.85034 33.8906V3.87886C2.85034 2.9032 3.6441 2.10938 4.61983 2.10938H19.3059C20.2816 2.10938 21.0753 2.9032 21.0753 3.87886V33.8906H2.85034ZM33.502 8.96252C33.502 10.2497 32.4547 11.2968 31.1677 11.2968C29.8804 11.2968 28.8332 10.2497 28.8332 8.96252V6.62815H33.502V8.96252Z" fill="#D8D1C9"/>
<path d="M17.6113 4.51855H6.31445C5.73198 4.51855 5.25977 4.99077 5.25977 5.57324V14.6107C5.25977 15.1932 5.73198 15.6654 6.31445 15.6654H17.6113C18.1938 15.6654 18.666 15.1932 18.666 14.6107V5.57324C18.666 4.9907 18.1938 4.51855 17.6113 4.51855ZM16.5566 13.556H7.36914V6.62793H16.5566V13.556Z" fill="#D8D1C9"/>
<path d="M14.3637 23.7232H11.269L12.9063 20.4484C13.1669 19.9274 12.9557 19.2939 12.4347 19.0334C11.914 18.773 11.2802 18.984 11.0197 19.5051L8.61918 24.3062C8.4557 24.6332 8.47314 25.0214 8.6653 25.3323C8.85747 25.6433 9.19701 25.8325 9.56249 25.8325H12.6572L11.0197 29.1074C10.7592 29.6284 10.9704 30.2619 11.4914 30.5224C11.6428 30.5981 11.8037 30.634 11.9622 30.634C12.349 30.634 12.7216 30.4203 12.9063 30.0507L15.307 25.2496C15.4705 24.9226 15.4531 24.5344 15.2609 24.2234C15.0687 23.9125 14.7292 23.7232 14.3637 23.7232Z" fill="#D8D1C9"/>
</svg>
