<svg width="37" height="36" viewBox="0 0 37 36" fill="none" xmlns="http://www.w3.org/2000/svg">
<g clip-path="url(#clip0_424_704)">
<path d="M8.66239 30.3118C8.66239 32.2068 7.12618 33.7432 5.23106 33.7432C3.33602 33.7432 1.7998 32.2068 1.7998 30.3118C1.7998 28.4168 3.33602 26.8804 5.23106 26.8804C7.12618 26.8804 8.66239 28.4168 8.66239 30.3118Z" stroke="#D8D1C9" stroke-width="2.1" stroke-miterlimit="10"/>
<path d="M35.8001 30.3118C35.8001 32.2068 34.2639 33.7432 32.3688 33.7432C30.4737 33.7432 28.9375 32.2068 28.9375 30.3118C28.9375 28.4168 30.4737 26.8804 32.3688 26.8804C34.2639 26.8804 35.8001 28.4168 35.8001 30.3118Z" stroke="#D8D1C9" stroke-width="2.1" stroke-miterlimit="10"/>
<path d="M31.7328 26.8809L27.1933 2.35756H22.4004" stroke="#D8D1C9" stroke-width="2.1" stroke-miterlimit="10"/>
<path d="M30.428 20.0611L23.8138 32.1909H8.3584" stroke="#D8D1C9" stroke-width="2.1" stroke-miterlimit="10"/>
<path d="M7.58301 27.8149H26.2005" stroke="#D8D1C9" stroke-width="2.1" stroke-miterlimit="10"/>
</g>
<defs>
<clipPath id="clip0_424_704">
<rect width="36" height="36" fill="white" transform="translate(0.799805)"/>
</clipPath>
</defs>
</svg>
