<svg width="36" height="36" viewBox="0 0 36 36" fill="none" xmlns="http://www.w3.org/2000/svg">
<path fill-rule="evenodd" clip-rule="evenodd" d="M29.2563 8.06203C29.006 8.06203 28.757 7.97349 28.5578 7.79089C25.5048 5.00763 21.5872 3.4749 17.5257 3.4749C13.4642 3.4749 9.54664 5.00763 6.49363 7.79228C6.06895 8.17823 5.41325 8.14641 5.0273 7.72449C4.64135 7.30119 4.67178 6.64411 5.09508 6.25816C8.53266 3.12492 12.9469 1.3999 17.5257 1.3999C22.1045 1.3999 26.5187 3.12492 29.9563 6.25816C30.3796 6.64411 30.41 7.29981 30.0241 7.72449C29.8194 7.94859 29.5385 8.06203 29.2563 8.06203ZM31.0129 14.8418C30.6796 14.8418 30.3503 14.6813 30.1511 14.3825C27.271 10.0942 22.5511 7.53367 17.5255 7.53367C12.4998 7.53367 7.7799 10.0942 4.89981 14.3825C4.58026 14.8598 3.93424 14.9857 3.45976 14.6661C2.98389 14.3466 2.85663 13.7019 3.17618 13.2261C6.44222 8.36367 11.8068 5.46006 17.5255 5.46006C23.2442 5.46006 28.6087 8.36367 31.8748 13.2275C32.1943 13.7033 32.0684 14.348 31.5912 14.6675C31.4141 14.7851 31.2135 14.8418 31.0129 14.8418ZM13.5108 34.2927C13.7141 34.4974 13.9811 34.5998 14.2481 34.5998C14.5123 34.5998 14.7765 34.5002 14.9785 34.2996C15.3866 33.8957 15.3893 33.2386 14.9854 32.8319C14.9356 32.7821 10.0428 27.7938 10.0428 23.4128C10.0428 19.1342 13.3987 15.6537 17.5252 15.6537C21.6517 15.6537 25.0076 19.1342 25.0076 23.4128C25.0076 23.9855 25.4724 24.4503 26.0451 24.4503C26.6178 24.4503 27.0826 23.9855 27.0826 23.4128C27.0826 17.9902 22.7957 13.5787 17.5252 13.5787C12.2547 13.5787 7.96777 17.9902 7.96777 23.4128C7.96777 28.6377 13.2839 34.0645 13.5108 34.2927ZM20.8027 34.5995C18.3072 34.5995 12.5221 29.8519 11.9618 24.5648C11.764 22.6959 12.3589 20.7842 13.5513 19.4506C14.5888 18.2914 15.9901 17.6482 17.4966 17.6399H17.5256C18.9947 17.6399 20.3836 18.2167 21.4404 19.2667C22.5443 20.3636 23.1516 21.8369 23.1516 23.4139V24.0903C23.1516 25.7572 24.4492 27.1129 26.0455 27.1129C27.6419 27.1129 28.9409 25.7572 28.9409 24.0903V23.8538C28.9409 17.3936 24.261 12.0194 18.2864 11.621C15.1726 11.4093 12.1832 12.4856 9.87716 14.6408C7.484 16.879 6.11174 20.0773 6.11174 23.4139C6.11174 26.1584 7.04134 28.8324 8.729 30.9434C9.0859 31.3916 9.01397 32.0431 8.56577 32.4014C8.11895 32.7597 7.46602 32.6877 7.10774 32.2382C5.12819 29.7606 4.03674 26.626 4.03674 23.4125C4.03674 19.5032 5.6497 15.753 8.45925 13.1247C11.1886 10.571 14.7285 9.29976 18.4234 9.54875C25.4839 10.0205 31.0159 16.3036 31.0159 23.8524V24.089C31.0159 26.8999 28.7859 29.1865 26.0455 29.1865C23.3052 29.1865 21.0766 26.8999 21.0766 24.089V23.4125C21.0766 22.3916 20.6865 21.4426 19.9783 20.7371C19.3143 20.0759 18.4441 19.7135 17.527 19.7135H17.5076C16.3387 19.719 15.5516 20.3263 15.0979 20.834C14.2886 21.7373 13.8874 23.0515 14.0244 24.3463C14.4823 28.6595 19.4388 32.5259 20.8027 32.5259C21.3754 32.5259 21.8402 32.9907 21.8402 33.5634C21.8402 34.1361 21.3754 34.5995 20.8027 34.5995ZM16.4065 22.7368C16.4065 28.0336 20.9397 32.5709 24.6525 32.5709C25.2252 32.5709 25.69 32.1061 25.69 31.5334C25.69 30.9607 25.2252 30.4959 24.6525 30.4959C21.9329 30.4959 18.4815 26.8425 18.4815 22.7368C18.4815 22.1641 18.0167 21.6993 17.444 21.6993C16.8713 21.6993 16.4065 22.1641 16.4065 22.7368Z" fill="#D8D1C9"/>
</svg>
