<svg width="32" height="32" viewBox="0 0 32 32" fill="none" xmlns="http://www.w3.org/2000/svg">
<path fill-rule="evenodd" clip-rule="evenodd" d="M16 0C7.16964 0 0 7.16964 0 16C0 24.8304 7.16964 32 16 32C24.8304 32 32 24.8304 32 16C32 7.16964 24.8304 0 16 0ZM16 2.46154C23.4716 2.46154 29.5385 8.52841 29.5385 16C29.5385 23.4716 23.4716 29.5385 16 29.5385C8.52841 29.5385 2.46154 23.4716 2.46154 16C2.46154 8.52841 8.52841 2.46154 16 2.46154Z" fill="#D8D1C9"/>
<path fill-rule="evenodd" clip-rule="evenodd" d="M13.1285 18.8717H17.6414C19.0559 18.8717 20.413 18.3105 21.4124 17.3095C22.4135 16.3101 22.9747 14.953 22.9747 13.5384C22.9747 12.1238 22.4135 10.7667 21.4124 9.76733C20.413 8.76631 19.0559 8.20508 17.6414 8.20508C14.9386 8.20508 11.8978 8.20508 11.8978 8.20508C11.2184 8.20508 10.667 8.75646 10.667 9.43585V22.5641C10.667 23.2434 11.2184 23.7948 11.8978 23.7948C12.5771 23.7948 13.1285 23.2434 13.1285 22.5641V18.8717ZM13.1285 16.4102H17.6414C18.4028 16.4102 19.133 16.1083 19.6713 15.5684C20.2112 15.0301 20.5131 14.2998 20.5131 13.5384C20.5131 12.777 20.2112 12.0467 19.6713 11.5085C19.133 10.9686 18.4028 10.6666 17.6414 10.6666H13.1285V16.4102Z" fill="#D8D1C9"/>
</svg>
