<svg width="36" height="36" viewBox="0 0 36 36" fill="none" xmlns="http://www.w3.org/2000/svg">
<path d="M18 8.57765V34.9448" stroke="#D8D1C9" stroke-width="2.1" stroke-miterlimit="22.926" stroke-linecap="round" stroke-linejoin="round"/>
<path d="M17.9994 1.05441C21.7699 1.05441 24.8549 4.13937 24.8549 7.90988V8.19893C27.7542 7.31335 30.7312 9.47384 30.7312 12.5476C30.7312 14.4975 29.5036 16.1604 27.7791 16.8063C29.3042 17.9803 30.2873 19.8239 30.2873 21.8974C30.2873 25.4439 27.4123 28.3188 23.8659 28.3188C21.83 28.3188 20.0157 27.3712 18.8392 25.8932C18.2804 25.9623 17.7184 25.9623 17.1596 25.8932C15.9831 27.3712 14.1689 28.3188 12.1329 28.3188C8.58654 28.3188 5.71153 25.4439 5.71153 21.8974C5.71153 19.8239 6.69457 17.9803 8.21972 16.8063C6.49523 16.1604 5.26758 14.4975 5.26758 12.5476C5.26758 9.47384 8.24461 7.31335 11.1439 8.19893V7.90988C11.1439 4.13937 14.2289 1.05441 17.9994 1.05441Z" stroke="#D8D1C9" stroke-width="2.1" stroke-miterlimit="22.926" stroke-linecap="round" stroke-linejoin="round"/>
<path d="M18.3516 17.8594L21.375 14.8359" stroke="#D8D1C9" stroke-width="2.1" stroke-miterlimit="22.926" stroke-linecap="round" stroke-linejoin="round"/>
<path d="M17.4375 21.6558L13.6055 17.8237" stroke="#D8D1C9" stroke-width="2.1" stroke-miterlimit="22.926" stroke-linecap="round" stroke-linejoin="round"/>
</svg>
