<svg width="36" height="36" viewBox="0 0 36 36" fill="none" xmlns="http://www.w3.org/2000/svg">
<path d="M32.2727 29.4545H19.5455V26.9091H28.8911C30.7556 26.9091 32.2727 25.392 32.2727 23.5275V23.0909C32.2727 19.2358 30.6589 15.5118 27.8449 12.8747C25.5324 10.7073 22.6395 9.41927 19.5455 9.14564V6.54545H20.8182C21.5207 6.54545 22.0909 5.97527 22.0909 5.27273C22.0909 4.57018 21.5207 4 20.8182 4H15.7273C15.0247 4 14.4545 4.57018 14.4545 5.27273C14.4545 5.97527 15.0247 6.54545 15.7273 6.54545H17V9.14691C9.83582 9.79473 4.27273 16.0425 4.27273 23.5275C4.27273 25.392 5.78982 26.9091 7.65436 26.9091H17V29.4545H4.27273C3.57018 29.4545 3 30.0247 3 30.7273C3 31.4298 3.57018 32 4.27273 32H32.2727C32.9753 32 33.5455 31.4298 33.5455 30.7273C33.5455 30.0247 32.9753 29.4545 32.2727 29.4545ZM6.81818 23.5262C6.81818 17.2605 11.5133 12.0487 17.5078 11.6605C17.7585 11.644 18.008 11.6364 18.2562 11.6351H18.2918C21.2115 11.6376 23.9618 12.722 26.1038 14.7304C28.4405 16.9207 29.7273 19.8887 29.7273 23.0896V23.5262C29.7273 23.9869 29.3518 24.3624 28.8911 24.3624H7.65436C7.19364 24.3624 6.81818 23.9882 6.81818 23.5262Z" fill="#D8D1C9"/>
</svg>
