<svg width="37" height="36" viewBox="0 0 37 36" fill="none" xmlns="http://www.w3.org/2000/svg">
<path fill-rule="evenodd" clip-rule="evenodd" d="M24.5567 5.31578C24.9515 5.85142 25.4921 6.58499 25.4921 7.92178C25.4921 9.25862 24.9515 9.99226 24.5568 10.528L24.5567 10.528L24.5564 10.5284C24.2298 10.9718 24.0326 11.2395 24.0326 11.883C24.0326 12.5266 24.2299 12.7943 24.5566 13.2377L24.5567 13.2379C24.9515 13.7736 25.4921 14.5072 25.4921 15.8442H23.3827C23.3827 15.2005 23.1854 14.9328 22.8586 14.4893L22.8586 14.4892C22.4638 13.9536 21.9232 13.22 21.9232 11.883C21.9232 10.5464 22.4637 9.81278 22.8584 9.27695L22.8586 9.27663L22.8587 9.27646C23.1855 8.83303 23.3827 8.56534 23.3827 7.92171C23.3827 7.27826 23.1855 7.01057 22.8588 6.56725L22.8587 6.56714C22.4639 6.03149 21.9232 5.29792 21.9232 3.96114C21.9232 2.62444 22.4638 1.89088 22.8585 1.35526L22.8587 1.35508L22.8588 1.35488C23.1855 0.911538 23.3827 0.643842 23.3827 0.000439453H25.4921C25.4921 1.33701 24.9516 2.07056 24.557 2.60617L24.5567 2.6065L24.5565 2.60682C24.2298 3.05016 24.0326 3.31779 24.0326 3.96121C24.0326 4.60466 24.2299 4.87235 24.5566 5.31568L24.5567 5.31578ZM8.69881 4.58569C6.39917 4.58569 4.52837 6.45657 4.52837 8.75614C4.52837 11.0557 6.39924 12.9266 8.69881 12.9266C10.9984 12.9266 12.8693 11.0558 12.8693 8.75614C12.8693 6.4565 10.9985 4.58569 8.69881 4.58569ZM8.69881 10.8172C7.56228 10.8172 6.63774 9.89267 6.63774 8.75614C6.63774 7.61961 7.56235 6.69507 8.69881 6.69507C9.83527 6.69507 10.7599 7.61968 10.7599 8.75614C10.7599 9.8926 9.83535 10.8172 8.69881 10.8172ZM26.2231 32.552L22.4893 22.0215H15.254L11.9408 14.1579H6.53395L2.41096 25.3717C2.24432 25.825 2.20966 26.3087 2.29945 26.77H0.200195V28.8794H18.0544L21.5708 34.7445C22.0504 35.5444 22.9064 35.9995 23.791 35.9995C24.1408 35.9995 24.4953 35.9284 24.8325 35.7792C26.0613 35.2359 26.672 33.8184 26.2231 32.552ZM7.62133 26.77L8.87732 24.7564L9.94298 26.77H7.62133ZM23.9793 33.8501C23.7606 33.9468 23.5027 33.865 23.3799 33.6599L19.2492 26.77H12.3295L9.02723 20.5304L5.28161 26.5354C5.18992 26.6823 5.03186 26.77 4.85868 26.77C4.63248 26.77 4.5055 26.6364 4.44995 26.5568C4.39441 26.4772 4.31284 26.3119 4.39082 26.0996L8.00587 16.2673H10.5406L13.8538 24.131H20.9991L24.235 33.257C24.3175 33.4897 24.2052 33.7502 23.9793 33.8501ZM30.846 7.92157C30.846 6.58478 30.3053 5.85121 29.9105 5.31557L29.9104 5.31547C29.5837 4.87214 29.3865 4.60445 29.3865 3.961C29.3865 3.31758 29.5837 3.04995 29.9104 2.6066L29.9106 2.60629C30.3052 2.07086 30.846 1.33729 30.846 0.000439453H28.7366C28.7366 0.643842 28.5393 0.911538 28.2127 1.35488L28.2125 1.35508L28.2124 1.35526C27.8177 1.89088 27.2771 2.62444 27.2771 3.96114C27.2771 5.29792 27.8177 6.03149 28.2125 6.56714L28.2126 6.56725C28.5393 7.01057 28.7366 7.27826 28.7366 7.92171C28.7366 8.56534 28.5393 8.83303 28.2126 9.27646L28.2125 9.27663L28.2124 9.27672C27.8177 9.81242 27.2771 10.5461 27.2771 11.8828C27.2771 13.2197 27.8177 13.9534 28.2125 14.489L28.2125 14.4891C28.5393 14.9326 28.7366 15.2003 28.7366 15.844H30.846C30.846 14.507 30.3054 13.7734 29.9106 13.2377L29.9105 13.2375C29.5837 12.7941 29.3865 12.5264 29.3865 11.8828C29.3865 11.2392 29.5837 10.9716 29.9103 10.5282L29.9106 10.5278L29.9107 10.5277C30.3054 9.99204 30.846 9.25841 30.846 7.92157ZM35.2648 5.31578C35.6596 5.85142 36.2002 6.58499 36.2002 7.92178C36.2002 9.2587 35.6597 9.99234 35.2649 10.5278L35.2646 10.5282C34.938 10.9716 34.7408 11.2392 34.7408 11.8828C34.7408 12.5264 34.938 12.7941 35.2648 13.2375L35.2649 13.2377C35.6597 13.7734 36.2002 14.507 36.2002 15.844H34.0909C34.0909 15.2003 33.8936 14.9326 33.5668 14.4891L33.5668 14.489C33.172 13.9534 32.6314 13.2197 32.6314 11.8828C32.6314 10.546 33.172 9.81241 33.5667 9.27671L33.5668 9.27663L33.5669 9.27645C33.8936 8.83302 34.0909 8.56533 34.0909 7.92171C34.0909 7.27826 33.8936 7.01057 33.5669 6.56724L33.5668 6.56714C33.172 6.03149 32.6314 5.29792 32.6314 3.96114C32.6314 2.62444 33.172 1.89088 33.5667 1.35526L33.5668 1.35508L33.567 1.35489C33.8936 0.911542 34.0909 0.643846 34.0909 0.000439453H36.2002C36.2002 1.33729 35.6596 2.07086 35.2648 2.6065L35.2645 2.60693C34.9379 3.0502 34.7408 3.31785 34.7408 3.96121C34.7408 4.60466 34.938 4.87235 35.2647 5.31568L35.2648 5.31578Z" fill="#D8D1C9"/>
</svg>
