<svg width="28" height="32" viewBox="0 0 28 32" fill="none" xmlns="http://www.w3.org/2000/svg">
<path d="M0.666016 16.1455C0.666016 16.1455 5.42657 15.3824 8.23612 19.6357" stroke="#D8D1C9" stroke-width="2" stroke-miterlimit="10"/>
<path d="M22.5695 11.7554C27.4206 18.3191 26.459 26.113 26.459 26.113C18.6938 33.0198 6.65607 29.2281 6.65607 29.2281C3.93677 31.4708 0.666016 30.9466 0.666016 30.9466" stroke="#D8D1C9" stroke-width="2" stroke-miterlimit="10"/>
<path d="M5.23145 21.6259C5.23145 21.6259 7.57606 18.7638 13.0747 19.3627C19.3019 20.0408 20.7229 25.1378 20.7229 25.1378" stroke="#D8D1C9" stroke-width="2" stroke-miterlimit="10"/>
<path d="M19.2072 22.473L19.0205 15.0244" stroke="#D8D1C9" stroke-width="2" stroke-miterlimit="10"/>
<path d="M16.1184 11.4468C17.8498 11.4468 19.2534 10.0432 19.2534 8.31177C19.2534 6.58035 17.8498 5.17676 16.1184 5.17676C14.387 5.17676 12.9834 6.58035 12.9834 8.31177C12.9834 10.0432 14.387 11.4468 16.1184 11.4468Z" stroke="#D8D1C9" stroke-width="2" stroke-miterlimit="10"/>
<path d="M16.1184 15.6235C20.1565 15.6235 23.4301 12.3499 23.4301 8.31174C23.4301 4.27358 20.1565 1 16.1184 1C12.0802 1 8.80664 4.27358 8.80664 8.31174C8.80664 12.3499 12.0802 15.6235 16.1184 15.6235Z" stroke="#D8D1C9" stroke-width="2" stroke-miterlimit="10"/>
</svg>
