<svg width="36" height="35" viewBox="0 0 36 35" fill="none" xmlns="http://www.w3.org/2000/svg">
<path d="M19.8861 18.8486C17.8914 18.8486 16.2686 20.4715 16.2686 22.4662C16.2686 24.1048 17.3637 25.4925 18.8607 25.9354V28.8978C18.8607 29.4641 19.3198 29.9232 19.8861 29.9232C20.4524 29.9232 20.9115 29.4641 20.9115 28.8978V25.9354H20.9115C22.4086 25.4925 23.5037 24.1048 23.5037 22.4662C23.5037 20.4715 21.8809 18.8486 19.8861 18.8486ZM19.8885 24.0329C19.8877 24.0329 19.8869 24.0328 19.8861 24.0328C19.8852 24.0328 19.8845 24.0329 19.8837 24.0329C19.0207 24.0316 18.3193 23.3295 18.3193 22.4662C18.3193 21.6021 19.0221 20.8994 19.8861 20.8994C20.7502 20.8994 21.4529 21.6021 21.4529 22.4662C21.4529 23.3295 20.7515 24.0316 19.8885 24.0329Z" fill="#D8D1C9"/>
<path d="M32.1219 7.33496H29.6295V2.39258C29.6295 1.07324 28.5562 0 27.2369 0H12.5342C11.2148 0 10.1416 1.07324 10.1416 2.39258V32.6074C10.1416 33.9268 11.2148 35 12.5342 35H27.2369C28.5562 35 29.6295 33.9268 29.6295 32.6074V13.7573H32.1219C33.8924 13.7573 35.3327 12.3163 35.3327 10.5465C35.3327 8.77598 33.8924 7.33496 32.1219 7.33496ZM27.5787 32.6074C27.5787 32.7961 27.4256 32.9492 27.2369 32.9492H12.5342C12.3455 32.9492 12.1924 32.7961 12.1924 32.6074V2.39258C12.1924 2.20391 12.3455 2.05078 12.5342 2.05078H27.2369C27.4256 2.05078 27.5787 2.20391 27.5787 2.39258V7.33496H24.0719C23.0807 6.04775 21.5262 5.26914 19.8855 5.26914C16.9755 5.26914 14.6089 7.63643 14.6089 10.5465C14.6089 13.4559 16.9755 15.8231 19.8855 15.8231C21.5262 15.8231 23.0807 15.0445 24.0719 13.7573H27.5787V32.6074ZM32.1219 11.7065C30.8744 11.7065 24.5204 11.7065 23.5325 11.7065C23.1723 11.7065 22.8387 11.8952 22.6534 12.2035C22.0635 13.1858 21.0285 13.7724 19.8855 13.7724C18.1068 13.7724 16.6597 12.3252 16.6597 10.5465C16.6597 8.76709 18.1068 7.31992 19.8855 7.31992C21.0285 7.31992 22.0635 7.90645 22.6534 8.88877C22.8387 9.19707 23.1723 9.38574 23.5325 9.38574H32.1219C32.7617 9.38574 33.2819 9.90664 33.2819 10.5465C33.2819 11.1856 32.7617 11.7065 32.1219 11.7065Z" fill="#D8D1C9"/>
<path d="M7.85074 15.4192C8.37013 15.1937 8.6083 14.5896 8.38264 14.0702C8.15699 13.5508 7.55324 13.3126 7.03364 13.5383C3.57678 15.0398 3.57267 19.9589 7.03364 21.4623C7.55297 21.6879 8.15699 21.4499 8.38264 20.9304C8.6083 20.4109 8.37007 19.8069 7.85074 19.5814C6.03498 18.7926 6.03211 16.2092 7.85074 15.4192Z" fill="#D8D1C9"/>
<path d="M7.62374 23.769C4.58749 23.2234 2.38379 20.587 2.38379 17.5001C2.38379 14.4132 4.58749 11.7767 7.62374 11.2311C8.18107 11.1309 8.55172 10.5979 8.45157 10.0405C8.35143 9.48308 7.81829 9.11243 7.26096 9.21265C3.24669 9.93397 0.333008 13.4194 0.333008 17.5001C0.333008 21.5807 3.24669 25.0661 7.26103 25.7875C7.32234 25.7985 7.38339 25.8038 7.44361 25.8038C7.93047 25.8038 8.3625 25.4556 8.45164 24.9596C8.55179 24.4022 8.18114 23.8692 7.62374 23.769Z" fill="#D8D1C9"/>
</svg>
