<svg width="33" height="34" viewBox="0 0 33 34" fill="none" xmlns="http://www.w3.org/2000/svg">
<path d="M5.46387 11.4607C5.46387 17.6481 10.4798 22.6641 16.6672 22.6641C22.8546 22.6641 27.8705 17.6481 27.8705 11.4607H5.46387Z" stroke="#D8D1C9" stroke-width="2.2" stroke-linecap="round" stroke-linejoin="round"/>
<path d="M16.6659 7.60156C17.8914 6.68239 17.8931 5.72115 16.6659 4.80073C15.4403 3.88156 15.4387 2.92032 16.6659 1.9999" stroke="#D8D1C9" stroke-width="2.2" stroke-linecap="round" stroke-linejoin="round"/>
<path d="M21.3338 7.60156C22.5594 6.68239 22.561 5.72115 21.3338 4.80073C20.1083 3.88156 20.1066 2.92032 21.3338 1.9999" stroke="#D8D1C9" stroke-width="2.2" stroke-linecap="round" stroke-linejoin="round"/>
<path d="M11.9979 7.60156C13.2234 6.68239 13.2251 5.72115 11.9979 4.80073C10.7724 3.88156 10.7707 2.92032 11.9979 1.9999" stroke="#D8D1C9" stroke-width="2.2" stroke-linecap="round" stroke-linejoin="round"/>
<path d="M16.667 22.6639V32" stroke="#D8D1C9" stroke-width="2.2" stroke-linecap="round" stroke-linejoin="round"/>
<path d="M27.8701 11.4604V9.59323H31.6668" stroke="#D8D1C9" stroke-width="2.2" stroke-linecap="round" stroke-linejoin="round"/>
<path d="M5.4627 11.4604V9.59323H1.66602" stroke="#D8D1C9" stroke-width="2.2" stroke-linecap="round" stroke-linejoin="round"/>
<path d="M12.5681 21.8904L9.19824 32" stroke="#D8D1C9" stroke-width="2.2" stroke-linecap="round" stroke-linejoin="round"/>
<path d="M20.7656 21.8904L24.1355 32" stroke="#D8D1C9" stroke-width="2.2" stroke-linecap="round" stroke-linejoin="round"/>
<path d="M10.4424 28.2656H22.8905" stroke="#D8D1C9" stroke-width="2.2" stroke-linecap="round" stroke-linejoin="round"/>
</svg>
