<svg width="37" height="36" viewBox="0 0 37 36" fill="none" xmlns="http://www.w3.org/2000/svg">
<g clip-path="url(#clip0_424_1232)">
<path fill-rule="evenodd" clip-rule="evenodd" d="M31.0239 32.8736C22.7202 37.1092 12.8929 37.1092 4.58925 32.8736L4 32.573V26.608H8.28906V23.4261C7.41065 24.0735 6.32529 24.4562 5.15031 24.4562H4.07031V18.396C4.07031 15.4681 6.44149 13.0924 9.36906 13.0924H13.5878L13.5878 13.0931H19.5004V9.92417e-05H20.5804C22.042 9.92417e-05 23.3762 0.594124 24.3352 1.55329L24.336 1.55405C25.0013 2.22076 25.4917 3.06619 25.7283 4.01248H27.6496C30.5772 4.01248 32.9484 6.38807 32.9484 9.31601V12.5078H27.3241V26.608H31.6131V32.573L31.0239 32.8736ZM9.31997 15.2528C8.67195 16.1327 8.28906 17.2201 8.28906 18.3967L8.28906 19.1527C8.28906 19.1533 8.28906 19.1538 8.28906 19.1544C8.28832 20.5105 7.43073 21.6645 6.23031 22.1051V18.396C6.23031 16.6752 7.61025 15.2791 9.31997 15.2528ZM10.4491 19.1527L10.4491 18.3967C10.4491 16.6593 11.8555 15.2531 13.5878 15.2531H21.6604V2.34974C22.0961 2.50828 22.487 2.75985 22.8074 3.08012C23.342 3.61606 23.6834 4.34127 23.7225 5.14506L23.7726 6.17248H27.6496C29.3819 6.17248 30.7884 7.57871 30.7884 9.31601V10.3478H25.1641V26.608H23.1053V20.6652H12.5078V26.608H10.4491V19.1559C10.4491 19.1548 10.4491 19.1537 10.4491 19.1527ZM20.9453 26.608H14.6678V22.8252H20.9453V26.608ZM6.16 28.768V31.241C13.5224 34.7734 22.0907 34.7734 29.4531 31.241V28.768H6.16Z" fill="#D8D1C9"/>
</g>
<defs>
<clipPath id="clip0_424_1232">
<rect width="36" height="36" fill="white" transform="translate(0.400391)"/>
</clipPath>
</defs>
</svg>
