<svg width="63" height="24" viewBox="0 0 63 24" fill="none" xmlns="http://www.w3.org/2000/svg">
<rect width="24" height="24" rx="12" fill="#784839"/>
<path fill-rule="evenodd" clip-rule="evenodd" d="M14.8327 8.66671C14.8327 8.94271 14.6087 9.16671 14.3327 9.16671C14.0567 9.16671 13.8327 8.94271 13.8327 8.66671V7.66671C13.8327 6.65404 13.012 5.83337 11.9993 5.83337C10.9867 5.83337 10.166 6.65404 10.166 7.66671V8.66671C10.166 8.94271 9.94202 9.16671 9.66602 9.16671C9.39002 9.16671 9.16602 8.94271 9.16602 8.66671V7.66671C9.16602 6.10204 10.4347 4.83337 11.9993 4.83337C13.564 4.83337 14.8327 6.10204 14.8327 7.66671V8.66671Z" fill="#E0DCD5"/>
<path fill-rule="evenodd" clip-rule="evenodd" d="M16.8943 9.56675L17.4276 16.5667C17.455 16.9814 17.3096 17.3881 17.0263 17.6914C16.7423 17.9947 16.3456 18.1667 15.931 18.1667H8.06829C7.65362 18.1667 7.25696 17.9947 6.97296 17.6914C6.68962 17.3881 6.54429 16.9814 6.57162 16.5667L7.10496 9.56675C7.15762 8.77875 7.81229 8.16675 8.60162 8.16675H15.3976C16.187 8.16675 16.8416 8.77875 16.8943 9.56675ZM13.657 11.1187C13.3623 11.7381 12.731 12.1667 11.9996 12.1667C11.2683 12.1667 10.637 11.7381 10.3423 11.1187C10.2243 10.8694 9.92562 10.7634 9.67629 10.8821C9.42696 11.0001 9.32096 11.2987 9.43896 11.5481C9.89362 12.5054 10.8696 13.1667 11.9996 13.1667C13.1296 13.1667 14.1056 12.5054 14.5603 11.5481C14.6783 11.2987 14.5723 11.0001 14.323 10.8821C14.0736 10.7634 13.775 10.8694 13.657 11.1187Z" fill="#E0DCD5"/>
<path d="M32.565 15.22C31.9857 15.22 31.443 15.121 30.937 14.923C30.4383 14.7177 30.002 14.4353 29.628 14.076C29.2613 13.7093 28.9717 13.2803 28.759 12.789C28.5463 12.2903 28.44 11.744 28.44 11.15C28.44 10.556 28.5463 10.0133 28.759 9.522C28.9717 9.02333 29.2613 8.59433 29.628 8.235C30.002 7.86833 30.4383 7.586 30.937 7.388C31.443 7.18267 31.9857 7.08 32.565 7.08C32.961 7.08 33.3203 7.12033 33.643 7.201C33.9657 7.28167 34.2553 7.388 34.512 7.52C34.7687 7.652 34.9923 7.80233 35.183 7.971C35.381 8.13967 35.5497 8.312 35.689 8.488C36.019 8.89867 36.261 9.36433 36.415 9.885H35.15C35.018 9.59167 34.8347 9.32767 34.6 9.093C34.402 8.895 34.138 8.71167 33.808 8.543C33.478 8.37433 33.0637 8.29 32.565 8.29C32.1543 8.29 31.7767 8.35967 31.432 8.499C31.0873 8.63833 30.7903 8.83267 30.541 9.082C30.2917 9.33133 30.0973 9.632 29.958 9.984C29.826 10.336 29.76 10.7247 29.76 11.15C29.76 11.5753 29.826 11.964 29.958 12.316C30.0973 12.668 30.2917 12.9687 30.541 13.218C30.7903 13.4673 31.0873 13.6617 31.432 13.801C31.7767 13.9403 32.1543 14.01 32.565 14.01C33.071 14.01 33.4927 13.9183 33.83 13.735C34.1673 13.5517 34.4387 13.35 34.644 13.13C34.886 12.8733 35.073 12.58 35.205 12.25H36.47C36.2867 12.8073 36.019 13.3023 35.667 13.735C35.5203 13.9257 35.348 14.109 35.15 14.285C34.952 14.461 34.7247 14.6187 34.468 14.758C34.2187 14.8973 33.9327 15.0073 33.61 15.088C33.2947 15.176 32.9463 15.22 32.565 15.22ZM40.0966 15.11C39.6859 15.11 39.3009 15.0367 38.9416 14.89C38.5896 14.736 38.2816 14.5307 38.0176 14.274C37.7609 14.01 37.5556 13.702 37.4016 13.35C37.2549 12.9907 37.1816 12.6057 37.1816 12.195C37.1816 11.7843 37.2549 11.403 37.4016 11.051C37.5556 10.6917 37.7609 10.3837 38.0176 10.127C38.2816 9.863 38.5896 9.65767 38.9416 9.511C39.3009 9.357 39.6859 9.28 40.0966 9.28C40.5072 9.28 40.8886 9.357 41.2406 9.511C41.5999 9.65767 41.9079 9.863 42.1646 10.127C42.4286 10.3837 42.6339 10.6917 42.7806 11.051C42.9346 11.403 43.0116 11.7843 43.0116 12.195C43.0116 12.6057 42.9346 12.9907 42.7806 13.35C42.6339 13.702 42.4286 14.01 42.1646 14.274C41.9079 14.5307 41.5999 14.736 41.2406 14.89C40.8886 15.0367 40.5072 15.11 40.0966 15.11ZM40.0966 14.065C40.3459 14.065 40.5732 14.021 40.7786 13.933C40.9912 13.845 41.1709 13.7203 41.3176 13.559C41.4716 13.3977 41.5889 13.2033 41.6696 12.976C41.7576 12.7413 41.8016 12.481 41.8016 12.195C41.8016 11.909 41.7576 11.6523 41.6696 11.425C41.5889 11.1903 41.4716 10.9923 41.3176 10.831C41.1709 10.6697 40.9912 10.545 40.7786 10.457C40.5732 10.369 40.3459 10.325 40.0966 10.325C39.8472 10.325 39.6162 10.369 39.4036 10.457C39.1982 10.545 39.0186 10.6697 38.8646 10.831C38.7179 10.9923 38.6006 11.1903 38.5126 11.425C38.4319 11.6523 38.3916 11.909 38.3916 12.195C38.3916 12.481 38.4319 12.7413 38.5126 12.976C38.6006 13.2033 38.7179 13.3977 38.8646 13.559C39.0186 13.7203 39.1982 13.845 39.4036 13.933C39.6162 14.021 39.8472 14.065 40.0966 14.065ZM43.9998 7.3H45.1548V13.955H46.4198V15H43.9998V7.3ZM47.1903 9.39H48.3453V15H47.1903V9.39ZM47.7623 8.565C47.5716 8.565 47.4103 8.499 47.2783 8.367C47.1463 8.235 47.0803 8.07367 47.0803 7.883C47.0803 7.69233 47.1463 7.531 47.2783 7.399C47.4103 7.25967 47.5716 7.19 47.7623 7.19C47.9529 7.19 48.1143 7.25967 48.2463 7.399C48.3856 7.531 48.4553 7.69233 48.4553 7.883C48.4553 8.07367 48.3856 8.235 48.2463 8.367C48.1143 8.499 47.9529 8.565 47.7623 8.565ZM52.631 15.11C52.3376 15.11 52.081 15.0697 51.861 14.989C51.6483 14.901 51.4686 14.8057 51.322 14.703C51.146 14.5783 50.9956 14.439 50.871 14.285H50.816V15H49.661V7.3H50.816V10.105H50.871C50.9956 9.95833 51.146 9.82267 51.322 9.698C51.4686 9.59533 51.6483 9.5 51.861 9.412C52.081 9.324 52.3376 9.28 52.631 9.28C53.005 9.28 53.3496 9.34967 53.665 9.489C53.9876 9.62833 54.2663 9.82633 54.501 10.083C54.743 10.3323 54.93 10.6367 55.062 10.996C55.2013 11.3553 55.271 11.755 55.271 12.195C55.271 12.635 55.2013 13.0347 55.062 13.394C54.93 13.7533 54.743 14.0613 54.501 14.318C54.2663 14.5673 53.9876 14.7617 53.665 14.901C53.3496 15.0403 53.005 15.11 52.631 15.11ZM52.411 14.065C52.9096 14.065 53.3093 13.9073 53.61 13.592C53.9106 13.2693 54.061 12.8037 54.061 12.195C54.061 11.5863 53.9106 11.1243 53.61 10.809C53.3093 10.4863 52.9096 10.325 52.411 10.325C51.9416 10.325 51.5566 10.4863 51.256 10.809C50.9626 11.1243 50.816 11.5863 50.816 12.195C50.816 12.8037 50.9626 13.2693 51.256 13.592C51.5566 13.9073 51.9416 14.065 52.411 14.065ZM56.2567 9.39H57.4117V10.215H57.4667C57.5547 10.0537 57.672 9.907 57.8187 9.775C57.9433 9.665 58.101 9.566 58.2917 9.478C58.4897 9.38267 58.728 9.335 59.0067 9.335H59.6667V10.435H58.9517C58.7317 10.435 58.5263 10.4717 58.3357 10.545C58.1523 10.6183 57.991 10.721 57.8517 10.853C57.7123 10.985 57.6023 11.1463 57.5217 11.337C57.4483 11.5277 57.4117 11.7403 57.4117 11.975V15H56.2567V9.39ZM60.5428 9.39H61.6978V15H60.5428V9.39ZM61.1148 8.565C60.9241 8.565 60.7628 8.499 60.6308 8.367C60.4988 8.235 60.4328 8.07367 60.4328 7.883C60.4328 7.69233 60.4988 7.531 60.6308 7.399C60.7628 7.25967 60.9241 7.19 61.1148 7.19C61.3055 7.19 61.4668 7.25967 61.5988 7.399C61.7381 7.531 61.8078 7.69233 61.8078 7.883C61.8078 8.07367 61.7381 8.235 61.5988 8.367C61.4668 8.499 61.3055 8.565 61.1148 8.565Z" fill="#784839"/>
</svg>
