<svg width="92" height="24" viewBox="0 0 92 24" fill="none" xmlns="http://www.w3.org/2000/svg">
<rect width="24" height="24" rx="12" fill="#784839"/>
<path d="M16.9196 6.28888C13.5436 5.01687 10.2316 5.01687 7.07424 6.29154C6.97292 6.33154 6.90625 6.4302 6.90625 6.53954V12.5902C6.90625 18.0489 11.9196 18.6569 11.9702 18.6622C11.9809 18.6649 11.9889 18.6649 11.9996 18.6649C12.0102 18.6649 12.0182 18.6649 12.0289 18.6622C12.0796 18.6569 17.0929 18.0489 17.0929 12.5902V6.53954C17.0929 6.42755 17.0236 6.32887 16.9196 6.28888ZM8.53558 9.85154C8.53558 9.1822 9.07957 8.63554 9.75158 8.63554C10.4209 8.63554 10.9649 9.1822 10.9649 9.85154C10.9649 10.5209 10.4209 11.0675 9.75158 11.0675C9.07957 11.0675 8.53558 10.5209 8.53558 9.85154ZM11.9996 15.6409C10.3836 15.6409 9.09557 14.0969 9.09557 13.4915C9.09557 13.3529 9.14891 13.2329 9.24758 13.1555C9.46624 12.9795 9.79691 13.0489 10.3436 13.1662C10.8049 13.2649 11.3756 13.3902 11.9996 13.3902C12.6236 13.3902 13.1969 13.2649 13.6556 13.1662C14.2022 13.0489 14.5329 12.9795 14.7516 13.1555C14.8502 13.2329 14.9036 13.3529 14.9036 13.4915C14.9036 14.0969 13.6156 15.6409 11.9996 15.6409ZM14.2476 11.0675C13.5782 11.0675 13.0342 10.5209 13.0342 9.85154C13.0342 9.1822 13.5782 8.63554 14.2476 8.63554C14.9196 8.63554 15.4636 9.1822 15.4636 9.85154C15.4636 10.5209 14.9196 11.0675 14.2476 11.0675Z" fill="#E0DCD5"/>
<path d="M30.145 1.3H33.28L35.315 9H33.995L33.467 7.02H29.925L29.43 9H28.165L30.145 1.3ZM33.159 5.81L32.29 2.51H31.08L30.255 5.81H33.159ZM36.1366 1.3H37.2916V7.955H38.5566V9H36.1366V1.3ZM39.327 3.39H40.482V4.16H40.537C40.6323 3.99867 40.757 3.852 40.911 3.72C41.043 3.61 41.2117 3.511 41.417 3.423C41.6223 3.32767 41.879 3.28 42.187 3.28C42.5463 3.28 42.8397 3.335 43.067 3.445C43.3017 3.555 43.4887 3.676 43.628 3.808C43.7893 3.962 43.914 4.13433 44.002 4.325H44.057C44.1597 4.13433 44.3027 3.962 44.486 3.808C44.6327 3.676 44.827 3.555 45.069 3.445C45.3183 3.335 45.6227 3.28 45.982 3.28C46.62 3.28 47.126 3.48167 47.5 3.885C47.8813 4.281 48.072 4.86767 48.072 5.645V9H46.917V5.7C46.917 5.23067 46.8107 4.886 46.598 4.666C46.3927 4.43867 46.0957 4.325 45.707 4.325C45.5163 4.325 45.333 4.36533 45.157 4.446C44.9883 4.51933 44.838 4.62933 44.706 4.776C44.574 4.91533 44.4677 5.084 44.387 5.282C44.3137 5.47267 44.277 5.68533 44.277 5.92V9H43.122V5.7C43.122 5.23067 43.0157 4.886 42.803 4.666C42.5977 4.43867 42.3007 4.325 41.912 4.325C41.7213 4.325 41.538 4.36533 41.362 4.446C41.1933 4.51933 41.043 4.62933 40.911 4.776C40.779 4.91533 40.6727 5.084 40.592 5.282C40.5187 5.47267 40.482 5.68533 40.482 5.92V9H39.327V3.39ZM51.6487 9.11C51.2747 9.11 50.9264 9.04033 50.6037 8.901C50.2884 8.76167 50.0097 8.56733 49.7677 8.318C49.533 8.06133 49.346 7.75333 49.2067 7.394C49.0747 7.03467 49.0087 6.635 49.0087 6.195C49.0087 5.755 49.0747 5.35533 49.2067 4.996C49.346 4.63667 49.533 4.33233 49.7677 4.083C50.0097 3.82633 50.2884 3.62833 50.6037 3.489C50.9264 3.34967 51.2747 3.28 51.6487 3.28C51.9347 3.28 52.1877 3.324 52.4077 3.412C52.6277 3.5 52.811 3.59533 52.9577 3.698C53.1337 3.82267 53.284 3.95833 53.4087 4.105H53.4637V3.39H54.6187V9H53.4637V8.23H53.4087C53.284 8.39133 53.1337 8.538 52.9577 8.67C52.811 8.78 52.6277 8.88267 52.4077 8.978C52.1877 9.066 51.9347 9.11 51.6487 9.11ZM51.8687 8.065C52.338 8.065 52.7194 7.90733 53.0127 7.592C53.3134 7.26933 53.4637 6.80367 53.4637 6.195C53.4637 5.58633 53.3134 5.12433 53.0127 4.809C52.7194 4.48633 52.338 4.325 51.8687 4.325C51.37 4.325 50.9704 4.48633 50.6697 4.809C50.369 5.12433 50.2187 5.58633 50.2187 6.195C50.2187 6.80367 50.369 7.26933 50.6697 7.592C50.9704 7.90733 51.37 8.065 51.8687 8.065ZM56.1544 4.435H55.4944V3.39H56.1544V2.18H57.3094V3.39H59.0144V4.435H57.3094V7.955H59.0694V9H56.1544V4.435ZM62.2044 9H61.0494L59.5094 3.39H60.7194L61.9294 7.9H62.5344L63.8544 3.39H65.0644L62.7544 11.09H61.5444L62.2044 9ZM30.64 14.51H28.11V13.3H34.435V14.51H31.905V21H30.64V14.51ZM35.202 13.3H36.357V16.16H36.412C36.5147 15.9987 36.6503 15.852 36.819 15.72C36.9657 15.61 37.1453 15.511 37.358 15.423C37.578 15.3277 37.8493 15.28 38.172 15.28C38.8613 15.28 39.4003 15.4817 39.789 15.885C40.1777 16.281 40.372 16.8677 40.372 17.645V21H39.217V17.755C39.217 17.2563 39.107 16.8933 38.887 16.666C38.667 16.4387 38.337 16.325 37.897 16.325C37.677 16.325 37.4717 16.3653 37.281 16.446C37.0977 16.5267 36.9363 16.6403 36.797 16.787C36.6577 16.9263 36.5477 17.0987 36.467 17.304C36.3937 17.502 36.357 17.7257 36.357 17.975V21H35.202V13.3ZM44.1666 21.11C43.7706 21.11 43.3966 21.0367 43.0446 20.89C42.6999 20.736 42.3956 20.5307 42.1316 20.274C41.8749 20.01 41.6732 19.702 41.5266 19.35C41.3799 18.9907 41.3066 18.6057 41.3066 18.195C41.3066 17.7843 41.3799 17.403 41.5266 17.051C41.6732 16.6917 41.8749 16.3837 42.1316 16.127C42.3956 15.863 42.6999 15.6577 43.0446 15.511C43.3966 15.357 43.7706 15.28 44.1666 15.28C44.5626 15.28 44.9329 15.357 45.2776 15.511C45.6296 15.6577 45.9339 15.863 46.1906 16.127C46.4546 16.3837 46.6599 16.6917 46.8066 17.051C46.9532 17.403 47.0266 17.7843 47.0266 18.195V18.58H42.4616C42.5056 18.8147 42.5789 19.0237 42.6816 19.207C42.7842 19.3903 42.9126 19.548 43.0666 19.68C43.2206 19.8047 43.3892 19.9 43.5726 19.966C43.7632 20.032 43.9612 20.065 44.1666 20.065C44.4526 20.065 44.6982 20.0283 44.9036 19.955C45.1089 19.8743 45.2739 19.7827 45.3986 19.68C45.5452 19.57 45.6662 19.4417 45.7616 19.295H46.9716C46.8322 19.6397 46.6379 19.944 46.3886 20.208C46.2786 20.318 46.1539 20.428 46.0146 20.538C45.8752 20.648 45.7139 20.747 45.5306 20.835C45.3472 20.9157 45.1419 20.9817 44.9146 21.033C44.6872 21.0843 44.4379 21.11 44.1666 21.11ZM45.8166 17.645C45.7872 17.4837 45.7322 17.3223 45.6516 17.161C45.5709 16.9997 45.4609 16.8603 45.3216 16.743C45.1822 16.6183 45.0172 16.5193 44.8266 16.446C44.6359 16.3653 44.4159 16.325 44.1666 16.325C43.9759 16.325 43.7889 16.3543 43.6056 16.413C43.4296 16.4717 43.2646 16.5597 43.1106 16.677C42.9639 16.787 42.8392 16.9263 42.7366 17.095C42.6339 17.2563 42.5606 17.4397 42.5166 17.645H45.8166ZM50.3274 21.11C49.9534 21.11 49.6051 21.0403 49.2824 20.901C48.9671 20.7617 48.6884 20.5673 48.4464 20.318C48.2118 20.0613 48.0248 19.7533 47.8854 19.394C47.7534 19.0347 47.6874 18.635 47.6874 18.195C47.6874 17.755 47.7534 17.3553 47.8854 16.996C48.0248 16.6367 48.2118 16.3323 48.4464 16.083C48.6884 15.8263 48.9671 15.6283 49.2824 15.489C49.6051 15.3497 49.9534 15.28 50.3274 15.28C50.6134 15.28 50.8664 15.324 51.0864 15.412C51.3064 15.5 51.4898 15.5953 51.6364 15.698C51.8124 15.8227 51.9628 15.9583 52.0874 16.105H52.1424V15.39H53.2974V21H52.1424V20.23H52.0874C51.9628 20.3913 51.8124 20.538 51.6364 20.67C51.4898 20.78 51.3064 20.8827 51.0864 20.978C50.8664 21.066 50.6134 21.11 50.3274 21.11ZM50.5474 20.065C51.0168 20.065 51.3981 19.9073 51.6914 19.592C51.9921 19.2693 52.1424 18.8037 52.1424 18.195C52.1424 17.5863 51.9921 17.1243 51.6914 16.809C51.3981 16.4863 51.0168 16.325 50.5474 16.325C50.0488 16.325 49.6491 16.4863 49.3484 16.809C49.0478 17.1243 48.8974 17.5863 48.8974 18.195C48.8974 18.8037 49.0478 19.2693 49.3484 19.592C49.6491 19.9073 50.0488 20.065 50.5474 20.065ZM54.8331 16.435H54.1731V15.39H54.8331V14.18H55.9881V15.39H57.6931V16.435H55.9881V19.955H57.7481V21H54.8331V16.435ZM58.7381 15.39H59.8931V16.215H59.9481C60.0361 16.0537 60.1535 15.907 60.3001 15.775C60.4248 15.665 60.5825 15.566 60.7731 15.478C60.9711 15.3827 61.2095 15.335 61.4881 15.335H62.1481V16.435H61.4331C61.2131 16.435 61.0078 16.4717 60.8171 16.545C60.6338 16.6183 60.4725 16.721 60.3331 16.853C60.1938 16.985 60.0838 17.1463 60.0031 17.337C59.9298 17.5277 59.8931 17.7403 59.8931 17.975V21H58.7381V15.39ZM65.5543 21.11C65.1583 21.11 64.7843 21.0367 64.4323 20.89C64.0876 20.736 63.7833 20.5307 63.5193 20.274C63.2626 20.01 63.0609 19.702 62.9143 19.35C62.7676 18.9907 62.6943 18.6057 62.6943 18.195C62.6943 17.7843 62.7676 17.403 62.9143 17.051C63.0609 16.6917 63.2626 16.3837 63.5193 16.127C63.7833 15.863 64.0876 15.6577 64.4323 15.511C64.7843 15.357 65.1583 15.28 65.5543 15.28C65.9503 15.28 66.3206 15.357 66.6653 15.511C67.0173 15.6577 67.3216 15.863 67.5783 16.127C67.8423 16.3837 68.0476 16.6917 68.1943 17.051C68.3409 17.403 68.4143 17.7843 68.4143 18.195V18.58H63.8493C63.8933 18.8147 63.9666 19.0237 64.0693 19.207C64.1719 19.3903 64.3003 19.548 64.4543 19.68C64.6083 19.8047 64.7769 19.9 64.9603 19.966C65.1509 20.032 65.3489 20.065 65.5543 20.065C65.8403 20.065 66.0859 20.0283 66.2913 19.955C66.4966 19.8743 66.6616 19.7827 66.7863 19.68C66.9329 19.57 67.0539 19.4417 67.1493 19.295H68.3593C68.2199 19.6397 68.0256 19.944 67.7763 20.208C67.6663 20.318 67.5416 20.428 67.4023 20.538C67.2629 20.648 67.1016 20.747 66.9183 20.835C66.7349 20.9157 66.5296 20.9817 66.3023 21.033C66.0749 21.0843 65.8256 21.11 65.5543 21.11ZM67.2043 17.645C67.1749 17.4837 67.1199 17.3223 67.0393 17.161C66.9586 16.9997 66.8486 16.8603 66.7093 16.743C66.5699 16.6183 66.4049 16.5193 66.2143 16.446C66.0236 16.3653 65.8036 16.325 65.5543 16.325C65.3636 16.325 65.1766 16.3543 64.9933 16.413C64.8173 16.4717 64.6523 16.5597 64.4983 16.677C64.3516 16.787 64.2269 16.9263 64.1243 17.095C64.0216 17.2563 63.9483 17.4397 63.9043 17.645H67.2043Z" fill="#784839"/>
</svg>
