<svg width="93" height="24" viewBox="0 0 93 24" fill="none" xmlns="http://www.w3.org/2000/svg">
<rect width="24" height="24" rx="12" fill="#784839"/>
<path fill-rule="evenodd" clip-rule="evenodd" d="M14.8327 8.66659C14.8327 8.94259 14.6087 9.16659 14.3327 9.16659C14.0567 9.16659 13.8327 8.94259 13.8327 8.66659V7.66659C13.8327 6.65392 13.012 5.83325 11.9993 5.83325C10.9867 5.83325 10.166 6.65392 10.166 7.66659V8.66659C10.166 8.94259 9.94202 9.16659 9.66602 9.16659C9.39002 9.16659 9.16602 8.94259 9.16602 8.66659V7.66659C9.16602 6.10192 10.4347 4.83325 11.9993 4.83325C13.564 4.83325 14.8327 6.10192 14.8327 7.66659V8.66659Z" fill="#E0DCD5"/>
<path fill-rule="evenodd" clip-rule="evenodd" d="M16.8943 9.5665L17.4276 16.5665C17.455 16.9812 17.3096 17.3878 17.0263 17.6912C16.7423 17.9945 16.3456 18.1665 15.931 18.1665H8.06829C7.65362 18.1665 7.25696 17.9945 6.97296 17.6912C6.68962 17.3878 6.54429 16.9812 6.57162 16.5665L7.10496 9.5665C7.15762 8.7785 7.81229 8.1665 8.60162 8.1665H15.3976C16.187 8.1665 16.8416 8.7785 16.8943 9.5665ZM13.657 11.1185C13.3623 11.7378 12.731 12.1665 11.9996 12.1665C11.2683 12.1665 10.637 11.7378 10.3423 11.1185C10.2243 10.8692 9.92562 10.7632 9.67629 10.8818C9.42696 10.9998 9.32096 11.2985 9.43896 11.5478C9.89362 12.5052 10.8696 13.1665 11.9996 13.1665C13.1296 13.1665 14.1056 12.5052 14.5603 11.5478C14.6783 11.2985 14.5723 10.9998 14.323 10.8818C14.0736 10.7632 13.775 10.8692 13.657 11.1185Z" fill="#E0DCD5"/>
<path d="M28.77 7.3H34.325V8.51H30.035V10.49H33.5V11.7H30.035V13.79H34.325V15H28.77V7.3ZM37.414 15.11C37.128 15.11 36.8677 15.0843 36.633 15.033C36.4057 14.9817 36.204 14.912 36.028 14.824C35.852 14.736 35.698 14.637 35.566 14.527C35.434 14.4097 35.3204 14.2923 35.225 14.175C35.005 13.9037 34.8547 13.592 34.774 13.24H36.039C36.0977 13.394 36.1894 13.5333 36.314 13.658C36.4167 13.7607 36.556 13.856 36.732 13.944C36.908 14.0247 37.1354 14.065 37.414 14.065C37.634 14.065 37.8174 14.0467 37.964 14.01C38.1107 13.9733 38.228 13.9257 38.316 13.867C38.4114 13.801 38.4774 13.7277 38.514 13.647C38.5507 13.5663 38.569 13.4857 38.569 13.405C38.569 13.2437 38.481 13.119 38.305 13.031C38.1364 12.943 37.92 12.8697 37.656 12.811C37.392 12.7523 37.1097 12.69 36.809 12.624C36.5084 12.558 36.226 12.4627 35.962 12.338C35.698 12.206 35.478 12.03 35.302 11.81C35.1334 11.59 35.049 11.2967 35.049 10.93C35.049 10.7247 35.0967 10.523 35.192 10.325C35.2947 10.127 35.4414 9.951 35.632 9.797C35.8227 9.643 36.0537 9.51833 36.325 9.423C36.5964 9.32767 36.9044 9.28 37.249 9.28C37.799 9.28 38.2354 9.37167 38.558 9.555C38.888 9.73833 39.1374 9.94 39.306 10.16C39.504 10.4167 39.6434 10.71 39.724 11.04H38.514C38.4627 10.908 38.382 10.7907 38.272 10.688C38.1767 10.6 38.0447 10.5193 37.876 10.446C37.7147 10.3653 37.5057 10.325 37.249 10.325C36.897 10.325 36.644 10.3873 36.49 10.512C36.336 10.6367 36.259 10.7797 36.259 10.941C36.259 11.1023 36.3434 11.227 36.512 11.315C36.688 11.3957 36.908 11.4653 37.172 11.524C37.436 11.5827 37.7184 11.645 38.019 11.711C38.3197 11.777 38.602 11.876 38.866 12.008C39.13 12.1327 39.3464 12.305 39.515 12.525C39.691 12.745 39.779 13.0383 39.779 13.405C39.779 13.625 39.7277 13.8377 39.625 14.043C39.5224 14.2483 39.372 14.4317 39.174 14.593C38.976 14.747 38.7267 14.8717 38.426 14.967C38.1327 15.0623 37.7954 15.11 37.414 15.11ZM43.2964 15.11C42.9004 15.11 42.5264 15.0367 42.1744 14.89C41.8298 14.736 41.5254 14.5307 41.2614 14.274C41.0048 14.01 40.8031 13.702 40.6564 13.35C40.5098 12.9907 40.4364 12.6057 40.4364 12.195C40.4364 11.7843 40.5098 11.403 40.6564 11.051C40.8031 10.6917 41.0048 10.3837 41.2614 10.127C41.5254 9.863 41.8298 9.65767 42.1744 9.511C42.5264 9.357 42.9004 9.28 43.2964 9.28C43.6924 9.28 44.0628 9.357 44.4074 9.511C44.7594 9.65767 45.0638 9.863 45.3204 10.127C45.5844 10.3837 45.7898 10.6917 45.9364 11.051C46.0831 11.403 46.1564 11.7843 46.1564 12.195V12.58H41.5914C41.6354 12.8147 41.7088 13.0237 41.8114 13.207C41.9141 13.3903 42.0424 13.548 42.1964 13.68C42.3504 13.8047 42.5191 13.9 42.7024 13.966C42.8931 14.032 43.0911 14.065 43.2964 14.065C43.5824 14.065 43.8281 14.0283 44.0334 13.955C44.2388 13.8743 44.4038 13.7827 44.5284 13.68C44.6751 13.57 44.7961 13.4417 44.8914 13.295H46.1014C45.9621 13.6397 45.7678 13.944 45.5184 14.208C45.4084 14.318 45.2838 14.428 45.1444 14.538C45.0051 14.648 44.8438 14.747 44.6604 14.835C44.4771 14.9157 44.2718 14.9817 44.0444 15.033C43.8171 15.0843 43.5678 15.11 43.2964 15.11ZM44.9464 11.645C44.9171 11.4837 44.8621 11.3223 44.7814 11.161C44.7008 10.9997 44.5908 10.8603 44.4514 10.743C44.3121 10.6183 44.1471 10.5193 43.9564 10.446C43.7658 10.3653 43.5458 10.325 43.2964 10.325C43.1058 10.325 42.9188 10.3543 42.7354 10.413C42.5594 10.4717 42.3944 10.5597 42.2404 10.677C42.0938 10.787 41.9691 10.9263 41.8664 11.095C41.7638 11.2563 41.6904 11.4397 41.6464 11.645H44.9464ZM47.1473 9.39H48.3023V10.16H48.3573C48.46 9.99867 48.5956 9.852 48.7643 9.72C48.911 9.61 49.0906 9.511 49.3033 9.423C49.5233 9.32767 49.7946 9.28 50.1173 9.28C50.8066 9.28 51.3456 9.48167 51.7343 9.885C52.123 10.281 52.3173 10.8677 52.3173 11.645V15H51.1623V11.755C51.1623 11.2563 51.0523 10.8933 50.8323 10.666C50.6123 10.4387 50.2823 10.325 49.8423 10.325C49.6223 10.325 49.417 10.3653 49.2263 10.446C49.043 10.5267 48.8816 10.6403 48.7423 10.787C48.603 10.9263 48.493 11.0987 48.4123 11.304C48.339 11.502 48.3023 11.7257 48.3023 11.975V15H47.1473V9.39ZM53.8019 10.435H53.1419V9.39H53.8019V8.18H54.9569V9.39H56.6619V10.435H54.9569V13.955H56.7169V15H53.8019V10.435ZM60.0169 15.11C59.6429 15.11 59.2945 15.0403 58.9719 14.901C58.6565 14.7617 58.3779 14.5673 58.1359 14.318C57.9012 14.0613 57.7142 13.7533 57.5749 13.394C57.4429 13.0347 57.3769 12.635 57.3769 12.195C57.3769 11.755 57.4429 11.3553 57.5749 10.996C57.7142 10.6367 57.9012 10.3323 58.1359 10.083C58.3779 9.82633 58.6565 9.62833 58.9719 9.489C59.2945 9.34967 59.6429 9.28 60.0169 9.28C60.3029 9.28 60.5559 9.324 60.7759 9.412C60.9959 9.5 61.1792 9.59533 61.3259 9.698C61.5019 9.82267 61.6522 9.95833 61.7769 10.105H61.8319V9.39H62.9869V15H61.8319V14.23H61.7769C61.6522 14.3913 61.5019 14.538 61.3259 14.67C61.1792 14.78 60.9959 14.8827 60.7759 14.978C60.5559 15.066 60.3029 15.11 60.0169 15.11ZM60.2369 14.065C60.7062 14.065 61.0875 13.9073 61.3809 13.592C61.6815 13.2693 61.8319 12.8037 61.8319 12.195C61.8319 11.5863 61.6815 11.1243 61.3809 10.809C61.0875 10.4863 60.7062 10.325 60.2369 10.325C59.7382 10.325 59.3385 10.4863 59.0379 10.809C58.7372 11.1243 58.5869 11.5863 58.5869 12.195C58.5869 12.8037 58.7372 13.2693 59.0379 13.592C59.3385 13.9073 59.7382 14.065 60.2369 14.065ZM64.3026 9.39H65.4576V15H64.3026V9.39ZM64.8746 8.565C64.6839 8.565 64.5226 8.499 64.3906 8.367C64.2586 8.235 64.1926 8.07367 64.1926 7.883C64.1926 7.69233 64.2586 7.531 64.3906 7.399C64.5226 7.25967 64.6839 7.19 64.8746 7.19C65.0652 7.19 65.2266 7.25967 65.3586 7.399C65.4979 7.531 65.5676 7.69233 65.5676 7.883C65.5676 8.07367 65.4979 8.235 65.3586 8.367C65.2266 8.499 65.0652 8.565 64.8746 8.565ZM69.9663 7.3H72.0563L74.1463 12.085H74.4213L76.5113 7.3H78.5463V15H77.2813V9.61L77.3913 8.565H77.2813L75.2463 13.24H73.2663L71.2313 8.565H71.1213L71.2313 9.61V15H69.9663V7.3ZM82.2854 15.11C81.9114 15.11 81.5631 15.0403 81.2404 14.901C80.9251 14.7617 80.6464 14.5673 80.4044 14.318C80.1698 14.0613 79.9828 13.7533 79.8434 13.394C79.7114 13.0347 79.6454 12.635 79.6454 12.195C79.6454 11.755 79.7114 11.3553 79.8434 10.996C79.9828 10.6367 80.1698 10.3323 80.4044 10.083C80.6464 9.82633 80.9251 9.62833 81.2404 9.489C81.5631 9.34967 81.9114 9.28 82.2854 9.28C82.5714 9.28 82.8244 9.324 83.0444 9.412C83.2644 9.5 83.4478 9.59533 83.5944 9.698C83.7704 9.82267 83.9208 9.95833 84.0454 10.105H84.1004V9.39H85.2554V15H84.1004V14.23H84.0454C83.9208 14.3913 83.7704 14.538 83.5944 14.67C83.4478 14.78 83.2644 14.8827 83.0444 14.978C82.8244 15.066 82.5714 15.11 82.2854 15.11ZM82.5054 14.065C82.9748 14.065 83.3561 13.9073 83.6494 13.592C83.9501 13.2693 84.1004 12.8037 84.1004 12.195C84.1004 11.5863 83.9501 11.1243 83.6494 10.809C83.3561 10.4863 82.9748 10.325 82.5054 10.325C82.0068 10.325 81.6071 10.4863 81.3064 10.809C81.0058 11.1243 80.8554 11.5863 80.8554 12.195C80.8554 12.8037 81.0058 13.2693 81.3064 13.592C81.6071 13.9073 82.0068 14.065 82.5054 14.065ZM86.5711 7.3H87.7261V13.955H88.9911V15H86.5711V7.3ZM89.7616 7.3H90.9166V13.955H92.1816V15H89.7616V7.3Z" fill="#784839"/>
</svg>
