<svg width="107" height="24" viewBox="0 0 107 24" fill="none" xmlns="http://www.w3.org/2000/svg">
<rect width="24" height="24" rx="12" fill="#784839"/>
<g clip-path="url(#clip0_84_12869)">
<path fill-rule="evenodd" clip-rule="evenodd" d="M13.5612 10.9213C13.5848 10.8765 13.6224 10.8225 13.6674 10.7579C13.8453 10.5024 14.1389 10.0809 14.1389 9.40503C14.1389 7.88355 12.8867 7.45133 12.5318 7.32881C12.4842 7.31237 12.4527 7.3015 12.4426 7.29433L12.4167 7.02109C12.2905 5.6978 11.1919 4.69995 9.86152 4.69995C8.54533 4.69995 7.4501 5.69828 7.31391 7.02201L7.28593 7.2935C7.27577 7.30066 7.24358 7.31148 7.19475 7.32788C6.83269 7.44952 5.55566 7.87856 5.55566 9.40503C5.55566 10.0804 5.84966 10.5028 6.02751 10.7584L6.02751 10.7584C6.07239 10.8229 6.10987 10.8767 6.13336 10.9213C6.12332 10.9318 6.09429 10.9514 6.05106 10.9805L6.05106 10.9805C5.74092 11.1891 4.7002 11.8893 4.7002 13.2832C4.7002 14.6984 5.87991 15.821 7.29512 15.821H12.4279C13.8431 15.821 14.9943 14.6698 14.9943 13.2546C14.9943 11.8707 13.9919 11.2102 13.6605 10.9919C13.6094 10.9582 13.5742 10.935 13.5612 10.9213ZM17.867 10.9213C17.8906 10.8765 17.9282 10.8225 17.9732 10.7579C18.1512 10.5024 18.4447 10.0809 18.4447 9.40503C18.4447 7.88479 17.1725 7.45204 16.8111 7.32911C16.7623 7.3125 16.7301 7.30155 16.7199 7.29433L16.694 7.02109C16.5679 5.6978 15.4693 4.69995 14.1389 4.69995C13.5613 4.69995 13.0326 4.90044 12.6025 5.22815C12.9166 5.65155 13.1444 6.14555 13.2362 6.69493C14.7571 7.41715 14.9943 8.67737 14.9943 9.40503C14.9943 9.9539 14.8519 10.3887 14.6923 10.7137C15.4693 11.4155 15.8498 12.2618 15.8498 13.2546C15.8498 14.2815 15.3858 15.1933 14.6672 15.821H16.7053C18.1205 15.821 19.3002 14.6698 19.3002 13.2546C19.3002 11.8707 18.2978 11.2102 17.9664 10.9919L17.9664 10.9919C17.9152 10.9582 17.8801 10.935 17.867 10.9213ZM15.8498 16.6765V18.4445H17.5607V19.2999H7.29512V18.4445H9.00605V16.6765H10.717V18.4445H14.1389V16.6765H15.8498Z" fill="#E0DCD5"/>
</g>
<path d="M28.77 1.3H34.435V2.51H30.035V4.16H32.125C32.5797 4.16 32.983 4.22233 33.335 4.347C33.6943 4.47167 33.995 4.644 34.237 4.864C34.479 5.07667 34.6623 5.32967 34.787 5.623C34.919 5.91633 34.985 6.23533 34.985 6.58C34.985 6.92467 34.919 7.24367 34.787 7.537C34.6623 7.83033 34.479 8.087 34.237 8.307C33.995 8.51967 33.6943 8.68833 33.335 8.813C32.983 8.93767 32.5797 9 32.125 9H28.77V1.3ZM32.125 7.79C32.653 7.79 33.0417 7.68 33.291 7.46C33.5403 7.23267 33.665 6.93933 33.665 6.58C33.665 6.22067 33.5403 5.931 33.291 5.711C33.0417 5.48367 32.653 5.37 32.125 5.37H30.035V7.79H32.125ZM38.7216 9.11C38.3109 9.11 37.9259 9.03667 37.5666 8.89C37.2146 8.736 36.9066 8.53067 36.6426 8.274C36.3859 8.01 36.1806 7.702 36.0266 7.35C35.8799 6.99067 35.8066 6.60567 35.8066 6.195C35.8066 5.78433 35.8799 5.403 36.0266 5.051C36.1806 4.69167 36.3859 4.38367 36.6426 4.127C36.9066 3.863 37.2146 3.65767 37.5666 3.511C37.9259 3.357 38.3109 3.28 38.7216 3.28C39.1322 3.28 39.5136 3.357 39.8656 3.511C40.2249 3.65767 40.5329 3.863 40.7896 4.127C41.0536 4.38367 41.2589 4.69167 41.4056 5.051C41.5596 5.403 41.6366 5.78433 41.6366 6.195C41.6366 6.60567 41.5596 6.99067 41.4056 7.35C41.2589 7.702 41.0536 8.01 40.7896 8.274C40.5329 8.53067 40.2249 8.736 39.8656 8.89C39.5136 9.03667 39.1322 9.11 38.7216 9.11ZM38.7216 8.065C38.9709 8.065 39.1982 8.021 39.4036 7.933C39.6162 7.845 39.7959 7.72033 39.9426 7.559C40.0966 7.39767 40.2139 7.20333 40.2946 6.976C40.3826 6.74133 40.4266 6.481 40.4266 6.195C40.4266 5.909 40.3826 5.65233 40.2946 5.425C40.2139 5.19033 40.0966 4.99233 39.9426 4.831C39.7959 4.66967 39.6162 4.545 39.4036 4.457C39.1982 4.369 38.9709 4.325 38.7216 4.325C38.4722 4.325 38.2412 4.369 38.0286 4.457C37.8232 4.545 37.6436 4.66967 37.4896 4.831C37.3429 4.99233 37.2256 5.19033 37.1376 5.425C37.0569 5.65233 37.0166 5.909 37.0166 6.195C37.0166 6.481 37.0569 6.74133 37.1376 6.976C37.2256 7.20333 37.3429 7.39767 37.4896 7.559C37.6436 7.72033 37.8232 7.845 38.0286 7.933C38.2412 8.021 38.4722 8.065 38.7216 8.065ZM43.8898 4.435H42.0198V3.39H46.9148V4.435H45.0448V9H43.8898V4.435ZM49.9407 9.11C49.5667 9.11 49.2184 9.04033 48.8957 8.901C48.5804 8.76167 48.3017 8.56733 48.0597 8.318C47.825 8.06133 47.638 7.75333 47.4987 7.394C47.3667 7.03467 47.3007 6.635 47.3007 6.195C47.3007 5.755 47.3667 5.35533 47.4987 4.996C47.638 4.63667 47.825 4.33233 48.0597 4.083C48.3017 3.82633 48.5804 3.62833 48.8957 3.489C49.2184 3.34967 49.5667 3.28 49.9407 3.28C50.2267 3.28 50.4797 3.324 50.6997 3.412C50.9197 3.5 51.103 3.59533 51.2497 3.698C51.4257 3.82267 51.576 3.95833 51.7007 4.105H51.7557V3.39H52.9107V9H51.7557V8.23H51.7007C51.576 8.39133 51.4257 8.538 51.2497 8.67C51.103 8.78 50.9197 8.88267 50.6997 8.978C50.4797 9.066 50.2267 9.11 49.9407 9.11ZM50.1607 8.065C50.63 8.065 51.0114 7.90733 51.3047 7.592C51.6054 7.26933 51.7557 6.80367 51.7557 6.195C51.7557 5.58633 51.6054 5.12433 51.3047 4.809C51.0114 4.48633 50.63 4.325 50.1607 4.325C49.662 4.325 49.2624 4.48633 48.9617 4.809C48.661 5.12433 48.5107 5.58633 48.5107 6.195C48.5107 6.80367 48.661 7.26933 48.9617 7.592C49.2624 7.90733 49.662 8.065 50.1607 8.065ZM54.2264 3.39H55.3814V5.645H58.1314V3.39H59.2864V9H58.1314V6.69H55.3814V9H54.2264V3.39ZM60.6073 3.39H61.7623V7.13L61.7513 7.24H61.8613L64.4023 3.39H65.6673V9H64.5123V5.26L64.5233 5.15H64.4133L61.8723 9H60.6073V3.39ZM70.4531 7.075C70.3431 7.14833 70.2185 7.21433 70.0791 7.273C69.9545 7.32433 69.8005 7.36833 69.6171 7.405C69.4338 7.44167 69.2175 7.46 68.9681 7.46C68.2788 7.46 67.7471 7.284 67.3731 6.932C67.0065 6.57267 66.8231 6.08867 66.8231 5.48V3.39H67.9781V5.37C67.9781 5.7 68.0698 5.95667 68.2531 6.14C68.4438 6.32333 68.7188 6.415 69.0781 6.415C69.3275 6.415 69.5365 6.40033 69.7051 6.371C69.8811 6.33433 70.0241 6.294 70.1341 6.25C70.2661 6.206 70.3725 6.151 70.4531 6.085V3.39H71.6081V9H70.4531V7.075ZM75.4586 9.11C75.0626 9.11 74.6886 9.03667 74.3366 8.89C73.9919 8.736 73.6876 8.53067 73.4236 8.274C73.1669 8.01 72.9652 7.702 72.8186 7.35C72.6719 6.99067 72.5986 6.60567 72.5986 6.195C72.5986 5.78433 72.6719 5.403 72.8186 5.051C72.9652 4.69167 73.1669 4.38367 73.4236 4.127C73.6876 3.863 73.9919 3.65767 74.3366 3.511C74.6886 3.357 75.0626 3.28 75.4586 3.28C75.8546 3.28 76.2249 3.357 76.5696 3.511C76.9216 3.65767 77.2259 3.863 77.4826 4.127C77.7466 4.38367 77.9519 4.69167 78.0986 5.051C78.2452 5.403 78.3186 5.78433 78.3186 6.195V6.58H73.7536C73.7976 6.81467 73.8709 7.02367 73.9736 7.207C74.0762 7.39033 74.2046 7.548 74.3586 7.68C74.5126 7.80467 74.6812 7.9 74.8646 7.966C75.0552 8.032 75.2532 8.065 75.4586 8.065C75.7446 8.065 75.9902 8.02833 76.1956 7.955C76.4009 7.87433 76.5659 7.78267 76.6906 7.68C76.8372 7.57 76.9582 7.44167 77.0536 7.295H78.2636C78.1242 7.63967 77.9299 7.944 77.6806 8.208C77.5706 8.318 77.4459 8.428 77.3066 8.538C77.1672 8.648 77.0059 8.747 76.8226 8.835C76.6392 8.91567 76.4339 8.98167 76.2066 9.033C75.9792 9.08433 75.7299 9.11 75.4586 9.11ZM77.1086 5.645C77.0792 5.48367 77.0242 5.32233 76.9436 5.161C76.8629 4.99967 76.7529 4.86033 76.6136 4.743C76.4742 4.61833 76.3092 4.51933 76.1186 4.446C75.9279 4.36533 75.7079 4.325 75.4586 4.325C75.2679 4.325 75.0809 4.35433 74.8976 4.413C74.7216 4.47167 74.5566 4.55967 74.4026 4.677C74.2559 4.787 74.1312 4.92633 74.0286 5.095C73.9259 5.25633 73.8526 5.43967 73.8086 5.645H77.1086ZM81.7844 9.11C81.3884 9.11 81.0181 9.04033 80.6734 8.901C80.3287 8.75433 80.0317 8.55267 79.7824 8.296C79.5331 8.032 79.3351 7.724 79.1884 7.372C79.0491 7.01267 78.9794 6.62033 78.9794 6.195C78.9794 5.76967 79.0491 5.381 79.1884 5.029C79.3351 4.66967 79.5331 4.36167 79.7824 4.105C80.0317 3.841 80.3287 3.63933 80.6734 3.5C81.0181 3.35333 81.3884 3.28 81.7844 3.28C82.0631 3.28 82.3161 3.30933 82.5434 3.368C82.7707 3.42667 82.9724 3.50367 83.1484 3.599C83.3317 3.69433 83.4894 3.80433 83.6214 3.929C83.7534 4.05367 83.8707 4.17833 83.9734 4.303C84.2081 4.59633 84.3767 4.93367 84.4794 5.315H83.2694C83.2107 5.13167 83.1154 4.96667 82.9834 4.82C82.8734 4.69533 82.7231 4.58167 82.5324 4.479C82.3417 4.37633 82.0924 4.325 81.7844 4.325C81.5644 4.325 81.3554 4.369 81.1574 4.457C80.9667 4.545 80.7981 4.66967 80.6514 4.831C80.5121 4.99233 80.3984 5.19033 80.3104 5.425C80.2297 5.65233 80.1894 5.909 80.1894 6.195C80.1894 6.481 80.2297 6.74133 80.3104 6.976C80.3984 7.20333 80.5121 7.39767 80.6514 7.559C80.7981 7.72033 80.9667 7.845 81.1574 7.933C81.3554 8.021 81.5644 8.065 81.7844 8.065C82.0997 8.065 82.3564 8.01367 82.5544 7.911C82.7524 7.80833 82.9101 7.69467 83.0274 7.57C83.1594 7.43067 83.2584 7.26567 83.3244 7.075H84.4794C84.3767 7.46367 84.2081 7.80467 83.9734 8.098C83.8707 8.22267 83.7534 8.34733 83.6214 8.472C83.4894 8.58933 83.3317 8.69567 83.1484 8.791C82.9724 8.88633 82.7707 8.96333 82.5434 9.022C82.3161 9.08067 82.0631 9.11 81.7844 9.11ZM85.411 3.39H86.566V5.59H87.391L89.096 3.39H90.416L88.381 5.975L90.581 9H89.151L87.446 6.635H86.566V9H85.411V3.39ZM91.244 3.39H92.399V7.13L92.388 7.24H92.498L95.039 3.39H96.304V9H95.149V5.26L95.16 5.15H95.05L92.509 9H91.244V3.39ZM97.6248 3.39H98.7798V7.13L98.7688 7.24H98.8788L101.42 3.39H102.685V9H101.53V5.26L101.541 5.15H101.431L98.8898 9H97.6248V3.39ZM100.155 2.18C99.5755 2.18 99.1465 2.048 98.8678 1.784C98.5892 1.51267 98.4498 1.168 98.4498 0.749999H99.3848C99.3848 0.940666 99.4435 1.091 99.5608 1.201C99.6782 1.30367 99.8762 1.355 100.155 1.355C100.434 1.355 100.632 1.30367 100.749 1.201C100.866 1.091 100.925 0.940666 100.925 0.749999H101.86C101.86 1.168 101.721 1.51267 101.442 1.784C101.163 2.048 100.734 2.18 100.155 2.18ZM31.135 21.11C30.739 21.11 30.3687 21.0403 30.024 20.901C29.6793 20.7543 29.3823 20.5527 29.133 20.296C28.8837 20.032 28.6857 19.724 28.539 19.372C28.3997 19.0127 28.33 18.6203 28.33 18.195C28.33 17.7697 28.3997 17.381 28.539 17.029C28.6857 16.6697 28.8837 16.3617 29.133 16.105C29.3823 15.841 29.6793 15.6393 30.024 15.5C30.3687 15.3533 30.739 15.28 31.135 15.28C31.4137 15.28 31.6667 15.3093 31.894 15.368C32.1213 15.4267 32.323 15.5037 32.499 15.599C32.6823 15.6943 32.84 15.8043 32.972 15.929C33.104 16.0537 33.2213 16.1783 33.324 16.303C33.5587 16.5963 33.7273 16.9337 33.83 17.315H32.62C32.5613 17.1317 32.466 16.9667 32.334 16.82C32.224 16.6953 32.0737 16.5817 31.883 16.479C31.6923 16.3763 31.443 16.325 31.135 16.325C30.915 16.325 30.706 16.369 30.508 16.457C30.3173 16.545 30.1487 16.6697 30.002 16.831C29.8627 16.9923 29.749 17.1903 29.661 17.425C29.5803 17.6523 29.54 17.909 29.54 18.195C29.54 18.481 29.5803 18.7413 29.661 18.976C29.749 19.2033 29.8627 19.3977 30.002 19.559C30.1487 19.7203 30.3173 19.845 30.508 19.933C30.706 20.021 30.915 20.065 31.135 20.065C31.4503 20.065 31.707 20.0137 31.905 19.911C32.103 19.8083 32.2607 19.6947 32.378 19.57C32.51 19.4307 32.609 19.2657 32.675 19.075H33.83C33.7273 19.4637 33.5587 19.8047 33.324 20.098C33.2213 20.2227 33.104 20.3473 32.972 20.472C32.84 20.5893 32.6823 20.6957 32.499 20.791C32.323 20.8863 32.1213 20.9633 31.894 21.022C31.6667 21.0807 31.4137 21.11 31.135 21.11ZM37.0716 21.11C36.6976 21.11 36.3492 21.0403 36.0266 20.901C35.7112 20.7617 35.4326 20.5673 35.1906 20.318C34.9559 20.0613 34.7689 19.7533 34.6296 19.394C34.4976 19.0347 34.4316 18.635 34.4316 18.195C34.4316 17.755 34.4976 17.3553 34.6296 16.996C34.7689 16.6367 34.9559 16.3323 35.1906 16.083C35.4326 15.8263 35.7112 15.6283 36.0266 15.489C36.3492 15.3497 36.6976 15.28 37.0716 15.28C37.3576 15.28 37.6106 15.324 37.8306 15.412C38.0506 15.5 38.2339 15.5953 38.3806 15.698C38.5566 15.8227 38.7069 15.9583 38.8316 16.105H38.8866V15.39H40.0416V21H38.8866V20.23H38.8316C38.7069 20.3913 38.5566 20.538 38.3806 20.67C38.2339 20.78 38.0506 20.8827 37.8306 20.978C37.6106 21.066 37.3576 21.11 37.0716 21.11ZM37.2916 20.065C37.7609 20.065 38.1422 19.9073 38.4356 19.592C38.7362 19.2693 38.8866 18.8037 38.8866 18.195C38.8866 17.5863 38.7362 17.1243 38.4356 16.809C38.1422 16.4863 37.7609 16.325 37.2916 16.325C36.7929 16.325 36.3932 16.4863 36.0926 16.809C35.7919 17.1243 35.6416 17.5863 35.6416 18.195C35.6416 18.8037 35.7919 19.2693 36.0926 19.592C36.3932 19.9073 36.7929 20.065 37.2916 20.065ZM40.7523 19.955H41.3023L42.5673 15.39H45.0423L46.3073 19.955H46.8573V22.21H45.8123V21H41.7973V22.21H40.7523V19.955ZM45.0973 19.955L44.1623 16.435H43.4473L42.5123 19.955H45.0973Z" fill="#784839"/>
<defs>
<clipPath id="clip0_84_12869">
<rect width="16" height="16" fill="white" transform="translate(4 4)"/>
</clipPath>
</defs>
</svg>
