<svg width="95" height="92" viewBox="0 0 95 92" fill="none" xmlns="http://www.w3.org/2000/svg">
<mask id="path-1-inside-1_109_459" fill="white">
<path fill-rule="evenodd" clip-rule="evenodd" d="M47.5 0C29.8269 0 15.5 14.3269 15.5 32C15.5 47.6749 26.7703 60.7175 41.6496 63.4664L47.2803 72L52.853 63.5542C67.9778 61.0071 79.5 47.8491 79.5 32C79.5 14.3269 65.1731 0 47.5 0Z"/>
</mask>
<path fill-rule="evenodd" clip-rule="evenodd" d="M47.5 0C29.8269 0 15.5 14.3269 15.5 32C15.5 47.6749 26.7703 60.7175 41.6496 63.4664L47.2803 72L52.853 63.5542C67.9778 61.0071 79.5 47.8491 79.5 32C79.5 14.3269 65.1731 0 47.5 0Z" fill="#522010"/>
<path d="M41.6496 63.4664L42.4842 62.9157L42.2498 62.5604L41.8312 62.4831L41.6496 63.4664ZM47.2803 72L46.4456 72.5507L47.2803 73.8157L48.1149 72.5507L47.2803 72ZM52.853 63.5542L52.687 62.5681L52.2579 62.6404L52.0184 63.0035L52.853 63.5542ZM16.5 32C16.5 14.8792 30.3792 1 47.5 1V-1C29.2746 -1 14.5 13.7746 14.5 32H16.5ZM41.8312 62.4831C27.4176 59.8201 16.5 47.184 16.5 32H14.5C14.5 48.1658 26.123 61.6148 41.4679 64.4498L41.8312 62.4831ZM48.1149 71.4493L42.4842 62.9157L40.8149 64.0172L46.4456 72.5507L48.1149 71.4493ZM52.0184 63.0035L46.4456 71.4493L48.1149 72.5507L53.6877 64.105L52.0184 63.0035ZM78.5 32C78.5 47.3528 67.3383 60.1007 52.687 62.5681L53.0191 64.5404C68.6173 61.9134 80.5 48.3454 80.5 32H78.5ZM47.5 1C64.6208 1 78.5 14.8792 78.5 32H80.5C80.5 13.7746 65.7254 -1 47.5 -1V1Z" fill="#522010" mask="url(#path-1-inside-1_109_459)"/>
<path d="M50.5441 18H50.5188H43.4199V18.025L46.9567 24.075L57.3145 41.75H64.4134L50.5441 18Z" fill="#E0DCD5"/>
<path d="M46.5021 24.9004L56.3293 41.7504H49.2305L42.94 31.0004L39.3779 24.9254L46.5021 24.9004Z" fill="#E0DCD5"/>
<path d="M42.4599 31.8252L48.2451 41.7502H41.1462L38.8978 37.9003L36.6494 41.7502H29.5L35.3357 31.8252H42.4599Z" fill="#E0DCD5"/>
<path d="M6.02992 88.28C5.27392 88.28 4.57392 88.1493 3.92992 87.888C3.29525 87.6173 2.74459 87.2533 2.27792 86.796C1.81125 86.3293 1.44259 85.7833 1.17192 85.158C0.910588 84.5233 0.779921 83.8373 0.779921 83.1C0.779921 82.3627 0.910588 81.6813 1.17192 81.056C1.44259 80.4213 1.81125 79.8753 2.27792 79.418C2.74459 78.9513 3.29525 78.5873 3.92992 78.326C4.57392 78.0553 5.27392 77.92 6.02992 77.92C6.78592 77.92 7.48125 78.0553 8.11592 78.326C8.75992 78.5873 9.31525 78.9513 9.78192 79.418C10.2486 79.8753 10.6126 80.4213 10.8739 81.056C11.1446 81.6813 11.2799 82.3627 11.2799 83.1C11.2799 83.8373 11.1446 84.5233 10.8739 85.158C10.6126 85.7833 10.2486 86.3293 9.78192 86.796C9.31525 87.2533 8.75992 87.6173 8.11592 87.888C7.48125 88.1493 6.78592 88.28 6.02992 88.28ZM6.02992 86.74C6.55259 86.74 7.03325 86.6513 7.47192 86.474C7.91059 86.2967 8.28392 86.0493 8.59192 85.732C8.90925 85.4147 9.15659 85.032 9.33392 84.584C9.51125 84.136 9.59992 83.6413 9.59992 83.1C9.59992 82.5587 9.51125 82.064 9.33392 81.616C9.15659 81.168 8.90925 80.7853 8.59192 80.468C8.28392 80.1507 7.91059 79.9033 7.47192 79.726C7.03325 79.5487 6.55259 79.46 6.02992 79.46C5.50725 79.46 5.02659 79.5487 4.58792 79.726C4.14925 79.9033 3.77125 80.1507 3.45392 80.468C3.13659 80.7853 2.88925 81.168 2.71192 81.616C2.54392 82.064 2.45992 82.5587 2.45992 83.1C2.45992 83.6413 2.54392 84.136 2.71192 84.584C2.88925 85.032 3.13659 85.4147 3.45392 85.732C3.77125 86.0493 4.14925 86.2967 4.58792 86.474C5.02659 86.6513 5.50725 86.74 6.02992 86.74ZM15.971 88.07C15.4763 88.0327 15.0143 87.9113 14.585 87.706C14.1557 87.5007 13.7777 87.2347 13.451 86.908C13.1243 86.5813 12.8677 86.208 12.681 85.788C12.4943 85.3587 12.401 84.906 12.401 84.43C12.401 83.954 12.4943 83.506 12.681 83.086C12.8677 82.6567 13.1243 82.2787 13.451 81.952C13.7777 81.6253 14.1557 81.3593 14.585 81.154C15.0143 80.9487 15.4763 80.8273 15.971 80.79V78.2H17.441V80.79C17.9263 80.8273 18.3837 80.9487 18.813 81.154C19.2517 81.3593 19.6343 81.6253 19.961 81.952C20.2877 82.2787 20.5443 82.6567 20.731 83.086C20.9177 83.506 21.011 83.954 21.011 84.43C21.011 84.906 20.9177 85.3587 20.731 85.788C20.5443 86.208 20.2877 86.5813 19.961 86.908C19.6343 87.2347 19.2517 87.5007 18.813 87.706C18.3837 87.9113 17.9263 88.0327 17.441 88.07V90.66H15.971V88.07ZM15.971 82.12C15.691 82.1573 15.425 82.2367 15.173 82.358C14.9303 82.4793 14.7157 82.638 14.529 82.834C14.3517 83.03 14.207 83.2633 14.095 83.534C13.9923 83.7953 13.941 84.094 13.941 84.43C13.941 84.766 13.9923 85.0693 14.095 85.34C14.207 85.6013 14.3517 85.83 14.529 86.026C14.7157 86.222 14.9303 86.3807 15.173 86.502C15.425 86.6233 15.691 86.7027 15.971 86.74V82.12ZM17.441 86.74C17.721 86.7027 17.9823 86.6233 18.225 86.502C18.477 86.3807 18.6917 86.222 18.869 86.026C19.0557 85.83 19.2003 85.6013 19.303 85.34C19.415 85.0693 19.471 84.766 19.471 84.43C19.471 84.094 19.415 83.7953 19.303 83.534C19.2003 83.2633 19.0557 83.03 18.869 82.834C18.6917 82.638 18.477 82.4793 18.225 82.358C17.9823 82.2367 17.721 82.1573 17.441 82.12V86.74ZM22.4083 80.86H23.8783V85.62L23.8643 85.76H24.0043L27.2383 80.86H28.8483V88H27.3783V83.24L27.3923 83.1H27.2523L24.0183 88H22.4083V80.86ZM33.8194 88.14C33.3154 88.14 32.844 88.0513 32.4054 87.874C31.9667 87.6873 31.5887 87.4307 31.2714 87.104C30.954 86.768 30.702 86.376 30.5154 85.928C30.338 85.4707 30.2494 84.9713 30.2494 84.43C30.2494 83.8887 30.338 83.394 30.5154 82.946C30.702 82.4887 30.954 82.0967 31.2714 81.77C31.5887 81.434 31.9667 81.1773 32.4054 81C32.844 80.8133 33.3154 80.72 33.8194 80.72C34.174 80.72 34.496 80.7573 34.7854 80.832C35.0747 80.9067 35.3314 81.0047 35.5554 81.126C35.7887 81.2473 35.9894 81.3873 36.1574 81.546C36.3254 81.7047 36.4747 81.8633 36.6054 82.022C36.904 82.3953 37.1187 82.8247 37.2494 83.31H35.7094C35.6347 83.0767 35.5134 82.8667 35.3454 82.68C35.2054 82.5213 35.014 82.3767 34.7714 82.246C34.5287 82.1153 34.2114 82.05 33.8194 82.05C33.5394 82.05 33.2734 82.106 33.0214 82.218C32.7787 82.33 32.564 82.4887 32.3774 82.694C32.2 82.8993 32.0554 83.1513 31.9434 83.45C31.8407 83.7393 31.7894 84.066 31.7894 84.43C31.7894 84.794 31.8407 85.1253 31.9434 85.424C32.0554 85.7133 32.2 85.9607 32.3774 86.166C32.564 86.3713 32.7787 86.53 33.0214 86.642C33.2734 86.754 33.5394 86.81 33.8194 86.81C34.2207 86.81 34.5474 86.7447 34.7994 86.614C35.0514 86.4833 35.252 86.3387 35.4014 86.18C35.5694 86.0027 35.6954 85.7927 35.7794 85.55H37.2494C37.1187 86.0447 36.904 86.4787 36.6054 86.852C36.4747 87.0107 36.3254 87.1693 36.1574 87.328C35.9894 87.4773 35.7887 87.6127 35.5554 87.734C35.3314 87.8553 35.0747 87.9533 34.7854 88.028C34.496 88.1027 34.174 88.14 33.8194 88.14ZM42.6388 80.86H49.0088V88H47.5388V82.19H44.1088V88H42.6388V80.86ZM50.8316 80.86H52.3016V81.77H52.3716C52.5302 81.5833 52.7216 81.4107 52.9456 81.252C53.1322 81.1213 53.3609 81 53.6316 80.888C53.9116 80.776 54.2382 80.72 54.6116 80.72C55.0876 80.72 55.5262 80.8087 55.9276 80.986C56.3382 81.1633 56.6929 81.4153 56.9916 81.742C57.2996 82.0593 57.5376 82.4467 57.7056 82.904C57.8829 83.3613 57.9716 83.87 57.9716 84.43C57.9716 84.99 57.8829 85.4987 57.7056 85.956C57.5376 86.4133 57.2996 86.8053 56.9916 87.132C56.6929 87.4493 56.3382 87.6967 55.9276 87.874C55.5262 88.0513 55.0876 88.14 54.6116 88.14C54.2382 88.14 53.9116 88.0887 53.6316 87.986C53.3609 87.874 53.1322 87.7527 52.9456 87.622C52.7216 87.4633 52.5302 87.286 52.3716 87.09H52.3016V90.66H50.8316V80.86ZM54.3316 86.81C54.9662 86.81 55.4749 86.6093 55.8576 86.208C56.2402 85.7973 56.4316 85.2047 56.4316 84.43C56.4316 83.6553 56.2402 83.0673 55.8576 82.666C55.4749 82.2553 54.9662 82.05 54.3316 82.05C53.7342 82.05 53.2442 82.2553 52.8616 82.666C52.4882 83.0673 52.3016 83.6553 52.3016 84.43C52.3016 85.2047 52.4882 85.7973 52.8616 86.208C53.2442 86.6093 53.7342 86.81 54.3316 86.81ZM62.6561 88.14C62.1334 88.14 61.6434 88.0467 61.1861 87.86C60.7381 87.664 60.3461 87.4027 60.0101 87.076C59.6834 86.74 59.4221 86.348 59.2261 85.9C59.0394 85.4427 58.9461 84.9527 58.9461 84.43C58.9461 83.9073 59.0394 83.422 59.2261 82.974C59.4221 82.5167 59.6834 82.1247 60.0101 81.798C60.3461 81.462 60.7381 81.2007 61.1861 81.014C61.6434 80.818 62.1334 80.72 62.6561 80.72C63.1788 80.72 63.6641 80.818 64.1121 81.014C64.5694 81.2007 64.9614 81.462 65.2881 81.798C65.6241 82.1247 65.8854 82.5167 66.0721 82.974C66.2681 83.422 66.3661 83.9073 66.3661 84.43C66.3661 84.9527 66.2681 85.4427 66.0721 85.9C65.8854 86.348 65.6241 86.74 65.2881 87.076C64.9614 87.4027 64.5694 87.664 64.1121 87.86C63.6641 88.0467 63.1788 88.14 62.6561 88.14ZM62.6561 86.81C62.9734 86.81 63.2628 86.754 63.5241 86.642C63.7948 86.53 64.0234 86.3713 64.2101 86.166C64.4061 85.9607 64.5554 85.7133 64.6581 85.424C64.7701 85.1253 64.8261 84.794 64.8261 84.43C64.8261 84.066 64.7701 83.7393 64.6581 83.45C64.5554 83.1513 64.4061 82.8993 64.2101 82.694C64.0234 82.4887 63.7948 82.33 63.5241 82.218C63.2628 82.106 62.9734 82.05 62.6561 82.05C62.3388 82.05 62.0448 82.106 61.7741 82.218C61.5128 82.33 61.2841 82.4887 61.0881 82.694C60.9014 82.8993 60.7521 83.1513 60.6401 83.45C60.5374 83.7393 60.4861 84.066 60.4861 84.43C60.4861 84.794 60.5374 85.1253 60.6401 85.424C60.7521 85.7133 60.9014 85.9607 61.0881 86.166C61.2841 86.3713 61.5128 86.53 61.7741 86.642C62.0448 86.754 62.3388 86.81 62.6561 86.81ZM66.9939 86.67H67.6939L69.3039 80.86H72.4539L74.0639 86.67H74.7639V89.54H73.4339V88H68.3239V89.54H66.9939V86.67ZM72.5239 86.67L71.3339 82.19H70.4239L69.2339 86.67H72.5239ZM78.7599 88.14C78.2839 88.14 77.8406 88.0513 77.4299 87.874C77.0286 87.6967 76.6739 87.4493 76.3659 87.132C76.0673 86.8053 75.8293 86.4133 75.6519 85.956C75.4839 85.4987 75.3999 84.99 75.3999 84.43C75.3999 83.87 75.4839 83.3613 75.6519 82.904C75.8293 82.4467 76.0673 82.0593 76.3659 81.742C76.6739 81.4153 77.0286 81.1633 77.4299 80.986C77.8406 80.8087 78.2839 80.72 78.7599 80.72C79.1239 80.72 79.4459 80.776 79.7259 80.888C80.0059 81 80.2393 81.1213 80.4259 81.252C80.6499 81.4107 80.8413 81.5833 80.9999 81.77H81.0699V80.86H82.5399V88H81.0699V87.02H80.9999C80.8413 87.2253 80.6499 87.412 80.4259 87.58C80.2393 87.72 80.0059 87.8507 79.7259 87.972C79.4459 88.084 79.1239 88.14 78.7599 88.14ZM79.0399 86.81C79.6373 86.81 80.1226 86.6093 80.4959 86.208C80.8786 85.7973 81.0699 85.2047 81.0699 84.43C81.0699 83.6553 80.8786 83.0673 80.4959 82.666C80.1226 82.2553 79.6373 82.05 79.0399 82.05C78.4053 82.05 77.8966 82.2553 77.5139 82.666C77.1313 83.0673 76.9399 83.6553 76.9399 84.43C76.9399 85.2047 77.1313 85.7973 77.5139 86.208C77.8966 86.6093 78.4053 86.81 79.0399 86.81ZM86.2445 84.15L83.7945 80.86H85.4745L87.5045 83.66H88.4145V80.86H89.8845V83.66H90.7945L92.8245 80.86H94.5045L92.0545 84.15L94.7145 88H92.9645L90.8645 84.99H89.8845V88H88.4145V84.99H87.4345L85.3345 88H83.5845L86.2445 84.15Z" fill="#522010"/>
</svg>
