<svg width="50" height="40" viewBox="0 0 50 40" fill="none" xmlns="http://www.w3.org/2000/svg">
<rect x="13" width="24" height="24" rx="12" fill="#784839"/>
<path fill-rule="evenodd" clip-rule="evenodd" d="M26.2315 6.24348C26.1192 6.51465 25.9205 6.74118 25.6663 6.88794V8.4011H29.6663V9.73444H28.9997V12.4011C28.9991 12.5626 28.9401 12.7185 28.8337 12.84L26.9997 15.04V15.0678H22.9997V15.04L21.1657 12.8404C21.0592 12.7188 21.0002 12.5627 20.9997 12.4011V9.73444H20.333V8.4011H24.333V6.88794C24.0788 6.74118 23.8802 6.51465 23.7678 6.24348C23.6555 5.97231 23.6358 5.67165 23.7118 5.38814C23.7877 5.10463 23.9551 4.85411 24.188 4.67543C24.4209 4.49675 24.7062 4.3999 24.9997 4.3999C25.2932 4.3999 25.5785 4.49675 25.8114 4.67543C26.0442 4.85411 26.2116 5.10463 26.2876 5.38814C26.3635 5.67165 26.3438 5.97231 26.2315 6.24348ZM28.333 10.4011H26.9997V12.4011H28.333V10.4011ZM21.6663 12.4011H22.9997V10.4011H21.6663V12.4011ZM26.333 12.4011V10.4011H23.6663V12.4011H26.333ZM26.9996 15.7344H22.9996V18.7344H26.9996V15.7344Z" fill="#E0DCD5"/>
<path d="M0.77 29.3H2.035V32.49H3.3L5.61 29.3H7.095L4.4 32.985L7.205 37H5.665L3.355 33.7H2.035V37H0.77V29.3ZM10.1737 37.11C9.76304 37.11 9.37804 37.0367 9.01871 36.89C8.66671 36.736 8.35871 36.5307 8.09471 36.274C7.83804 36.01 7.63271 35.702 7.47871 35.35C7.33204 34.9907 7.25871 34.6057 7.25871 34.195C7.25871 33.7843 7.33204 33.403 7.47871 33.051C7.63271 32.6917 7.83804 32.3837 8.09471 32.127C8.35871 31.863 8.66671 31.6577 9.01871 31.511C9.37804 31.357 9.76304 31.28 10.1737 31.28C10.5844 31.28 10.9657 31.357 11.3177 31.511C11.677 31.6577 11.985 31.863 12.2417 32.127C12.5057 32.3837 12.711 32.6917 12.8577 33.051C13.0117 33.403 13.0887 33.7843 13.0887 34.195C13.0887 34.6057 13.0117 34.9907 12.8577 35.35C12.711 35.702 12.5057 36.01 12.2417 36.274C11.985 36.5307 11.677 36.736 11.3177 36.89C10.9657 37.0367 10.5844 37.11 10.1737 37.11ZM10.1737 36.065C10.423 36.065 10.6504 36.021 10.8557 35.933C11.0684 35.845 11.248 35.7203 11.3947 35.559C11.5487 35.3977 11.666 35.2033 11.7467 34.976C11.8347 34.7413 11.8787 34.481 11.8787 34.195C11.8787 33.909 11.8347 33.6523 11.7467 33.425C11.666 33.1903 11.5487 32.9923 11.3947 32.831C11.248 32.6697 11.0684 32.545 10.8557 32.457C10.6504 32.369 10.423 32.325 10.1737 32.325C9.92438 32.325 9.69338 32.369 9.48071 32.457C9.27538 32.545 9.09571 32.6697 8.94171 32.831C8.79504 32.9923 8.67771 33.1903 8.58971 33.425C8.50904 33.6523 8.46871 33.909 8.46871 34.195C8.46871 34.481 8.50904 34.7413 8.58971 34.976C8.67771 35.2033 8.79504 35.3977 8.94171 35.559C9.09571 35.7203 9.27538 35.845 9.48071 35.933C9.69338 36.021 9.92438 36.065 10.1737 36.065ZM14.077 31.39H15.232V33.59H16.057L17.762 31.39H19.082L17.047 33.975L19.247 37H17.817L16.112 34.635H15.232V37H14.077V31.39ZM19.91 33.425H23.925V34.525H19.91V33.425ZM26.681 30.51H24.151V29.3H30.476V30.51H27.946V37H26.681V30.51ZM33.3876 37.11C32.9769 37.11 32.5919 37.0367 32.2326 36.89C31.8806 36.736 31.5726 36.5307 31.3086 36.274C31.0519 36.01 30.8466 35.702 30.6926 35.35C30.5459 34.9907 30.4726 34.6057 30.4726 34.195C30.4726 33.7843 30.5459 33.403 30.6926 33.051C30.8466 32.6917 31.0519 32.3837 31.3086 32.127C31.5726 31.863 31.8806 31.6577 32.2326 31.511C32.5919 31.357 32.9769 31.28 33.3876 31.28C33.7982 31.28 34.1796 31.357 34.5316 31.511C34.8909 31.6577 35.1989 31.863 35.4556 32.127C35.7196 32.3837 35.9249 32.6917 36.0716 33.051C36.2256 33.403 36.3026 33.7843 36.3026 34.195C36.3026 34.6057 36.2256 34.9907 36.0716 35.35C35.9249 35.702 35.7196 36.01 35.4556 36.274C35.1989 36.5307 34.8909 36.736 34.5316 36.89C34.1796 37.0367 33.7982 37.11 33.3876 37.11ZM33.3876 36.065C33.6369 36.065 33.8642 36.021 34.0696 35.933C34.2822 35.845 34.4619 35.7203 34.6086 35.559C34.7626 35.3977 34.8799 35.2033 34.9606 34.976C35.0486 34.7413 35.0926 34.481 35.0926 34.195C35.0926 33.909 35.0486 33.6523 34.9606 33.425C34.8799 33.1903 34.7626 32.9923 34.6086 32.831C34.4619 32.6697 34.2822 32.545 34.0696 32.457C33.8642 32.369 33.6369 32.325 33.3876 32.325C33.1382 32.325 32.9072 32.369 32.6946 32.457C32.4892 32.545 32.3096 32.6697 32.1556 32.831C32.0089 32.9923 31.8916 33.1903 31.8036 33.425C31.7229 33.6523 31.6826 33.909 31.6826 34.195C31.6826 34.481 31.7229 34.7413 31.8036 34.976C31.8916 35.2033 32.0089 35.3977 32.1556 35.559C32.3096 35.7203 32.4892 35.845 32.6946 35.933C32.9072 36.021 33.1382 36.065 33.3876 36.065ZM39.7659 37.11C39.3699 37.11 39.0032 37.0403 38.6659 36.901C38.3285 36.7543 38.0352 36.5453 37.7859 36.274C37.5439 35.9953 37.3532 35.6543 37.2139 35.251C37.0819 34.8477 37.0159 34.3857 37.0159 33.865C37.0159 33.051 37.0965 32.358 37.2579 31.786C37.4192 31.2067 37.6575 30.7337 37.9729 30.367C38.2955 30.0003 38.6879 29.7327 39.1499 29.564C39.6119 29.388 40.1472 29.3 40.7559 29.3H42.0759V30.345H40.8659C39.9859 30.345 39.3295 30.5503 38.8969 30.961C38.4642 31.3643 38.2222 31.9107 38.1709 32.6H38.2259C38.3285 32.4607 38.4642 32.3323 38.6329 32.215C38.7795 32.1197 38.9592 32.0317 39.1719 31.951C39.3919 31.8703 39.6632 31.83 39.9859 31.83C40.3452 31.83 40.6789 31.896 40.9869 32.028C41.2949 32.16 41.5625 32.3433 41.7899 32.578C42.0172 32.8053 42.1932 33.084 42.3179 33.414C42.4499 33.7367 42.5159 34.0887 42.5159 34.47C42.5159 34.8587 42.4499 35.2143 42.3179 35.537C42.1859 35.8597 41.9989 36.1383 41.7569 36.373C41.5149 36.6003 41.2252 36.78 40.8879 36.912C40.5505 37.044 40.1765 37.11 39.7659 37.11ZM39.7659 36.065C39.9859 36.065 40.1875 36.0283 40.3709 35.955C40.5615 35.8743 40.7265 35.7643 40.8659 35.625C41.0052 35.4783 41.1115 35.3097 41.1849 35.119C41.2655 34.921 41.3059 34.7047 41.3059 34.47C41.3059 34.2353 41.2655 34.0227 41.1849 33.832C41.1115 33.634 41.0052 33.4653 40.8659 33.326C40.7265 33.1793 40.5615 33.0693 40.3709 32.996C40.1875 32.9153 39.9859 32.875 39.7659 32.875C39.5459 32.875 39.3405 32.9153 39.1499 32.996C38.9665 33.0693 38.8052 33.1793 38.6659 33.326C38.5265 33.4653 38.4165 33.634 38.3359 33.832C38.2625 34.0227 38.2259 34.2353 38.2259 34.47C38.2259 34.7047 38.2625 34.921 38.3359 35.119C38.4165 35.3097 38.5265 35.4783 38.6659 35.625C38.8052 35.7643 38.9665 35.8743 39.1499 35.955C39.3405 36.0283 39.5459 36.065 39.7659 36.065ZM45.9761 37.11C45.5801 37.11 45.2061 37.0367 44.8541 36.89C44.5095 36.736 44.2051 36.5307 43.9411 36.274C43.6845 36.01 43.4828 35.702 43.3361 35.35C43.1895 34.9907 43.1161 34.6057 43.1161 34.195C43.1161 33.7843 43.1895 33.403 43.3361 33.051C43.4828 32.6917 43.6845 32.3837 43.9411 32.127C44.2051 31.863 44.5095 31.6577 44.8541 31.511C45.2061 31.357 45.5801 31.28 45.9761 31.28C46.3721 31.28 46.7425 31.357 47.0871 31.511C47.4391 31.6577 47.7435 31.863 48.0001 32.127C48.2641 32.3837 48.4695 32.6917 48.6161 33.051C48.7628 33.403 48.8361 33.7843 48.8361 34.195V34.58H44.2711C44.3151 34.8147 44.3885 35.0237 44.4911 35.207C44.5938 35.3903 44.7221 35.548 44.8761 35.68C45.0301 35.8047 45.1988 35.9 45.3821 35.966C45.5728 36.032 45.7708 36.065 45.9761 36.065C46.2621 36.065 46.5078 36.0283 46.7131 35.955C46.9185 35.8743 47.0835 35.7827 47.2081 35.68C47.3548 35.57 47.4758 35.4417 47.5711 35.295H48.7811C48.6418 35.6397 48.4475 35.944 48.1981 36.208C48.0881 36.318 47.9635 36.428 47.8241 36.538C47.6848 36.648 47.5235 36.747 47.3401 36.835C47.1568 36.9157 46.9515 36.9817 46.7241 37.033C46.4968 37.0843 46.2475 37.11 45.9761 37.11ZM47.6261 33.645C47.5968 33.4837 47.5418 33.3223 47.4611 33.161C47.3805 32.9997 47.2705 32.8603 47.1311 32.743C46.9918 32.6183 46.8268 32.5193 46.6361 32.446C46.4455 32.3653 46.2255 32.325 45.9761 32.325C45.7855 32.325 45.5985 32.3543 45.4151 32.413C45.2391 32.4717 45.0741 32.5597 44.9201 32.677C44.7735 32.787 44.6488 32.9263 44.5461 33.095C44.4435 33.2563 44.3701 33.4397 44.3261 33.645H47.6261Z" fill="#784839"/>
</svg>
