<svg width="58" height="52" viewBox="0 0 58 52" fill="none" xmlns="http://www.w3.org/2000/svg">
<rect x="17" width="24" height="24" rx="12" fill="#784839"/>
<path fill-rule="evenodd" clip-rule="evenodd" d="M35.7083 12.8333H24.3333V7.29168C24.3333 7.13046 24.2029 7 24.0417 7H22.2917C22.1305 7 22 7.13046 22 7.29168V17.2083C22 17.3695 22.1305 17.5 22.2917 17.5H24.0417C24.2029 17.5 24.3333 17.3695 24.3333 17.2083V15.1666H33.6667V17.2083C33.6667 17.3695 33.7971 17.5 33.9583 17.5H35.7083C35.8695 17.5 36 17.3695 36 17.2083V13.125C36 12.9638 35.8695 12.8333 35.7083 12.8333ZM26.6667 12.25C27.6332 12.25 28.4167 11.4665 28.4167 10.5C28.4167 9.5335 27.6332 8.75 26.6667 8.75C25.7002 8.75 24.9167 9.5335 24.9167 10.5C24.9167 11.4665 25.7002 12.25 26.6667 12.25ZM35.7083 12.25H29.2917C29.1304 12.25 29 12.1195 29 11.9583V9.04167C29 8.88045 29.1304 8.75 29.2917 8.75H32.7917C34.5607 8.75 36 10.1892 36 11.9583C36 12.1195 35.8695 12.25 35.7083 12.25Z" fill="#E0DCD5"/>
<path d="M1.22801 29.3H4.58301C5.05234 29.3 5.47034 29.366 5.83701 29.498C6.20367 29.6227 6.51167 29.7987 6.76101 30.026C7.01767 30.246 7.21201 30.5063 7.34401 30.807C7.48334 31.1077 7.55301 31.4303 7.55301 31.775C7.55301 32.0537 7.50901 32.3177 7.42101 32.567C7.33301 32.8163 7.20468 33.0437 7.03601 33.249C6.86734 33.4543 6.65834 33.634 6.40901 33.788C6.16701 33.942 5.88834 34.0593 5.57301 34.14L7.49801 37H6.01301L4.19801 34.25H2.49301V37H1.22801V29.3ZM4.58301 33.04C5.16234 33.04 5.58034 32.9263 5.83701 32.699C6.10101 32.4717 6.23301 32.1637 6.23301 31.775C6.23301 31.3863 6.10101 31.0783 5.83701 30.851C5.58034 30.6237 5.16234 30.51 4.58301 30.51H2.49301V33.04H4.58301ZM11.0829 37.11C10.6722 37.11 10.2872 37.0367 9.92789 36.89C9.57589 36.736 9.26789 36.5307 9.00389 36.274C8.74722 36.01 8.54189 35.702 8.38789 35.35C8.24122 34.9907 8.16789 34.6057 8.16789 34.195C8.16789 33.7843 8.24122 33.403 8.38789 33.051C8.54189 32.6917 8.74722 32.3837 9.00389 32.127C9.26789 31.863 9.57589 31.6577 9.92789 31.511C10.2872 31.357 10.6722 31.28 11.0829 31.28C11.4936 31.28 11.8749 31.357 12.2269 31.511C12.5862 31.6577 12.8942 31.863 13.1509 32.127C13.4149 32.3837 13.6202 32.6917 13.7669 33.051C13.9209 33.403 13.9979 33.7843 13.9979 34.195C13.9979 34.6057 13.9209 34.9907 13.7669 35.35C13.6202 35.702 13.4149 36.01 13.1509 36.274C12.8942 36.5307 12.5862 36.736 12.2269 36.89C11.8749 37.0367 11.4936 37.11 11.0829 37.11ZM11.0829 36.065C11.3322 36.065 11.5596 36.021 11.7649 35.933C11.9776 35.845 12.1572 35.7203 12.3039 35.559C12.4579 35.3977 12.5752 35.2033 12.6559 34.976C12.7439 34.7413 12.7879 34.481 12.7879 34.195C12.7879 33.909 12.7439 33.6523 12.6559 33.425C12.5752 33.1903 12.4579 32.9923 12.3039 32.831C12.1572 32.6697 11.9776 32.545 11.7649 32.457C11.5596 32.369 11.3322 32.325 11.0829 32.325C10.8336 32.325 10.6026 32.369 10.3899 32.457C10.1846 32.545 10.0049 32.6697 9.85089 32.831C9.70422 32.9923 9.58689 33.1903 9.49889 33.425C9.41822 33.6523 9.37789 33.909 9.37789 34.195C9.37789 34.481 9.41822 34.7413 9.49889 34.976C9.58689 35.2033 9.70422 35.3977 9.85089 35.559C10.0049 35.7203 10.1846 35.845 10.3899 35.933C10.6026 36.021 10.8336 36.065 11.0829 36.065ZM17.1312 37H15.9762L14.4362 31.39H15.6462L16.8562 35.9H17.4612L18.7812 31.39H19.9912L17.6812 39.09H16.4712L17.1312 37ZM22.9036 37.11C22.5296 37.11 22.1813 37.0403 21.8586 36.901C21.5433 36.7617 21.2646 36.5673 21.0226 36.318C20.7879 36.0613 20.6009 35.7533 20.4616 35.394C20.3296 35.0347 20.2636 34.635 20.2636 34.195C20.2636 33.755 20.3296 33.3553 20.4616 32.996C20.6009 32.6367 20.7879 32.3323 21.0226 32.083C21.2646 31.8263 21.5433 31.6283 21.8586 31.489C22.1813 31.3497 22.5296 31.28 22.9036 31.28C23.1896 31.28 23.4426 31.324 23.6626 31.412C23.8826 31.5 24.0659 31.5953 24.2126 31.698C24.3886 31.8227 24.5389 31.9583 24.6636 32.105H24.7186V31.39H25.8736V37H24.7186V36.23H24.6636C24.5389 36.3913 24.3886 36.538 24.2126 36.67C24.0659 36.78 23.8826 36.8827 23.6626 36.978C23.4426 37.066 23.1896 37.11 22.9036 37.11ZM23.1236 36.065C23.5929 36.065 23.9743 35.9073 24.2676 35.592C24.5683 35.2693 24.7186 34.8037 24.7186 34.195C24.7186 33.5863 24.5683 33.1243 24.2676 32.809C23.9743 32.4863 23.5929 32.325 23.1236 32.325C22.6249 32.325 22.2253 32.4863 21.9246 32.809C21.6239 33.1243 21.4736 33.5863 21.4736 34.195C21.4736 34.8037 21.6239 35.2693 21.9246 35.592C22.2253 35.9073 22.6249 36.065 23.1236 36.065ZM27.1893 29.3H28.3443V35.955H29.6093V37H27.1893V29.3ZM34.8949 30.51H32.3649V29.3H38.6899V30.51H36.1599V37H34.8949V30.51ZM41.6569 37.11C40.9675 37.11 40.4285 36.912 40.0399 36.516C39.6512 36.1127 39.4569 35.5223 39.4569 34.745V31.39H40.6119V34.635C40.6119 35.1337 40.7219 35.4967 40.9419 35.724C41.1619 35.9513 41.4919 36.065 41.9319 36.065C42.1519 36.065 42.3535 36.0247 42.5369 35.944C42.7275 35.8633 42.8925 35.7533 43.0319 35.614C43.1712 35.4673 43.2775 35.295 43.3509 35.097C43.4315 34.8917 43.4719 34.6643 43.4719 34.415V31.39H44.6269V37H43.4719V36.23H43.4169C43.3142 36.3913 43.1785 36.538 43.0099 36.67C42.8632 36.78 42.6799 36.8827 42.4599 36.978C42.2399 37.066 41.9722 37.11 41.6569 37.11ZM45.9452 29.3H47.1002V35.955H48.3652V37H45.9452V29.3ZM49.1356 31.39H50.2906V37H49.1356V31.39ZM49.7076 30.565C49.5169 30.565 49.3556 30.499 49.2236 30.367C49.0916 30.235 49.0256 30.0737 49.0256 29.883C49.0256 29.6923 49.0916 29.531 49.2236 29.399C49.3556 29.2597 49.5169 29.19 49.7076 29.19C49.8983 29.19 50.0596 29.2597 50.1916 29.399C50.3309 29.531 50.4006 29.6923 50.4006 29.883C50.4006 30.0737 50.3309 30.235 50.1916 30.367C50.0596 30.499 49.8983 30.565 49.7076 30.565ZM51.6063 31.39H52.7613V32.105H52.8163C52.941 31.9583 53.0913 31.8227 53.2673 31.698C53.414 31.5953 53.5936 31.5 53.8063 31.412C54.0263 31.324 54.283 31.28 54.5763 31.28C54.9503 31.28 55.295 31.3497 55.6103 31.489C55.933 31.6283 56.2116 31.8263 56.4463 32.083C56.6883 32.3323 56.8753 32.6367 57.0073 32.996C57.1466 33.3553 57.2163 33.755 57.2163 34.195C57.2163 34.635 57.1466 35.0347 57.0073 35.394C56.8753 35.7533 56.6883 36.0613 56.4463 36.318C56.2116 36.5673 55.933 36.7617 55.6103 36.901C55.295 37.0403 54.9503 37.11 54.5763 37.11C54.283 37.11 54.0263 37.0697 53.8063 36.989C53.5936 36.901 53.414 36.8057 53.2673 36.703C53.0913 36.5783 52.941 36.439 52.8163 36.285H52.7613V39.09H51.6063V31.39ZM54.3563 36.065C54.855 36.065 55.2546 35.9073 55.5553 35.592C55.856 35.2693 56.0063 34.8037 56.0063 34.195C56.0063 33.5863 55.856 33.1243 55.5553 32.809C55.2546 32.4863 54.855 32.325 54.3563 32.325C53.887 32.325 53.502 32.4863 53.2013 32.809C52.908 33.1243 52.7613 33.5863 52.7613 34.195C52.7613 34.8037 52.908 35.2693 53.2013 35.592C53.502 35.9073 53.887 36.065 54.3563 36.065ZM14.0166 41.3H17.1516L19.1866 49H17.8666L17.3386 47.02H13.7966L13.3016 49H12.0366L14.0166 41.3ZM17.0306 45.81L16.1616 42.51H14.9516L14.1266 45.81H17.0306ZM20.0081 41.3H21.1631V47.955H22.4281V49H20.0081V41.3ZM23.1986 43.39H24.3536V44.16H24.4086C24.5039 43.9987 24.6286 43.852 24.7826 43.72C24.9146 43.61 25.0832 43.511 25.2886 43.423C25.4939 43.3277 25.7506 43.28 26.0586 43.28C26.4179 43.28 26.7112 43.335 26.9386 43.445C27.1732 43.555 27.3602 43.676 27.4996 43.808C27.6609 43.962 27.7856 44.1343 27.8736 44.325H27.9286C28.0312 44.1343 28.1742 43.962 28.3576 43.808C28.5042 43.676 28.6986 43.555 28.9406 43.445C29.1899 43.335 29.4942 43.28 29.8536 43.28C30.4916 43.28 30.9976 43.4817 31.3716 43.885C31.7529 44.281 31.9436 44.8677 31.9436 45.645V49H30.7886V45.7C30.7886 45.2307 30.6822 44.886 30.4696 44.666C30.2642 44.4387 29.9672 44.325 29.5786 44.325C29.3879 44.325 29.2046 44.3653 29.0286 44.446C28.8599 44.5193 28.7096 44.6293 28.5776 44.776C28.4456 44.9153 28.3392 45.084 28.2586 45.282C28.1852 45.4727 28.1486 45.6853 28.1486 45.92V49H26.9936V45.7C26.9936 45.2307 26.8872 44.886 26.6746 44.666C26.4692 44.4387 26.1722 44.325 25.7836 44.325C25.5929 44.325 25.4096 44.3653 25.2336 44.446C25.0649 44.5193 24.9146 44.6293 24.7826 44.776C24.6506 44.9153 24.5442 45.084 24.4636 45.282C24.3902 45.4727 24.3536 45.6853 24.3536 45.92V49H23.1986V43.39ZM35.5203 49.11C35.1463 49.11 34.798 49.0403 34.4753 48.901C34.16 48.7617 33.8813 48.5673 33.6393 48.318C33.4046 48.0613 33.2176 47.7533 33.0783 47.394C32.9463 47.0347 32.8803 46.635 32.8803 46.195C32.8803 45.755 32.9463 45.3553 33.0783 44.996C33.2176 44.6367 33.4046 44.3323 33.6393 44.083C33.8813 43.8263 34.16 43.6283 34.4753 43.489C34.798 43.3497 35.1463 43.28 35.5203 43.28C35.8063 43.28 36.0593 43.324 36.2793 43.412C36.4993 43.5 36.6826 43.5953 36.8293 43.698C37.0053 43.8227 37.1556 43.9583 37.2803 44.105H37.3353V43.39H38.4903V49H37.3353V48.23H37.2803C37.1556 48.3913 37.0053 48.538 36.8293 48.67C36.6826 48.78 36.4993 48.8827 36.2793 48.978C36.0593 49.066 35.8063 49.11 35.5203 49.11ZM35.7403 48.065C36.2096 48.065 36.591 47.9073 36.8843 47.592C37.185 47.2693 37.3353 46.8037 37.3353 46.195C37.3353 45.5863 37.185 45.1243 36.8843 44.809C36.591 44.4863 36.2096 44.325 35.7403 44.325C35.2416 44.325 34.842 44.4863 34.5413 44.809C34.2406 45.1243 34.0903 45.5863 34.0903 46.195C34.0903 46.8037 34.2406 47.2693 34.5413 47.592C34.842 47.9073 35.2416 48.065 35.7403 48.065ZM40.026 44.435H39.366V43.39H40.026V42.18H41.181V43.39H42.886V44.435H41.181V47.955H42.941V49H40.026V44.435ZM46.076 49H44.921L43.381 43.39H44.591L45.801 47.9H46.406L47.726 43.39H48.936L46.626 51.09H45.416L46.076 49Z" fill="#784839"/>
</svg>
