<svg width="85" height="24" viewBox="0 0 85 24" fill="none" xmlns="http://www.w3.org/2000/svg">
<rect width="24" height="24" rx="12" fill="#784839"/>
<g clip-path="url(#clip0_84_12877)">
<path fill-rule="evenodd" clip-rule="evenodd" d="M13.5612 10.9213C13.5848 10.8765 13.6224 10.8225 13.6674 10.7579C13.8453 10.5024 14.1389 10.0809 14.1389 9.40503C14.1389 7.88355 12.8867 7.45133 12.5318 7.32881C12.4842 7.31237 12.4527 7.3015 12.4426 7.29433L12.4167 7.02109C12.2905 5.6978 11.1919 4.69995 9.86152 4.69995C8.54533 4.69995 7.4501 5.69828 7.31391 7.02201L7.28593 7.2935C7.27577 7.30066 7.24358 7.31148 7.19475 7.32788C6.83269 7.44952 5.55566 7.87856 5.55566 9.40503C5.55566 10.0804 5.84966 10.5028 6.02751 10.7584L6.02751 10.7584C6.07239 10.8229 6.10987 10.8767 6.13336 10.9213C6.12332 10.9318 6.09429 10.9514 6.05106 10.9805L6.05106 10.9805C5.74092 11.1891 4.7002 11.8893 4.7002 13.2832C4.7002 14.6984 5.87991 15.821 7.29512 15.821H12.4279C13.8431 15.821 14.9943 14.6698 14.9943 13.2546C14.9943 11.8707 13.9919 11.2102 13.6605 10.9919C13.6094 10.9582 13.5742 10.935 13.5612 10.9213ZM17.867 10.9213C17.8906 10.8765 17.9282 10.8225 17.9732 10.7579C18.1512 10.5024 18.4447 10.0809 18.4447 9.40503C18.4447 7.88479 17.1725 7.45204 16.8111 7.32911C16.7623 7.3125 16.7301 7.30155 16.7199 7.29433L16.694 7.02109C16.5679 5.6978 15.4693 4.69995 14.1389 4.69995C13.5613 4.69995 13.0326 4.90044 12.6025 5.22815C12.9166 5.65155 13.1444 6.14555 13.2362 6.69493C14.7571 7.41715 14.9943 8.67737 14.9943 9.40503C14.9943 9.9539 14.8519 10.3887 14.6923 10.7137C15.4693 11.4155 15.8498 12.2618 15.8498 13.2546C15.8498 14.2815 15.3858 15.1933 14.6672 15.821H16.7053C18.1205 15.821 19.3002 14.6698 19.3002 13.2546C19.3002 11.8707 18.2978 11.2102 17.9664 10.9919L17.9664 10.9919C17.9152 10.9582 17.8801 10.935 17.867 10.9213ZM15.8498 16.6765V18.4445H17.5607V19.2999H7.29512V18.4445H9.00605V16.6765H10.717V18.4445H14.1389V16.6765H15.8498Z" fill="#E0DCD5"/>
</g>
<path d="M30.64 8.51H28.11V7.3H34.435V8.51H31.905V15H30.64V8.51ZM37.2916 15.11C36.8956 15.11 36.5216 15.0367 36.1696 14.89C35.8249 14.736 35.5206 14.5307 35.2566 14.274C34.9999 14.01 34.7982 13.702 34.6516 13.35C34.5049 12.9907 34.4316 12.6057 34.4316 12.195C34.4316 11.7843 34.5049 11.403 34.6516 11.051C34.7982 10.6917 34.9999 10.3837 35.2566 10.127C35.5206 9.863 35.8249 9.65767 36.1696 9.511C36.5216 9.357 36.8956 9.28 37.2916 9.28C37.6876 9.28 38.0579 9.357 38.4026 9.511C38.7546 9.65767 39.0589 9.863 39.3156 10.127C39.5796 10.3837 39.7849 10.6917 39.9316 11.051C40.0782 11.403 40.1516 11.7843 40.1516 12.195V12.58H35.5866C35.6306 12.8147 35.7039 13.0237 35.8066 13.207C35.9092 13.3903 36.0376 13.548 36.1916 13.68C36.3456 13.8047 36.5142 13.9 36.6976 13.966C36.8882 14.032 37.0862 14.065 37.2916 14.065C37.5776 14.065 37.8232 14.0283 38.0286 13.955C38.2339 13.8743 38.3989 13.7827 38.5236 13.68C38.6702 13.57 38.7912 13.4417 38.8866 13.295H40.0966C39.9572 13.6397 39.7629 13.944 39.5136 14.208C39.4036 14.318 39.2789 14.428 39.1396 14.538C39.0002 14.648 38.8389 14.747 38.6556 14.835C38.4722 14.9157 38.2669 14.9817 38.0396 15.033C37.8122 15.0843 37.5629 15.11 37.2916 15.11ZM38.9416 11.645C38.9122 11.4837 38.8572 11.3223 38.7766 11.161C38.6959 10.9997 38.5859 10.8603 38.4466 10.743C38.3072 10.6183 38.1422 10.5193 37.9516 10.446C37.7609 10.3653 37.5409 10.325 37.2916 10.325C37.1009 10.325 36.9139 10.3543 36.7306 10.413C36.5546 10.4717 36.3896 10.5597 36.2356 10.677C36.0889 10.787 35.9642 10.9263 35.8616 11.095C35.7589 11.2563 35.6856 11.4397 35.6416 11.645H38.9416ZM41.1424 9.39H42.2974V10.105H42.3524C42.4771 9.95833 42.6274 9.82267 42.8034 9.698C42.9501 9.59533 43.1298 9.5 43.3424 9.412C43.5624 9.324 43.8191 9.28 44.1124 9.28C44.4864 9.28 44.8311 9.34967 45.1464 9.489C45.4691 9.62833 45.7478 9.82633 45.9824 10.083C46.2244 10.3323 46.4114 10.6367 46.5434 10.996C46.6828 11.3553 46.7524 11.755 46.7524 12.195C46.7524 12.635 46.6828 13.0347 46.5434 13.394C46.4114 13.7533 46.2244 14.0613 45.9824 14.318C45.7478 14.5673 45.4691 14.7617 45.1464 14.901C44.8311 15.0403 44.4864 15.11 44.1124 15.11C43.8191 15.11 43.5624 15.0697 43.3424 14.989C43.1298 14.901 42.9501 14.8057 42.8034 14.703C42.6274 14.5783 42.4771 14.439 42.3524 14.285H42.2974V17.09H41.1424V9.39ZM43.8924 14.065C44.3911 14.065 44.7908 13.9073 45.0914 13.592C45.3921 13.2693 45.5424 12.8037 45.5424 12.195C45.5424 11.5863 45.3921 11.1243 45.0914 10.809C44.7908 10.4863 44.3911 10.325 43.8924 10.325C43.4231 10.325 43.0381 10.4863 42.7374 10.809C42.4441 11.1243 42.2974 11.5863 42.2974 12.195C42.2974 12.8037 42.4441 13.2693 42.7374 13.592C43.0381 13.9073 43.4231 14.065 43.8924 14.065ZM47.7381 9.39H48.8931V10.105H48.9481C49.0728 9.95833 49.2231 9.82267 49.3991 9.698C49.5458 9.59533 49.7255 9.5 49.9381 9.412C50.1581 9.324 50.4148 9.28 50.7081 9.28C51.0821 9.28 51.4268 9.34967 51.7421 9.489C52.0648 9.62833 52.3435 9.82633 52.5781 10.083C52.8201 10.3323 53.0071 10.6367 53.1391 10.996C53.2785 11.3553 53.3481 11.755 53.3481 12.195C53.3481 12.635 53.2785 13.0347 53.1391 13.394C53.0071 13.7533 52.8201 14.0613 52.5781 14.318C52.3435 14.5673 52.0648 14.7617 51.7421 14.901C51.4268 15.0403 51.0821 15.11 50.7081 15.11C50.4148 15.11 50.1581 15.0697 49.9381 14.989C49.7255 14.901 49.5458 14.8057 49.3991 14.703C49.2231 14.5783 49.0728 14.439 48.9481 14.285H48.8931V17.09H47.7381V9.39ZM50.4881 14.065C50.9868 14.065 51.3865 13.9073 51.6871 13.592C51.9878 13.2693 52.1381 12.8037 52.1381 12.195C52.1381 11.5863 51.9878 11.1243 51.6871 10.809C51.3865 10.4863 50.9868 10.325 50.4881 10.325C50.0188 10.325 49.6338 10.4863 49.3331 10.809C49.0398 11.1243 48.8931 11.5863 48.8931 12.195C48.8931 12.8037 49.0398 13.2693 49.3331 13.592C49.6338 13.9073 50.0188 14.065 50.4881 14.065ZM56.8638 15.11C56.4678 15.11 56.0938 15.0367 55.7418 14.89C55.3972 14.736 55.0928 14.5307 54.8288 14.274C54.5722 14.01 54.3705 13.702 54.2238 13.35C54.0772 12.9907 54.0038 12.6057 54.0038 12.195C54.0038 11.7843 54.0772 11.403 54.2238 11.051C54.3705 10.6917 54.5722 10.3837 54.8288 10.127C55.0928 9.863 55.3972 9.65767 55.7418 9.511C56.0938 9.357 56.4678 9.28 56.8638 9.28C57.2598 9.28 57.6302 9.357 57.9748 9.511C58.3268 9.65767 58.6312 9.863 58.8878 10.127C59.1518 10.3837 59.3572 10.6917 59.5038 11.051C59.6505 11.403 59.7238 11.7843 59.7238 12.195V12.58H55.1588C55.2028 12.8147 55.2762 13.0237 55.3788 13.207C55.4815 13.3903 55.6098 13.548 55.7638 13.68C55.9178 13.8047 56.0865 13.9 56.2698 13.966C56.4605 14.032 56.6585 14.065 56.8638 14.065C57.1498 14.065 57.3955 14.0283 57.6008 13.955C57.8062 13.8743 57.9712 13.7827 58.0958 13.68C58.2425 13.57 58.3635 13.4417 58.4588 13.295H59.6688C59.5295 13.6397 59.3352 13.944 59.0858 14.208C58.9758 14.318 58.8512 14.428 58.7118 14.538C58.5725 14.648 58.4112 14.747 58.2278 14.835C58.0445 14.9157 57.8392 14.9817 57.6118 15.033C57.3845 15.0843 57.1352 15.11 56.8638 15.11ZM58.5138 11.645C58.4845 11.4837 58.4295 11.3223 58.3488 11.161C58.2682 10.9997 58.1582 10.8603 58.0188 10.743C57.8795 10.6183 57.7145 10.5193 57.5238 10.446C57.3332 10.3653 57.1132 10.325 56.8638 10.325C56.6732 10.325 56.4862 10.3543 56.3028 10.413C56.1268 10.4717 55.9618 10.5597 55.8078 10.677C55.6612 10.787 55.5365 10.9263 55.4338 11.095C55.3312 11.2563 55.2578 11.4397 55.2138 11.645H58.5138ZM60.7147 9.39H61.8697V11.645H64.6197V9.39H65.7747V15H64.6197V12.69H61.8697V15H60.7147V9.39ZM67.0955 9.39H68.2505V11.59H69.0755L70.7805 9.39H72.1005L70.0655 11.975L72.2655 15H70.8355L69.1305 12.635H68.2505V15H67.0955V9.39ZM75.0736 15H73.9186L72.3786 9.39H73.5886L74.7986 13.9H75.4036L76.7236 9.39H77.9336L75.6236 17.09H74.4136L75.0736 15ZM78.536 9.39H79.691V10.105H79.746C79.8706 9.95833 80.021 9.82267 80.197 9.698C80.3436 9.59533 80.5233 9.5 80.736 9.412C80.956 9.324 81.2126 9.28 81.506 9.28C81.88 9.28 82.2246 9.34967 82.54 9.489C82.8626 9.62833 83.1413 9.82633 83.376 10.083C83.618 10.3323 83.805 10.6367 83.937 10.996C84.0763 11.3553 84.146 11.755 84.146 12.195C84.146 12.635 84.0763 13.0347 83.937 13.394C83.805 13.7533 83.618 14.0613 83.376 14.318C83.1413 14.5673 82.8626 14.7617 82.54 14.901C82.2246 15.0403 81.88 15.11 81.506 15.11C81.2126 15.11 80.956 15.0697 80.736 14.989C80.5233 14.901 80.3436 14.8057 80.197 14.703C80.021 14.5783 79.8706 14.439 79.746 14.285H79.691V17.09H78.536V9.39ZM81.286 14.065C81.7846 14.065 82.1843 13.9073 82.485 13.592C82.7856 13.2693 82.936 12.8037 82.936 12.195C82.936 11.5863 82.7856 11.1243 82.485 10.809C82.1843 10.4863 81.7846 10.325 81.286 10.325C80.8166 10.325 80.4316 10.4863 80.131 10.809C79.8376 11.1243 79.691 11.5863 79.691 12.195C79.691 12.8037 79.8376 13.2693 80.131 13.592C80.4316 13.9073 80.8166 14.065 81.286 14.065Z" fill="#784839"/>
<defs>
<clipPath id="clip0_84_12877">
<rect width="16" height="16" fill="white" transform="translate(4 4)"/>
</clipPath>
</defs>
</svg>
