<svg width="92" height="24" viewBox="0 0 92 24" fill="none" xmlns="http://www.w3.org/2000/svg">
<rect width="24" height="24" rx="12" fill="#784839"/>
<path fill-rule="evenodd" clip-rule="evenodd" d="M14.8327 8.66659C14.8327 8.94259 14.6087 9.16659 14.3327 9.16659C14.0567 9.16659 13.8327 8.94259 13.8327 8.66659V7.66659C13.8327 6.65392 13.012 5.83325 11.9993 5.83325C10.9867 5.83325 10.166 6.65392 10.166 7.66659V8.66659C10.166 8.94259 9.94202 9.16659 9.66602 9.16659C9.39002 9.16659 9.16602 8.94259 9.16602 8.66659V7.66659C9.16602 6.10192 10.4347 4.83325 11.9993 4.83325C13.564 4.83325 14.8327 6.10192 14.8327 7.66659V8.66659Z" fill="#E0DCD5"/>
<path fill-rule="evenodd" clip-rule="evenodd" d="M16.8943 9.5665L17.4276 16.5665C17.455 16.9812 17.3096 17.3878 17.0263 17.6912C16.7423 17.9945 16.3456 18.1665 15.931 18.1665H8.06829C7.65362 18.1665 7.25696 17.9945 6.97296 17.6912C6.68962 17.3878 6.54429 16.9812 6.57162 16.5665L7.10496 9.5665C7.15762 8.7785 7.81229 8.1665 8.60162 8.1665H15.3976C16.187 8.1665 16.8416 8.7785 16.8943 9.5665ZM13.657 11.1185C13.3623 11.7378 12.731 12.1665 11.9996 12.1665C11.2683 12.1665 10.637 11.7378 10.3423 11.1185C10.2243 10.8692 9.92562 10.7632 9.67629 10.8818C9.42696 10.9998 9.32096 11.2985 9.43896 11.5478C9.89362 12.5052 10.8696 13.1665 11.9996 13.1665C13.1296 13.1665 14.1056 12.5052 14.5603 11.5478C14.6783 11.2985 14.5723 10.9998 14.323 10.8818C14.0736 10.7632 13.775 10.8692 13.657 11.1185Z" fill="#E0DCD5"/>
<path d="M28.77 1.3H31.355C31.9563 1.3 32.51 1.40267 33.016 1.608C33.522 1.806 33.9583 2.07733 34.325 2.422C34.6917 2.76667 34.974 3.17367 35.172 3.643C35.3773 4.11233 35.48 4.61467 35.48 5.15C35.48 5.68533 35.3773 6.18767 35.172 6.657C34.974 7.12633 34.6917 7.53333 34.325 7.878C33.9583 8.22267 33.522 8.49767 33.016 8.703C32.51 8.901 31.9563 9 31.355 9H28.77V1.3ZM31.355 7.79C31.7803 7.79 32.1653 7.724 32.51 7.592C32.8547 7.46 33.148 7.28033 33.39 7.053C33.6393 6.81833 33.83 6.53967 33.962 6.217C34.094 5.89433 34.16 5.53867 34.16 5.15C34.16 4.76867 34.094 4.41667 33.962 4.094C33.83 3.764 33.6393 3.48533 33.39 3.258C33.148 3.02333 32.8547 2.84 32.51 2.708C32.1653 2.576 31.7803 2.51 31.355 2.51H30.035V7.79H31.355ZM39.162 9.11C38.7513 9.11 38.3663 9.03667 38.007 8.89C37.655 8.736 37.347 8.53067 37.083 8.274C36.8263 8.01 36.621 7.702 36.467 7.35C36.3203 6.99067 36.247 6.60567 36.247 6.195C36.247 5.78433 36.3203 5.403 36.467 5.051C36.621 4.69167 36.8263 4.38367 37.083 4.127C37.347 3.863 37.655 3.65767 38.007 3.511C38.3663 3.357 38.7513 3.28 39.162 3.28C39.5727 3.28 39.954 3.357 40.306 3.511C40.6653 3.65767 40.9733 3.863 41.23 4.127C41.494 4.38367 41.6993 4.69167 41.846 5.051C42 5.403 42.077 5.78433 42.077 6.195C42.077 6.60567 42 6.99067 41.846 7.35C41.6993 7.702 41.494 8.01 41.23 8.274C40.9733 8.53067 40.6653 8.736 40.306 8.89C39.954 9.03667 39.5727 9.11 39.162 9.11ZM39.162 8.065C39.4113 8.065 39.6387 8.021 39.844 7.933C40.0567 7.845 40.2363 7.72033 40.383 7.559C40.537 7.39767 40.6543 7.20333 40.735 6.976C40.823 6.74133 40.867 6.481 40.867 6.195C40.867 5.909 40.823 5.65233 40.735 5.425C40.6543 5.19033 40.537 4.99233 40.383 4.831C40.2363 4.66967 40.0567 4.545 39.844 4.457C39.6387 4.369 39.4113 4.325 39.162 4.325C38.9127 4.325 38.6817 4.369 38.469 4.457C38.2637 4.545 38.084 4.66967 37.93 4.831C37.7833 4.99233 37.666 5.19033 37.578 5.425C37.4973 5.65233 37.457 5.909 37.457 6.195C37.457 6.481 37.4973 6.74133 37.578 6.976C37.666 7.20333 37.7833 7.39767 37.93 7.559C38.084 7.72033 38.2637 7.845 38.469 7.933C38.6817 8.021 38.9127 8.065 39.162 8.065ZM45.3203 9.11C45.0343 9.11 44.7739 9.08433 44.5393 9.033C44.3119 8.98167 44.1103 8.912 43.9343 8.824C43.7583 8.736 43.6043 8.637 43.4723 8.527C43.3403 8.40967 43.2266 8.29233 43.1313 8.175C42.9113 7.90367 42.7609 7.592 42.6803 7.24H43.9453C44.0039 7.394 44.0956 7.53333 44.2203 7.658C44.3229 7.76067 44.4623 7.856 44.6383 7.944C44.8143 8.02467 45.0416 8.065 45.3203 8.065C45.5403 8.065 45.7236 8.04667 45.8703 8.01C46.0169 7.97333 46.1343 7.92567 46.2223 7.867C46.3176 7.801 46.3836 7.72767 46.4203 7.647C46.4569 7.56633 46.4753 7.48567 46.4753 7.405C46.4753 7.24367 46.3873 7.119 46.2113 7.031C46.0426 6.943 45.8263 6.86967 45.5623 6.811C45.2983 6.75233 45.0159 6.69 44.7153 6.624C44.4146 6.558 44.1323 6.46267 43.8683 6.338C43.6043 6.206 43.3843 6.03 43.2083 5.81C43.0396 5.59 42.9553 5.29667 42.9553 4.93C42.9553 4.72467 43.0029 4.523 43.0983 4.325C43.2009 4.127 43.3476 3.951 43.5383 3.797C43.7289 3.643 43.9599 3.51833 44.2313 3.423C44.5026 3.32767 44.8106 3.28 45.1553 3.28C45.7053 3.28 46.1416 3.37167 46.4643 3.555C46.7943 3.73833 47.0436 3.94 47.2123 4.16C47.4103 4.41667 47.5496 4.71 47.6303 5.04H46.4203C46.3689 4.908 46.2883 4.79067 46.1783 4.688C46.0829 4.6 45.9509 4.51933 45.7823 4.446C45.6209 4.36533 45.4119 4.325 45.1553 4.325C44.8033 4.325 44.5503 4.38733 44.3963 4.512C44.2423 4.63667 44.1653 4.77967 44.1653 4.941C44.1653 5.10233 44.2496 5.227 44.4183 5.315C44.5943 5.39567 44.8143 5.46533 45.0783 5.524C45.3423 5.58267 45.6246 5.645 45.9253 5.711C46.2259 5.777 46.5083 5.876 46.7723 6.008C47.0363 6.13267 47.2526 6.305 47.4213 6.525C47.5973 6.745 47.6853 7.03833 47.6853 7.405C47.6853 7.625 47.6339 7.83767 47.5313 8.043C47.4286 8.24833 47.2783 8.43167 47.0803 8.593C46.8823 8.747 46.6329 8.87167 46.3323 8.967C46.0389 9.06233 45.7016 9.11 45.3203 9.11ZM48.8927 4.435H48.2327V3.39H48.8927V2.18H50.0477V3.39H51.7527V4.435H50.0477V7.955H51.8077V9H48.8927V4.435ZM54.9427 9H53.7877L52.2477 3.39H53.4577L54.6677 7.9H55.2727L56.5927 3.39H57.8027L55.4927 11.09H54.2827L54.9427 9ZM58.4051 1.3H59.5601V5.59H60.3851L62.0901 3.39H63.4101L61.3751 5.975L63.5751 9H62.1451L60.4401 6.635H59.5601V9H58.4051V1.3ZM28.77 13.3H32.125C32.5797 13.3 32.9903 13.3697 33.357 13.509C33.7237 13.641 34.0353 13.8243 34.292 14.059C34.5487 14.2937 34.7467 14.5687 34.886 14.884C35.0253 15.192 35.095 15.5257 35.095 15.885C35.095 16.2443 35.0253 16.5817 34.886 16.897C34.7467 17.205 34.5487 17.4763 34.292 17.711C34.0353 17.9457 33.7237 18.1327 33.357 18.272C32.9903 18.404 32.5797 18.47 32.125 18.47H30.035V21H28.77V13.3ZM32.125 17.26C32.675 17.26 33.0857 17.1353 33.357 16.886C33.6357 16.6367 33.775 16.303 33.775 15.885C33.775 15.467 33.6357 15.1333 33.357 14.884C33.0857 14.6347 32.675 14.51 32.125 14.51H30.035V17.26H32.125ZM36.0829 13.3H37.2379V19.955H38.5029V21H36.0829V13.3ZM41.5833 21.11C41.2093 21.11 40.8609 21.0403 40.5383 20.901C40.2229 20.7617 39.9443 20.5673 39.7023 20.318C39.4676 20.0613 39.2806 19.7533 39.1413 19.394C39.0093 19.0347 38.9433 18.635 38.9433 18.195C38.9433 17.755 39.0093 17.3553 39.1413 16.996C39.2806 16.6367 39.4676 16.3323 39.7023 16.083C39.9443 15.8263 40.2229 15.6283 40.5383 15.489C40.8609 15.3497 41.2093 15.28 41.5833 15.28C41.8693 15.28 42.1223 15.324 42.3423 15.412C42.5623 15.5 42.7456 15.5953 42.8923 15.698C43.0683 15.8227 43.2186 15.9583 43.3433 16.105H43.3983V15.39H44.5533V21H43.3983V20.23H43.3433C43.2186 20.3913 43.0683 20.538 42.8923 20.67C42.7456 20.78 42.5623 20.8827 42.3423 20.978C42.1223 21.066 41.8693 21.11 41.5833 21.11ZM41.8033 20.065C42.2726 20.065 42.6539 19.9073 42.9473 19.592C43.2479 19.2693 43.3983 18.8037 43.3983 18.195C43.3983 17.5863 43.2479 17.1243 42.9473 16.809C42.6539 16.4863 42.2726 16.325 41.8033 16.325C41.3046 16.325 40.9049 16.4863 40.6043 16.809C40.3036 17.1243 40.1533 17.5863 40.1533 18.195C40.1533 18.8037 40.3036 19.2693 40.6043 19.592C40.9049 19.9073 41.3046 20.065 41.8033 20.065ZM45.429 19.955L48.454 16.545V16.435H45.539V15.39H49.994V16.435L46.969 19.845V19.955H50.104V21H45.429V19.955ZM53.2923 21.11C52.9183 21.11 52.5699 21.0403 52.2473 20.901C51.9319 20.7617 51.6533 20.5673 51.4113 20.318C51.1766 20.0613 50.9896 19.7533 50.8503 19.394C50.7183 19.0347 50.6523 18.635 50.6523 18.195C50.6523 17.755 50.7183 17.3553 50.8503 16.996C50.9896 16.6367 51.1766 16.3323 51.4113 16.083C51.6533 15.8263 51.9319 15.6283 52.2473 15.489C52.5699 15.3497 52.9183 15.28 53.2923 15.28C53.5783 15.28 53.8313 15.324 54.0513 15.412C54.2713 15.5 54.4546 15.5953 54.6013 15.698C54.7773 15.8227 54.9276 15.9583 55.0523 16.105H55.1073V15.39H56.2623V21H55.1073V20.23H55.0523C54.9276 20.3913 54.7773 20.538 54.6013 20.67C54.4546 20.78 54.2713 20.8827 54.0513 20.978C53.8313 21.066 53.5783 21.11 53.2923 21.11ZM53.5123 20.065C53.9816 20.065 54.3629 19.9073 54.6563 19.592C54.9569 19.2693 55.1073 18.8037 55.1073 18.195C55.1073 17.5863 54.9569 17.1243 54.6563 16.809C54.3629 16.4863 53.9816 16.325 53.5123 16.325C53.0136 16.325 52.6139 16.4863 52.3133 16.809C52.0126 17.1243 51.8623 17.5863 51.8623 18.195C51.8623 18.8037 52.0126 19.2693 52.3133 19.592C52.6139 19.9073 53.0136 20.065 53.5123 20.065Z" fill="#784839"/>
</svg>
