<svg width="103" height="91" viewBox="0 0 103 91" fill="none" xmlns="http://www.w3.org/2000/svg">
<mask id="path-1-inside-1_130_861" fill="white">
<path fill-rule="evenodd" clip-rule="evenodd" d="M52 0C34.3269 0 20 14.3269 20 32C20 47.7624 31.3965 60.863 46.399 63.5115L52 72L57.601 63.5115C72.6035 60.863 84 47.7624 84 32C84 14.3269 69.6731 0 52 0Z"/>
</mask>
<path fill-rule="evenodd" clip-rule="evenodd" d="M52 0C34.3269 0 20 14.3269 20 32C20 47.7624 31.3965 60.863 46.399 63.5115L52 72L57.601 63.5115C72.6035 60.863 84 47.7624 84 32C84 14.3269 69.6731 0 52 0Z" fill="#B56041"/>
<path d="M46.399 63.5115L49.7377 61.3085L48.7897 59.8717L47.0944 59.5724L46.399 63.5115ZM52 72L48.6613 74.203L52 79.2629L55.3387 74.203L52 72ZM57.601 63.5115L56.9056 59.5724L55.2103 59.8717L54.2623 61.3085L57.601 63.5115ZM24 32C24 16.536 36.536 4 52 4V-4C32.1177 -4 16 12.1177 16 32H24ZM47.0944 59.5724C33.9699 57.2554 24 45.7879 24 32H16C16 49.7368 28.823 64.4705 45.7036 67.4506L47.0944 59.5724ZM55.3387 69.797L49.7377 61.3085L43.0603 65.7145L48.6613 74.203L55.3387 69.797ZM54.2623 61.3085L48.6613 69.797L55.3387 74.203L60.9397 65.7145L54.2623 61.3085ZM80 32C80 45.7879 70.0301 57.2554 56.9056 59.5724L58.2964 67.4506C75.177 64.4705 88 49.7368 88 32H80ZM52 4C67.464 4 80 16.536 80 32H88C88 12.1177 71.8823 -4 52 -4V4Z" fill="#E0DCD5" mask="url(#path-1-inside-1_130_861)"/>
<path fill-rule="evenodd" clip-rule="evenodd" d="M47.9849 42.6361C46.3273 42.2582 45.6563 41.5679 45.7317 40.6603C45.7992 39.8494 46.5523 38.9159 47.7695 37.9216C50.2489 35.8965 54.7622 33.4865 59.2254 31.3613C56.0834 32.2906 52.9465 33.3723 49.6954 34.659C44.911 36.5534 39.8848 38.8896 34.233 41.8357L32 43L33.8168 41.2146C38.8667 36.2522 43.097 31.9349 46.5833 28.3771C53.9854 20.8236 58.0808 16.6446 59.6653 17.0237C60.6142 17.2511 60.7227 18.689 60.1034 21.501C59.7817 22.9606 58.3941 28.1515 57.7804 29.1687C57.988 28.0571 58.2326 26.802 58.5201 25.3999C58.7732 24.1623 59.0612 22.8065 59.3863 21.3293C59.8948 19.0242 59.9465 17.878 59.501 17.7714C58.3069 17.4855 54.315 21.5596 47.0985 28.9238C44.0212 32.0644 40.3651 35.7952 36.092 40.0257C40.8972 37.5858 45.2609 35.5948 49.4361 33.9418C54.2396 32.0398 58.8024 30.5826 63.5086 29.4007L67.7902 28.3261L63.7376 30.1261C58.2073 32.5824 51.4368 35.8989 48.2217 38.5251C47.1637 39.3888 46.5141 40.147 46.4663 40.7265C46.4258 41.2088 46.9264 41.609 48.1402 41.8855C50.934 42.523 57.0256 42.3226 68 40.7775C62.1688 42.6355 50.8907 43.2994 47.9849 42.6361Z" fill="#E0DCD5" stroke="#E0DCD5" stroke-width="1.38462"/>
<mask id="path-4-outside-2_130_861" maskUnits="userSpaceOnUse" x="0.219727" y="74.2" width="103" height="17" fill="black">
<rect fill="white" x="0.219727" y="74.2" width="103" height="17"/>
<path d="M7.57973 80.89L4.35973 76.2H6.24973L8.97973 80.26H10.3097V76.2H11.9197V80.26H13.2497L15.9797 76.2H17.8697L14.6497 80.89L18.0097 86H16.0497L13.3197 81.8H11.9197V86H10.3097V81.8H8.90973L6.17973 86H4.21973L7.57973 80.89Z"/>
<path d="M19.1281 76.2H20.7381V80.26H22.3481L25.2881 76.2H27.1781L23.7481 80.89L27.3181 86H25.3581L22.4181 81.8H20.7381V86H19.1281V76.2Z"/>
<path d="M33.6203 76.2H37.6103L40.2003 86H38.5203L37.8483 83.48H33.3403L32.7103 86H31.1003L33.6203 76.2ZM37.4563 81.94L36.3503 77.74H34.8103L33.7603 81.94H37.4563Z"/>
<path d="M44.0459 86.14C43.1686 86.14 42.4826 85.888 41.9879 85.384C41.4932 84.8706 41.2459 84.1193 41.2459 83.13V78.86H42.7159V82.99C42.7159 83.6246 42.8559 84.0866 43.1359 84.376C43.4159 84.6653 43.8359 84.81 44.3959 84.81C44.6759 84.81 44.9326 84.7586 45.1659 84.656C45.4086 84.5533 45.6186 84.4133 45.7959 84.236C45.9732 84.0493 46.1086 83.83 46.2019 83.578C46.3046 83.3166 46.3559 83.0273 46.3559 82.71V78.86H47.8259V86H46.3559V85.02H46.2859C46.1552 85.2253 45.9826 85.412 45.7679 85.58C45.5812 85.72 45.3479 85.8506 45.0679 85.972C44.7879 86.084 44.4472 86.14 44.0459 86.14Z"/>
<path d="M49.7837 80.19H48.9437V78.86H49.7837V77.32H51.2537V78.86H53.4237V80.19H51.2537V84.67H53.4937V86H49.7837V80.19Z"/>
<path d="M58.0437 86.14C57.521 86.14 57.031 86.0466 56.5737 85.86C56.1257 85.664 55.7337 85.4026 55.3977 85.076C55.071 84.74 54.8097 84.348 54.6137 83.9C54.427 83.4426 54.3337 82.9526 54.3337 82.43C54.3337 81.9073 54.427 81.422 54.6137 80.974C54.8097 80.5166 55.071 80.1246 55.3977 79.798C55.7337 79.462 56.1257 79.2006 56.5737 79.014C57.031 78.818 57.521 78.72 58.0437 78.72C58.5664 78.72 59.0517 78.818 59.4997 79.014C59.957 79.2006 60.349 79.462 60.6757 79.798C61.0117 80.1246 61.273 80.5166 61.4597 80.974C61.6557 81.422 61.7537 81.9073 61.7537 82.43C61.7537 82.9526 61.6557 83.4426 61.4597 83.9C61.273 84.348 61.0117 84.74 60.6757 85.076C60.349 85.4026 59.957 85.664 59.4997 85.86C59.0517 86.0466 58.5664 86.14 58.0437 86.14ZM58.0437 84.81C58.361 84.81 58.6504 84.754 58.9117 84.642C59.1824 84.53 59.411 84.3713 59.5977 84.166C59.7937 83.9606 59.943 83.7133 60.0457 83.424C60.1577 83.1253 60.2137 82.794 60.2137 82.43C60.2137 82.066 60.1577 81.7393 60.0457 81.45C59.943 81.1513 59.7937 80.8993 59.5977 80.694C59.411 80.4886 59.1824 80.33 58.9117 80.218C58.6504 80.106 58.361 80.05 58.0437 80.05C57.7264 80.05 57.4324 80.106 57.1617 80.218C56.9004 80.33 56.6717 80.4886 56.4757 80.694C56.289 80.8993 56.1397 81.1513 56.0277 81.45C55.925 81.7393 55.8737 82.066 55.8737 82.43C55.8737 82.794 55.925 83.1253 56.0277 83.424C56.1397 83.7133 56.289 83.9606 56.4757 84.166C56.6717 84.3713 56.9004 84.53 57.1617 84.642C57.4324 84.754 57.7264 84.81 58.0437 84.81Z"/>
<path d="M63.6415 87.33H68.2615V85.09H68.1915C68.0329 85.286 67.8415 85.4633 67.6175 85.622C67.4309 85.7526 67.1975 85.874 66.9175 85.986C66.6375 86.0886 66.3155 86.14 65.9515 86.14C65.4755 86.14 65.0322 86.0513 64.6215 85.874C64.2202 85.6966 63.8655 85.4493 63.5575 85.132C63.2589 84.8053 63.0209 84.4133 62.8435 83.956C62.6755 83.4986 62.5915 82.99 62.5915 82.43C62.5915 81.87 62.6755 81.3613 62.8435 80.904C63.0209 80.4466 63.2589 80.0593 63.5575 79.742C63.8655 79.4153 64.2202 79.1633 64.6215 78.986C65.0322 78.8086 65.4755 78.72 65.9515 78.72C66.3155 78.72 66.6375 78.776 66.9175 78.888C67.1975 79 67.4309 79.1213 67.6175 79.252C67.8415 79.4106 68.0329 79.588 68.1915 79.784H68.2615V78.86H69.7315V88.66H63.6415V87.33ZM66.2315 84.81C66.8289 84.81 67.3142 84.6093 67.6875 84.208C68.0702 83.7973 68.2615 83.2046 68.2615 82.43C68.2615 81.6553 68.0702 81.0673 67.6875 80.666C67.3142 80.2553 66.8289 80.05 66.2315 80.05C65.5969 80.05 65.0882 80.2553 64.7055 80.666C64.3229 81.0673 64.1315 81.6553 64.1315 82.43C64.1315 83.2046 64.3229 83.7973 64.7055 84.208C65.0882 84.6093 65.5969 84.81 66.2315 84.81Z"/>
<path d="M71.4061 78.86H72.8761V79.91H72.9461C73.0581 79.7046 73.2074 79.518 73.3941 79.35C73.5527 79.21 73.7534 79.084 73.9961 78.972C74.2481 78.8506 74.5514 78.79 74.9061 78.79H75.7461V80.19H74.8361C74.5561 80.19 74.2947 80.2366 74.0521 80.33C73.8187 80.4233 73.6134 80.554 73.4361 80.722C73.2587 80.89 73.1187 81.0953 73.0161 81.338C72.9227 81.5806 72.8761 81.8513 72.8761 82.15V86H71.4061V78.86Z"/>
<path d="M79.8011 86.14C79.3251 86.14 78.8818 86.0513 78.4711 85.874C78.0698 85.6966 77.7151 85.4493 77.4071 85.132C77.1085 84.8053 76.8705 84.4133 76.6931 83.956C76.5251 83.4986 76.4411 82.99 76.4411 82.43C76.4411 81.87 76.5251 81.3613 76.6931 80.904C76.8705 80.4466 77.1085 80.0593 77.4071 79.742C77.7151 79.4153 78.0698 79.1633 78.4711 78.986C78.8818 78.8086 79.3251 78.72 79.8011 78.72C80.1651 78.72 80.4871 78.776 80.7671 78.888C81.0471 79 81.2805 79.1213 81.4671 79.252C81.6911 79.4106 81.8825 79.5833 82.0411 79.77H82.1111V78.86H83.5811V86H82.1111V85.02H82.0411C81.8825 85.2253 81.6911 85.412 81.4671 85.58C81.2805 85.72 81.0471 85.8506 80.7671 85.972C80.4871 86.084 80.1651 86.14 79.8011 86.14ZM80.0811 84.81C80.6785 84.81 81.1638 84.6093 81.5371 84.208C81.9198 83.7973 82.1111 83.2046 82.1111 82.43C82.1111 81.6553 81.9198 81.0673 81.5371 80.666C81.1638 80.2553 80.6785 80.05 80.0811 80.05C79.4465 80.05 78.9378 80.2553 78.5551 80.666C78.1725 81.0673 77.9811 81.6553 77.9811 82.43C77.9811 83.2046 78.1725 83.7973 78.5551 84.208C78.9378 84.6093 79.4465 84.81 80.0811 84.81Z"/>
<path d="M85.2557 78.86H86.7257V79.77H86.7957C86.9543 79.5833 87.1457 79.4106 87.3697 79.252C87.5563 79.1213 87.785 79 88.0557 78.888C88.3357 78.776 88.6623 78.72 89.0357 78.72C89.5117 78.72 89.9503 78.8086 90.3517 78.986C90.7623 79.1633 91.117 79.4153 91.4157 79.742C91.7237 80.0593 91.9617 80.4466 92.1297 80.904C92.307 81.3613 92.3957 81.87 92.3957 82.43C92.3957 82.99 92.307 83.4986 92.1297 83.956C91.9617 84.4133 91.7237 84.8053 91.4157 85.132C91.117 85.4493 90.7623 85.6966 90.3517 85.874C89.9503 86.0513 89.5117 86.14 89.0357 86.14C88.6623 86.14 88.3357 86.0886 88.0557 85.986C87.785 85.874 87.5563 85.7526 87.3697 85.622C87.1457 85.4633 86.9543 85.286 86.7957 85.09H86.7257V88.66H85.2557V78.86ZM88.7557 84.81C89.3903 84.81 89.899 84.6093 90.2817 84.208C90.6643 83.7973 90.8557 83.2046 90.8557 82.43C90.8557 81.6553 90.6643 81.0673 90.2817 80.666C89.899 80.2553 89.3903 80.05 88.7557 80.05C88.1583 80.05 87.6683 80.2553 87.2857 80.666C86.9123 81.0673 86.7257 81.6553 86.7257 82.43C86.7257 83.2046 86.9123 83.7973 87.2857 84.208C87.6683 84.6093 88.1583 84.81 88.7557 84.81Z"/>
<path d="M93.6502 76.2H95.1202V79.84H95.1902C95.3209 79.6346 95.4935 79.448 95.7082 79.28C95.8949 79.14 96.1235 79.014 96.3942 78.902C96.6742 78.7806 97.0195 78.72 97.4302 78.72C98.3075 78.72 98.9935 78.9766 99.4882 79.49C99.9829 79.994 100.23 80.7406 100.23 81.73V86H98.7602V81.87C98.7602 81.2353 98.6202 80.7733 98.3402 80.484C98.0602 80.1946 97.6402 80.05 97.0802 80.05C96.8002 80.05 96.5389 80.1013 96.2962 80.204C96.0629 80.3066 95.8575 80.4513 95.6802 80.638C95.5029 80.8153 95.3629 81.0346 95.2602 81.296C95.1669 81.548 95.1202 81.8326 95.1202 82.15V86H93.6502V76.2Z"/>
</mask>
<path d="M7.57973 80.89L4.35973 76.2H6.24973L8.97973 80.26H10.3097V76.2H11.9197V80.26H13.2497L15.9797 76.2H17.8697L14.6497 80.89L18.0097 86H16.0497L13.3197 81.8H11.9197V86H10.3097V81.8H8.90973L6.17973 86H4.21973L7.57973 80.89Z" fill="#784839"/>
<path d="M19.1281 76.2H20.7381V80.26H22.3481L25.2881 76.2H27.1781L23.7481 80.89L27.3181 86H25.3581L22.4181 81.8H20.7381V86H19.1281V76.2Z" fill="#784839"/>
<path d="M33.6203 76.2H37.6103L40.2003 86H38.5203L37.8483 83.48H33.3403L32.7103 86H31.1003L33.6203 76.2ZM37.4563 81.94L36.3503 77.74H34.8103L33.7603 81.94H37.4563Z" fill="#784839"/>
<path d="M44.0459 86.14C43.1686 86.14 42.4826 85.888 41.9879 85.384C41.4932 84.8706 41.2459 84.1193 41.2459 83.13V78.86H42.7159V82.99C42.7159 83.6246 42.8559 84.0866 43.1359 84.376C43.4159 84.6653 43.8359 84.81 44.3959 84.81C44.6759 84.81 44.9326 84.7586 45.1659 84.656C45.4086 84.5533 45.6186 84.4133 45.7959 84.236C45.9732 84.0493 46.1086 83.83 46.2019 83.578C46.3046 83.3166 46.3559 83.0273 46.3559 82.71V78.86H47.8259V86H46.3559V85.02H46.2859C46.1552 85.2253 45.9826 85.412 45.7679 85.58C45.5812 85.72 45.3479 85.8506 45.0679 85.972C44.7879 86.084 44.4472 86.14 44.0459 86.14Z" fill="#784839"/>
<path d="M49.7837 80.19H48.9437V78.86H49.7837V77.32H51.2537V78.86H53.4237V80.19H51.2537V84.67H53.4937V86H49.7837V80.19Z" fill="#784839"/>
<path d="M58.0437 86.14C57.521 86.14 57.031 86.0466 56.5737 85.86C56.1257 85.664 55.7337 85.4026 55.3977 85.076C55.071 84.74 54.8097 84.348 54.6137 83.9C54.427 83.4426 54.3337 82.9526 54.3337 82.43C54.3337 81.9073 54.427 81.422 54.6137 80.974C54.8097 80.5166 55.071 80.1246 55.3977 79.798C55.7337 79.462 56.1257 79.2006 56.5737 79.014C57.031 78.818 57.521 78.72 58.0437 78.72C58.5664 78.72 59.0517 78.818 59.4997 79.014C59.957 79.2006 60.349 79.462 60.6757 79.798C61.0117 80.1246 61.273 80.5166 61.4597 80.974C61.6557 81.422 61.7537 81.9073 61.7537 82.43C61.7537 82.9526 61.6557 83.4426 61.4597 83.9C61.273 84.348 61.0117 84.74 60.6757 85.076C60.349 85.4026 59.957 85.664 59.4997 85.86C59.0517 86.0466 58.5664 86.14 58.0437 86.14ZM58.0437 84.81C58.361 84.81 58.6504 84.754 58.9117 84.642C59.1824 84.53 59.411 84.3713 59.5977 84.166C59.7937 83.9606 59.943 83.7133 60.0457 83.424C60.1577 83.1253 60.2137 82.794 60.2137 82.43C60.2137 82.066 60.1577 81.7393 60.0457 81.45C59.943 81.1513 59.7937 80.8993 59.5977 80.694C59.411 80.4886 59.1824 80.33 58.9117 80.218C58.6504 80.106 58.361 80.05 58.0437 80.05C57.7264 80.05 57.4324 80.106 57.1617 80.218C56.9004 80.33 56.6717 80.4886 56.4757 80.694C56.289 80.8993 56.1397 81.1513 56.0277 81.45C55.925 81.7393 55.8737 82.066 55.8737 82.43C55.8737 82.794 55.925 83.1253 56.0277 83.424C56.1397 83.7133 56.289 83.9606 56.4757 84.166C56.6717 84.3713 56.9004 84.53 57.1617 84.642C57.4324 84.754 57.7264 84.81 58.0437 84.81Z" fill="#784839"/>
<path d="M63.6415 87.33H68.2615V85.09H68.1915C68.0329 85.286 67.8415 85.4633 67.6175 85.622C67.4309 85.7526 67.1975 85.874 66.9175 85.986C66.6375 86.0886 66.3155 86.14 65.9515 86.14C65.4755 86.14 65.0322 86.0513 64.6215 85.874C64.2202 85.6966 63.8655 85.4493 63.5575 85.132C63.2589 84.8053 63.0209 84.4133 62.8435 83.956C62.6755 83.4986 62.5915 82.99 62.5915 82.43C62.5915 81.87 62.6755 81.3613 62.8435 80.904C63.0209 80.4466 63.2589 80.0593 63.5575 79.742C63.8655 79.4153 64.2202 79.1633 64.6215 78.986C65.0322 78.8086 65.4755 78.72 65.9515 78.72C66.3155 78.72 66.6375 78.776 66.9175 78.888C67.1975 79 67.4309 79.1213 67.6175 79.252C67.8415 79.4106 68.0329 79.588 68.1915 79.784H68.2615V78.86H69.7315V88.66H63.6415V87.33ZM66.2315 84.81C66.8289 84.81 67.3142 84.6093 67.6875 84.208C68.0702 83.7973 68.2615 83.2046 68.2615 82.43C68.2615 81.6553 68.0702 81.0673 67.6875 80.666C67.3142 80.2553 66.8289 80.05 66.2315 80.05C65.5969 80.05 65.0882 80.2553 64.7055 80.666C64.3229 81.0673 64.1315 81.6553 64.1315 82.43C64.1315 83.2046 64.3229 83.7973 64.7055 84.208C65.0882 84.6093 65.5969 84.81 66.2315 84.81Z" fill="#784839"/>
<path d="M71.4061 78.86H72.8761V79.91H72.9461C73.0581 79.7046 73.2074 79.518 73.3941 79.35C73.5527 79.21 73.7534 79.084 73.9961 78.972C74.2481 78.8506 74.5514 78.79 74.9061 78.79H75.7461V80.19H74.8361C74.5561 80.19 74.2947 80.2366 74.0521 80.33C73.8187 80.4233 73.6134 80.554 73.4361 80.722C73.2587 80.89 73.1187 81.0953 73.0161 81.338C72.9227 81.5806 72.8761 81.8513 72.8761 82.15V86H71.4061V78.86Z" fill="#784839"/>
<path d="M79.8011 86.14C79.3251 86.14 78.8818 86.0513 78.4711 85.874C78.0698 85.6966 77.7151 85.4493 77.4071 85.132C77.1085 84.8053 76.8705 84.4133 76.6931 83.956C76.5251 83.4986 76.4411 82.99 76.4411 82.43C76.4411 81.87 76.5251 81.3613 76.6931 80.904C76.8705 80.4466 77.1085 80.0593 77.4071 79.742C77.7151 79.4153 78.0698 79.1633 78.4711 78.986C78.8818 78.8086 79.3251 78.72 79.8011 78.72C80.1651 78.72 80.4871 78.776 80.7671 78.888C81.0471 79 81.2805 79.1213 81.4671 79.252C81.6911 79.4106 81.8825 79.5833 82.0411 79.77H82.1111V78.86H83.5811V86H82.1111V85.02H82.0411C81.8825 85.2253 81.6911 85.412 81.4671 85.58C81.2805 85.72 81.0471 85.8506 80.7671 85.972C80.4871 86.084 80.1651 86.14 79.8011 86.14ZM80.0811 84.81C80.6785 84.81 81.1638 84.6093 81.5371 84.208C81.9198 83.7973 82.1111 83.2046 82.1111 82.43C82.1111 81.6553 81.9198 81.0673 81.5371 80.666C81.1638 80.2553 80.6785 80.05 80.0811 80.05C79.4465 80.05 78.9378 80.2553 78.5551 80.666C78.1725 81.0673 77.9811 81.6553 77.9811 82.43C77.9811 83.2046 78.1725 83.7973 78.5551 84.208C78.9378 84.6093 79.4465 84.81 80.0811 84.81Z" fill="#784839"/>
<path d="M85.2557 78.86H86.7257V79.77H86.7957C86.9543 79.5833 87.1457 79.4106 87.3697 79.252C87.5563 79.1213 87.785 79 88.0557 78.888C88.3357 78.776 88.6623 78.72 89.0357 78.72C89.5117 78.72 89.9503 78.8086 90.3517 78.986C90.7623 79.1633 91.117 79.4153 91.4157 79.742C91.7237 80.0593 91.9617 80.4466 92.1297 80.904C92.307 81.3613 92.3957 81.87 92.3957 82.43C92.3957 82.99 92.307 83.4986 92.1297 83.956C91.9617 84.4133 91.7237 84.8053 91.4157 85.132C91.117 85.4493 90.7623 85.6966 90.3517 85.874C89.9503 86.0513 89.5117 86.14 89.0357 86.14C88.6623 86.14 88.3357 86.0886 88.0557 85.986C87.785 85.874 87.5563 85.7526 87.3697 85.622C87.1457 85.4633 86.9543 85.286 86.7957 85.09H86.7257V88.66H85.2557V78.86ZM88.7557 84.81C89.3903 84.81 89.899 84.6093 90.2817 84.208C90.6643 83.7973 90.8557 83.2046 90.8557 82.43C90.8557 81.6553 90.6643 81.0673 90.2817 80.666C89.899 80.2553 89.3903 80.05 88.7557 80.05C88.1583 80.05 87.6683 80.2553 87.2857 80.666C86.9123 81.0673 86.7257 81.6553 86.7257 82.43C86.7257 83.2046 86.9123 83.7973 87.2857 84.208C87.6683 84.6093 88.1583 84.81 88.7557 84.81Z" fill="#784839"/>
<path d="M93.6502 76.2H95.1202V79.84H95.1902C95.3209 79.6346 95.4935 79.448 95.7082 79.28C95.8949 79.14 96.1235 79.014 96.3942 78.902C96.6742 78.7806 97.0195 78.72 97.4302 78.72C98.3075 78.72 98.9935 78.9766 99.4882 79.49C99.9829 79.994 100.23 80.7406 100.23 81.73V86H98.7602V81.87C98.7602 81.2353 98.6202 80.7733 98.3402 80.484C98.0602 80.1946 97.6402 80.05 97.0802 80.05C96.8002 80.05 96.5389 80.1013 96.2962 80.204C96.0629 80.3066 95.8575 80.4513 95.6802 80.638C95.5029 80.8153 95.3629 81.0346 95.2602 81.296C95.1669 81.548 95.1202 81.8326 95.1202 82.15V86H93.6502V76.2Z" fill="#784839"/>
<path d="M7.57973 80.89L4.35973 76.2H6.24973L8.97973 80.26H10.3097V76.2H11.9197V80.26H13.2497L15.9797 76.2H17.8697L14.6497 80.89L18.0097 86H16.0497L13.3197 81.8H11.9197V86H10.3097V81.8H8.90973L6.17973 86H4.21973L7.57973 80.89Z" stroke="#E0DCD5" stroke-width="4" mask="url(#path-4-outside-2_130_861)"/>
<path d="M19.1281 76.2H20.7381V80.26H22.3481L25.2881 76.2H27.1781L23.7481 80.89L27.3181 86H25.3581L22.4181 81.8H20.7381V86H19.1281V76.2Z" stroke="#E0DCD5" stroke-width="4" mask="url(#path-4-outside-2_130_861)"/>
<path d="M33.6203 76.2H37.6103L40.2003 86H38.5203L37.8483 83.48H33.3403L32.7103 86H31.1003L33.6203 76.2ZM37.4563 81.94L36.3503 77.74H34.8103L33.7603 81.94H37.4563Z" stroke="#E0DCD5" stroke-width="4" mask="url(#path-4-outside-2_130_861)"/>
<path d="M44.0459 86.14C43.1686 86.14 42.4826 85.888 41.9879 85.384C41.4932 84.8706 41.2459 84.1193 41.2459 83.13V78.86H42.7159V82.99C42.7159 83.6246 42.8559 84.0866 43.1359 84.376C43.4159 84.6653 43.8359 84.81 44.3959 84.81C44.6759 84.81 44.9326 84.7586 45.1659 84.656C45.4086 84.5533 45.6186 84.4133 45.7959 84.236C45.9732 84.0493 46.1086 83.83 46.2019 83.578C46.3046 83.3166 46.3559 83.0273 46.3559 82.71V78.86H47.8259V86H46.3559V85.02H46.2859C46.1552 85.2253 45.9826 85.412 45.7679 85.58C45.5812 85.72 45.3479 85.8506 45.0679 85.972C44.7879 86.084 44.4472 86.14 44.0459 86.14Z" stroke="#E0DCD5" stroke-width="4" mask="url(#path-4-outside-2_130_861)"/>
<path d="M49.7837 80.19H48.9437V78.86H49.7837V77.32H51.2537V78.86H53.4237V80.19H51.2537V84.67H53.4937V86H49.7837V80.19Z" stroke="#E0DCD5" stroke-width="4" mask="url(#path-4-outside-2_130_861)"/>
<path d="M58.0437 86.14C57.521 86.14 57.031 86.0466 56.5737 85.86C56.1257 85.664 55.7337 85.4026 55.3977 85.076C55.071 84.74 54.8097 84.348 54.6137 83.9C54.427 83.4426 54.3337 82.9526 54.3337 82.43C54.3337 81.9073 54.427 81.422 54.6137 80.974C54.8097 80.5166 55.071 80.1246 55.3977 79.798C55.7337 79.462 56.1257 79.2006 56.5737 79.014C57.031 78.818 57.521 78.72 58.0437 78.72C58.5664 78.72 59.0517 78.818 59.4997 79.014C59.957 79.2006 60.349 79.462 60.6757 79.798C61.0117 80.1246 61.273 80.5166 61.4597 80.974C61.6557 81.422 61.7537 81.9073 61.7537 82.43C61.7537 82.9526 61.6557 83.4426 61.4597 83.9C61.273 84.348 61.0117 84.74 60.6757 85.076C60.349 85.4026 59.957 85.664 59.4997 85.86C59.0517 86.0466 58.5664 86.14 58.0437 86.14ZM58.0437 84.81C58.361 84.81 58.6504 84.754 58.9117 84.642C59.1824 84.53 59.411 84.3713 59.5977 84.166C59.7937 83.9606 59.943 83.7133 60.0457 83.424C60.1577 83.1253 60.2137 82.794 60.2137 82.43C60.2137 82.066 60.1577 81.7393 60.0457 81.45C59.943 81.1513 59.7937 80.8993 59.5977 80.694C59.411 80.4886 59.1824 80.33 58.9117 80.218C58.6504 80.106 58.361 80.05 58.0437 80.05C57.7264 80.05 57.4324 80.106 57.1617 80.218C56.9004 80.33 56.6717 80.4886 56.4757 80.694C56.289 80.8993 56.1397 81.1513 56.0277 81.45C55.925 81.7393 55.8737 82.066 55.8737 82.43C55.8737 82.794 55.925 83.1253 56.0277 83.424C56.1397 83.7133 56.289 83.9606 56.4757 84.166C56.6717 84.3713 56.9004 84.53 57.1617 84.642C57.4324 84.754 57.7264 84.81 58.0437 84.81Z" stroke="#E0DCD5" stroke-width="4" mask="url(#path-4-outside-2_130_861)"/>
<path d="M63.6415 87.33H68.2615V85.09H68.1915C68.0329 85.286 67.8415 85.4633 67.6175 85.622C67.4309 85.7526 67.1975 85.874 66.9175 85.986C66.6375 86.0886 66.3155 86.14 65.9515 86.14C65.4755 86.14 65.0322 86.0513 64.6215 85.874C64.2202 85.6966 63.8655 85.4493 63.5575 85.132C63.2589 84.8053 63.0209 84.4133 62.8435 83.956C62.6755 83.4986 62.5915 82.99 62.5915 82.43C62.5915 81.87 62.6755 81.3613 62.8435 80.904C63.0209 80.4466 63.2589 80.0593 63.5575 79.742C63.8655 79.4153 64.2202 79.1633 64.6215 78.986C65.0322 78.8086 65.4755 78.72 65.9515 78.72C66.3155 78.72 66.6375 78.776 66.9175 78.888C67.1975 79 67.4309 79.1213 67.6175 79.252C67.8415 79.4106 68.0329 79.588 68.1915 79.784H68.2615V78.86H69.7315V88.66H63.6415V87.33ZM66.2315 84.81C66.8289 84.81 67.3142 84.6093 67.6875 84.208C68.0702 83.7973 68.2615 83.2046 68.2615 82.43C68.2615 81.6553 68.0702 81.0673 67.6875 80.666C67.3142 80.2553 66.8289 80.05 66.2315 80.05C65.5969 80.05 65.0882 80.2553 64.7055 80.666C64.3229 81.0673 64.1315 81.6553 64.1315 82.43C64.1315 83.2046 64.3229 83.7973 64.7055 84.208C65.0882 84.6093 65.5969 84.81 66.2315 84.81Z" stroke="#E0DCD5" stroke-width="4" mask="url(#path-4-outside-2_130_861)"/>
<path d="M71.4061 78.86H72.8761V79.91H72.9461C73.0581 79.7046 73.2074 79.518 73.3941 79.35C73.5527 79.21 73.7534 79.084 73.9961 78.972C74.2481 78.8506 74.5514 78.79 74.9061 78.79H75.7461V80.19H74.8361C74.5561 80.19 74.2947 80.2366 74.0521 80.33C73.8187 80.4233 73.6134 80.554 73.4361 80.722C73.2587 80.89 73.1187 81.0953 73.0161 81.338C72.9227 81.5806 72.8761 81.8513 72.8761 82.15V86H71.4061V78.86Z" stroke="#E0DCD5" stroke-width="4" mask="url(#path-4-outside-2_130_861)"/>
<path d="M79.8011 86.14C79.3251 86.14 78.8818 86.0513 78.4711 85.874C78.0698 85.6966 77.7151 85.4493 77.4071 85.132C77.1085 84.8053 76.8705 84.4133 76.6931 83.956C76.5251 83.4986 76.4411 82.99 76.4411 82.43C76.4411 81.87 76.5251 81.3613 76.6931 80.904C76.8705 80.4466 77.1085 80.0593 77.4071 79.742C77.7151 79.4153 78.0698 79.1633 78.4711 78.986C78.8818 78.8086 79.3251 78.72 79.8011 78.72C80.1651 78.72 80.4871 78.776 80.7671 78.888C81.0471 79 81.2805 79.1213 81.4671 79.252C81.6911 79.4106 81.8825 79.5833 82.0411 79.77H82.1111V78.86H83.5811V86H82.1111V85.02H82.0411C81.8825 85.2253 81.6911 85.412 81.4671 85.58C81.2805 85.72 81.0471 85.8506 80.7671 85.972C80.4871 86.084 80.1651 86.14 79.8011 86.14ZM80.0811 84.81C80.6785 84.81 81.1638 84.6093 81.5371 84.208C81.9198 83.7973 82.1111 83.2046 82.1111 82.43C82.1111 81.6553 81.9198 81.0673 81.5371 80.666C81.1638 80.2553 80.6785 80.05 80.0811 80.05C79.4465 80.05 78.9378 80.2553 78.5551 80.666C78.1725 81.0673 77.9811 81.6553 77.9811 82.43C77.9811 83.2046 78.1725 83.7973 78.5551 84.208C78.9378 84.6093 79.4465 84.81 80.0811 84.81Z" stroke="#E0DCD5" stroke-width="4" mask="url(#path-4-outside-2_130_861)"/>
<path d="M85.2557 78.86H86.7257V79.77H86.7957C86.9543 79.5833 87.1457 79.4106 87.3697 79.252C87.5563 79.1213 87.785 79 88.0557 78.888C88.3357 78.776 88.6623 78.72 89.0357 78.72C89.5117 78.72 89.9503 78.8086 90.3517 78.986C90.7623 79.1633 91.117 79.4153 91.4157 79.742C91.7237 80.0593 91.9617 80.4466 92.1297 80.904C92.307 81.3613 92.3957 81.87 92.3957 82.43C92.3957 82.99 92.307 83.4986 92.1297 83.956C91.9617 84.4133 91.7237 84.8053 91.4157 85.132C91.117 85.4493 90.7623 85.6966 90.3517 85.874C89.9503 86.0513 89.5117 86.14 89.0357 86.14C88.6623 86.14 88.3357 86.0886 88.0557 85.986C87.785 85.874 87.5563 85.7526 87.3697 85.622C87.1457 85.4633 86.9543 85.286 86.7957 85.09H86.7257V88.66H85.2557V78.86ZM88.7557 84.81C89.3903 84.81 89.899 84.6093 90.2817 84.208C90.6643 83.7973 90.8557 83.2046 90.8557 82.43C90.8557 81.6553 90.6643 81.0673 90.2817 80.666C89.899 80.2553 89.3903 80.05 88.7557 80.05C88.1583 80.05 87.6683 80.2553 87.2857 80.666C86.9123 81.0673 86.7257 81.6553 86.7257 82.43C86.7257 83.2046 86.9123 83.7973 87.2857 84.208C87.6683 84.6093 88.1583 84.81 88.7557 84.81Z" stroke="#E0DCD5" stroke-width="4" mask="url(#path-4-outside-2_130_861)"/>
<path d="M93.6502 76.2H95.1202V79.84H95.1902C95.3209 79.6346 95.4935 79.448 95.7082 79.28C95.8949 79.14 96.1235 79.014 96.3942 78.902C96.6742 78.7806 97.0195 78.72 97.4302 78.72C98.3075 78.72 98.9935 78.9766 99.4882 79.49C99.9829 79.994 100.23 80.7406 100.23 81.73V86H98.7602V81.87C98.7602 81.2353 98.6202 80.7733 98.3402 80.484C98.0602 80.1946 97.6402 80.05 97.0802 80.05C96.8002 80.05 96.5389 80.1013 96.2962 80.204C96.0629 80.3066 95.8575 80.4513 95.6802 80.638C95.5029 80.8153 95.3629 81.0346 95.2602 81.296C95.1669 81.548 95.1202 81.8326 95.1202 82.15V86H93.6502V76.2Z" stroke="#E0DCD5" stroke-width="4" mask="url(#path-4-outside-2_130_861)"/>
</svg>
