<svg width="118" height="24" viewBox="0 0 118 24" fill="none" xmlns="http://www.w3.org/2000/svg">
<g clip-path="url(#clip0_130_859)">
<path d="M47.3695 6H51.9977L59.3672 23.55H54.2111L52.9786 20.4H46.2628L45.0303 23.55H40L47.3695 6ZM51.5699 16.65L49.6333 11.725L47.6715 16.65H51.5699Z" fill="#D8D1C9"/>
<path d="M62.7188 6.2749H67.5226V13.3499L73.4839 6.2749H79.1684L72.6037 13.7499L79.3949 23.725H73.66L69.2835 17.2499L67.5226 19.1999V23.725H62.7188V6.2749Z" fill="#D8D1C9"/>
<path d="M88.7504 6.1499H93.3789L100.748 23.6999H95.592L94.3594 20.5499H87.6441L86.4116 23.6999H81.3809L88.7504 6.1499ZM92.9512 16.7999L91.0145 11.8749L89.0523 16.7999H92.9512Z" fill="#D8D1C9"/>
<path d="M102.736 21.1001L105.402 17.9001C107.137 19.2751 109.024 20.0001 111.011 20.0001C112.319 20.0001 113.023 19.5501 113.023 18.8001V18.7501C113.023 18.0001 112.444 17.6251 110.08 17.0501C106.383 16.2001 103.541 15.1501 103.541 11.6002V11.5501C103.541 8.30015 106.081 5.9751 110.256 5.9751C113.199 5.9751 115.514 6.77511 117.374 8.30016L114.985 11.7001C113.401 10.5502 111.665 9.97512 110.131 9.97512C108.974 9.97512 108.395 10.4501 108.395 11.1001V11.1502C108.395 11.9501 108.999 12.3001 111.413 12.8501C115.362 13.7251 117.852 15.0251 117.852 18.2751V18.3251C117.852 21.8751 115.06 24.0001 110.86 24.0001C107.792 24.0001 104.899 23.0251 102.736 21.1001Z" fill="#D8D1C9"/>
<path d="M14.3506 0L14.3757 0.025V0H14.3506Z" fill="#D8D1C9"/>
<path d="M21.4689 0H21.4438H14.376V0.025L17.8973 6.07502L28.2097 23.75H35.2776L21.4689 0Z" fill="#D8D1C9"/>
<path d="M17.4436 6.8999L27.2279 23.7499H20.16L13.8971 12.9999L10.3506 6.92487L17.4436 6.8999Z" fill="#D8D1C9"/>
<path d="M13.4198 13.8252L19.1797 23.7502H12.1119L9.87327 19.9003L7.63473 23.7502H0.516602L6.32681 13.8252H13.4198Z" fill="#D8D1C9"/>
</g>
<defs>
<clipPath id="clip0_130_859">
<rect width="117.484" height="24" fill="white" transform="translate(0.516602)"/>
</clipPath>
</defs>
</svg>
