<svg width="58" height="41" viewBox="0 0 58 41" fill="none" xmlns="http://www.w3.org/2000/svg">
<path fill-rule="evenodd" clip-rule="evenodd" d="M25.8655 39.4402C23.287 38.8588 22.2431 37.7968 22.3604 36.4005C22.4654 35.1529 23.6369 33.7168 25.5303 32.1871C29.3872 29.0716 36.4078 25.3639 43.3506 22.0943C38.4631 23.524 33.5835 25.1881 28.5262 27.1677C21.0838 30.0821 13.2652 33.6763 4.47359 38.2088L1 40L3.82612 37.2533C11.6815 29.6188 18.2621 22.9768 23.6851 17.5032C35.1995 5.88248 41.5701 -0.54673 44.0349 0.0365145C45.5109 0.386281 45.6798 2.59846 44.7165 6.92456C44.216 9.1701 42.0574 17.1561 41.1029 18.7211C41.4257 17.011 41.8063 15.0801 42.2534 12.9229C42.6472 11.019 43.0951 8.93301 43.6009 6.66044C44.3918 3.1141 44.4723 1.35084 43.7794 1.18678C41.9218 0.746864 35.7122 7.01471 24.4865 18.3442C19.6996 23.1761 14.0124 28.9157 7.36533 35.4242C14.8401 31.6705 21.628 28.6074 28.1229 26.0643C35.595 23.1382 42.6927 20.8963 50.0135 19.078L56.6736 17.4248L50.3696 20.194C41.767 23.973 31.2351 29.0752 26.2338 33.1156C24.588 34.4443 23.5774 35.6108 23.5031 36.5023C23.4401 37.2442 24.2188 37.8599 26.1069 38.2854C30.4529 39.2662 39.9287 38.9579 57 36.5808C47.9293 39.4393 30.3855 40.4606 25.8655 39.4402Z" fill="#BD8D6A" stroke="#BD8D6A" stroke-width="0.9"/>
</svg>
