<svg width="132" height="86" viewBox="0 0 132 86" fill="none" xmlns="http://www.w3.org/2000/svg">
<g clip-path="url(#clip0_130_857)">
<path fill-rule="evenodd" clip-rule="evenodd" d="M62.8655 39.4402C60.287 38.8588 59.2431 37.7968 59.3604 36.4005C59.4654 35.1529 60.6369 33.7168 62.5303 32.1871C66.3872 29.0716 73.4078 25.3639 80.3506 22.0943C75.4631 23.524 70.5835 25.1881 65.5262 27.1677C58.0838 30.0821 50.2652 33.6763 41.4736 38.2088L38 40L40.8261 37.2533C48.6815 29.6188 55.2621 22.9768 60.6851 17.5032C72.1995 5.88248 78.5701 -0.54673 81.0349 0.0365145C82.5109 0.386281 82.6798 2.59846 81.7165 6.92456C81.216 9.1701 79.0574 17.1561 78.1029 18.7211C78.4257 17.011 78.8063 15.0801 79.2534 12.9229C79.6472 11.019 80.0951 8.93301 80.6009 6.66044C81.3918 3.1141 81.4723 1.35084 80.7794 1.18678C78.9218 0.746864 72.7122 7.01471 61.4865 18.3442C56.6996 23.1761 51.0124 28.9157 44.3653 35.4242C51.8401 31.6705 58.628 28.6074 65.1229 26.0643C72.595 23.1382 79.6927 20.8963 87.0135 19.078L93.6736 17.4248L87.3696 20.194C78.767 23.973 68.2351 29.0752 63.2338 33.1156C61.588 34.4443 60.5774 35.6108 60.5031 36.5023C60.4401 37.2442 61.2188 37.8599 63.1069 38.2854C67.4529 39.2662 76.9287 38.9579 94 36.5808C84.9293 39.4393 67.3855 40.4606 62.8655 39.4402Z" fill="#BD8D6A" stroke="#BD8D6A" stroke-width="0.9"/>
<path fill-rule="evenodd" clip-rule="evenodd" d="M46.3043 62.5181C46.3043 64.5144 46.6777 66.0479 47.426 67.1194C48.1735 68.1902 49.1612 68.7259 50.3891 68.7259C51.6162 68.7259 52.6015 68.1902 53.3427 67.1194C54.0838 66.0479 54.4548 64.5144 54.4548 62.5181C54.4548 60.51 54.0838 58.967 53.3427 57.8899C52.6015 56.8128 51.6162 56.2738 50.3891 56.2738C49.1612 56.2738 48.1735 56.8128 47.426 57.8899C46.6777 58.967 46.3043 60.51 46.3043 62.5181ZM44.2441 62.4999C44.2441 60.5282 44.8093 58.9519 45.9397 57.7708C47.07 56.5905 48.5532 56 50.3891 56C52.2123 56 53.6923 56.5905 54.829 57.7708C55.9657 58.9519 56.5341 60.5282 56.5341 62.4999C56.5341 64.4842 55.9657 66.0629 54.829 67.2377C53.6923 68.4124 52.2123 68.9998 50.3891 68.9998C48.5532 68.9998 47.07 68.4124 45.9397 67.2377C44.8093 66.0629 44.2441 64.4842 44.2441 62.4999ZM25.6732 56.6024V64.1428C25.6732 65.6398 25.2142 66.8241 24.2963 67.6948C23.3783 68.5647 22.1718 68.9997 20.6768 68.9997C19.1699 68.9997 17.9539 68.5616 17.0296 67.6853C16.1061 66.809 15.6439 65.6287 15.6439 64.1428V56.6389L14.4589 56.292V56.1095H18.7989V56.292L17.6138 56.6389V64.1428C17.6138 65.4573 17.9626 66.4772 18.6618 67.2011C19.3609 67.9258 20.2757 68.2877 21.4061 68.2877C22.561 68.2877 23.5004 67.9162 24.2233 67.1741C24.9463 66.432 25.3085 65.4215 25.3085 64.1428V56.6024L24.1235 56.2738V56.1095H26.8583V56.2738L25.6732 56.6024ZM6.07208 58.1178L3.41019 64.2709H8.58889L6.07208 58.1178ZM7.18423 56.1097L12.3082 68.361L13.4751 68.7078V68.8904H9.08116V68.7078L10.2845 68.361L8.75298 64.6542H3.2461L1.64089 68.361L3.2461 68.7078V68.8904H0V68.7078L1.23978 68.361L6.58257 56.1097H7.18423ZM36.7246 56.4746H40.1348L40.9735 58.355H41.2835V56.1095H30.215V58.355H30.5075L31.3644 56.4746H34.7556V68.3608L33.5705 68.7077V68.8902H37.9105V68.7077L36.7246 68.3608V56.4746ZM71.2674 68.2325V63.2851L72.3978 62.9565V62.774H68.1315V62.9565L69.3166 63.2851V67.7213C68.5992 68.2698 67.6994 68.5436 66.6174 68.5436C65.1588 68.5436 64.0403 67.9983 63.2627 66.9093C62.4843 65.8203 62.0958 64.3622 62.0958 62.5366C62.0958 60.5404 62.4938 59.022 63.2896 57.9814C64.0863 56.94 65.2016 56.4201 66.6356 56.4201C67.0003 56.4201 67.3649 56.4566 67.7304 56.5297C68.095 56.6027 68.4929 56.7337 68.9242 56.9218C69.3554 57.1107 69.7359 57.4123 70.0641 57.8258C70.3922 58.2402 70.6229 58.745 70.7569 59.3411H71.0668V56.8218L70.8845 56.6392L70.1005 57.0956C69.1398 56.3654 67.8699 56.0002 66.2892 56.0002C64.3931 56.0002 62.8767 56.5844 61.7399 57.7528C60.6032 58.9212 60.0348 60.5039 60.0348 62.5001C60.0348 64.5083 60.6064 66.0941 61.7494 67.2562C62.8917 68.419 64.4296 69 66.3622 69C67.7724 69 68.9939 68.6833 70.0276 68.0507L71.0304 68.4706L71.2674 68.2325ZM80.6415 56.4746H78.5631V62.6277H80.6415C81.4683 62.6277 82.1334 62.3665 82.6383 61.8427C83.1425 61.3196 83.3946 60.5584 83.3946 59.5607C83.3946 58.5622 83.1425 57.7986 82.6383 57.2692C82.1334 56.7398 81.4683 56.4746 80.6415 56.4746ZM85.4009 59.5789C85.4009 60.4798 85.1028 61.2251 84.5075 61.8157C83.9114 62.4062 83.1092 62.7682 82.1001 62.9015C82.5377 63.0602 82.957 63.4984 83.3581 64.2159L85.7655 68.4156L86.823 68.7077V68.8902H83.997L80.678 62.9928H78.5631V68.3608L79.7482 68.7077V68.8902H75.4081V68.7077L76.5932 68.3608V56.5477L75.4081 56.2738V56.1095H80.8785C82.2396 56.1095 83.3335 56.4175 84.1611 57.0318C84.9871 57.6462 85.4009 58.4955 85.4009 59.5789ZM92.9334 64.2709L95.5953 58.1179L98.1121 64.2709H92.9334ZM101.831 68.361L96.7074 56.1097H96.1058L90.763 68.361L89.5232 68.7078V68.8904H92.7693V68.7078L91.1641 68.361L92.7693 64.6542H98.2762L99.8077 68.361L98.6044 68.7078V68.8904H102.998V68.7078L101.831 68.361ZM110.787 56.4746H109.036V68.3608L110.86 68.7077V68.8902H105.881V68.7077L107.067 68.3608V56.5477L105.881 56.2738V56.1095H111.024C112.482 56.1095 113.662 56.4381 114.561 57.0953C115.46 57.7526 115.911 58.6415 115.911 59.7607C115.911 60.8814 115.46 61.7696 114.561 62.4268C113.662 63.0841 112.482 63.4127 111.024 63.4127H109.547L109.31 63.1753V63.0475H110.787C111.735 63.0475 112.492 62.765 113.057 62.199C113.622 61.6323 113.905 60.8203 113.905 59.7607C113.905 58.7027 113.622 57.8899 113.057 57.3239C112.492 56.758 111.735 56.4746 110.787 56.4746ZM120.293 68.3609L119.108 68.7077V68.8903H123.448V68.7077L122.263 68.3609V62.573H128.864V68.3609L127.678 68.7077V68.8903H132V68.7077L130.815 68.3609V56.639L132 56.2921V56.1096H127.678V56.2921L128.864 56.639V62.1896H122.263V56.639L123.448 56.2921V56.1096H119.108V56.2921L120.293 56.639V68.3609Z" fill="#E3DACF"/>
<path d="M47.426 67.1194L47.508 67.0622L47.5079 67.0622L47.426 67.1194ZM53.3427 67.1194L53.4249 67.1763L53.4249 67.1763L53.3427 67.1194ZM47.426 57.8899L47.5081 57.9469L47.5081 57.9469L47.426 57.8899ZM45.9397 57.7708L45.8674 57.7017L45.8674 57.7017L45.9397 57.7708ZM54.829 57.7708L54.901 57.7015L54.901 57.7014L54.829 57.7708ZM45.9397 67.2377L45.8676 67.307L45.9397 67.2377ZM25.6732 56.6024L25.6465 56.506L25.5732 56.5263V56.6024H25.6732ZM24.2963 67.6948L24.365 67.7674L24.3651 67.7673L24.2963 67.6948ZM17.0296 67.6853L16.9608 67.7578L16.9608 67.7578L17.0296 67.6853ZM15.6439 56.6389H15.7439V56.564L15.672 56.5429L15.6439 56.6389ZM14.4589 56.292H14.3589V56.367L14.4308 56.388L14.4589 56.292ZM14.4589 56.1095V56.0095H14.3589V56.1095H14.4589ZM18.7989 56.1095H18.8989V56.0095H18.7989V56.1095ZM18.7989 56.292L18.827 56.388L18.8989 56.367V56.292H18.7989ZM17.6138 56.6389L17.5857 56.5429L17.5138 56.564V56.6389H17.6138ZM18.6618 67.2011L18.7337 67.1317L18.7337 67.1316L18.6618 67.2011ZM24.2233 67.1741L24.295 67.2439L24.2233 67.1741ZM25.3085 56.6024H25.4085V56.5263L25.3353 56.506L25.3085 56.6024ZM24.1235 56.2738H24.0235V56.3498L24.0967 56.3701L24.1235 56.2738ZM24.1235 56.1095V56.0095H24.0235V56.1095H24.1235ZM26.8583 56.1095H26.9583V56.0095H26.8583V56.1095ZM26.8583 56.2738L26.885 56.3701L26.9583 56.3498V56.2738H26.8583ZM3.41019 64.2709L3.31841 64.2312L3.25797 64.3709H3.41019V64.2709ZM6.07208 58.1178L6.16463 58.08L6.07466 57.86L5.9803 58.0781L6.07208 58.1178ZM8.58889 64.2709V64.3709H8.73784L8.68145 64.233L8.58889 64.2709ZM12.3082 68.361L12.216 68.3996L12.2343 68.4433L12.2797 68.4568L12.3082 68.361ZM7.18423 56.1097L7.27649 56.0711L7.2508 56.0097H7.18423V56.1097ZM13.4751 68.7078H13.5751V68.6332L13.5036 68.612L13.4751 68.7078ZM13.4751 68.8904V68.9904H13.5751V68.8904H13.4751ZM9.08116 68.8904H8.98116V68.9904H9.08116V68.8904ZM9.08116 68.7078L9.05346 68.6117L8.98116 68.6326V68.7078H9.08116ZM10.2845 68.361L10.3122 68.4571L10.4196 68.4261L10.3769 68.3228L10.2845 68.361ZM8.75298 64.6542L8.84541 64.616L8.81987 64.5542H8.75298V64.6542ZM3.2461 64.6542V64.5542H3.18044L3.15434 64.6145L3.2461 64.6542ZM1.64089 68.361L1.54912 68.3212L1.50072 68.433L1.61977 68.4587L1.64089 68.361ZM3.2461 68.7078H3.3461V68.6271L3.26722 68.6101L3.2461 68.7078ZM3.2461 68.8904V68.9904H3.3461V68.8904H3.2461ZM0 68.8904H-0.1V68.9904H0V68.8904ZM0 68.7078L-0.0269429 68.6115L-0.1 68.632V68.7078H0ZM1.23978 68.361L1.26673 68.4573L1.31246 68.4445L1.33145 68.4009L1.23978 68.361ZM6.58257 56.1097V56.0097H6.51709L6.49091 56.0697L6.58257 56.1097ZM40.1348 56.4746L40.2262 56.4339L40.1997 56.3746H40.1348V56.4746ZM36.7246 56.4746V56.3746H36.6246V56.4746H36.7246ZM40.9735 58.355L40.8822 58.3957L40.9086 58.455H40.9735V58.355ZM41.2835 58.355V58.455H41.3834V58.355H41.2835ZM41.2835 56.1095H41.3834V56.0095H41.2835V56.1095ZM30.215 56.1095V56.0095H30.115V56.1095H30.215ZM30.215 58.355H30.115V58.455H30.215V58.355ZM30.5075 58.355V58.455H30.5718L30.5985 58.3965L30.5075 58.355ZM31.3644 56.4746V56.3746H31.3001L31.2734 56.4332L31.3644 56.4746ZM34.7556 56.4746H34.8556V56.3746H34.7556V56.4746ZM34.7556 68.3608L34.7837 68.4568L34.8556 68.4357V68.3608H34.7556ZM33.5705 68.7077L33.5424 68.6117L33.4705 68.6327V68.7077H33.5705ZM33.5705 68.8902H33.4705V68.9902H33.5705V68.8902ZM37.9105 68.8902V68.9902H38.0105V68.8902H37.9105ZM37.9105 68.7077H38.0105V68.6327L37.9386 68.6117L37.9105 68.7077ZM36.7246 68.3608H36.6246V68.4357L36.6966 68.4568L36.7246 68.3608ZM71.2674 63.2851L71.2395 63.1891L71.1674 63.2101V63.2851H71.2674ZM71.2674 68.2325L71.3383 68.303L71.3674 68.2737V68.2325H71.2674ZM72.3978 62.9565L72.4257 63.0525L72.4978 63.0316V62.9565H72.3978ZM72.3978 62.774H72.4978V62.674H72.3978V62.774ZM68.1315 62.774V62.674H68.0315V62.774H68.1315ZM68.1315 62.9565H68.0315V63.0326L68.1047 63.0529L68.1315 62.9565ZM69.3166 63.2851H69.4165V63.2091L69.3433 63.1888L69.3166 63.2851ZM69.3166 67.7213L69.3773 67.8007L69.4165 67.7707V67.7213H69.3166ZM63.2627 66.9093L63.3441 66.8512L63.3441 66.8512L63.2627 66.9093ZM63.2896 57.9814L63.2102 57.9206L63.2102 57.9207L63.2896 57.9814ZM67.7304 56.5297L67.75 56.4316L67.7499 56.4316L67.7304 56.5297ZM68.9242 56.9218L68.9643 56.8302L68.9641 56.8301L68.9242 56.9218ZM70.0641 57.8258L70.1424 57.7637L70.1424 57.7637L70.0641 57.8258ZM70.7569 59.3411L70.6593 59.363L70.6769 59.4411H70.7569V59.3411ZM71.0668 59.3411V59.4411H71.1668V59.3411H71.0668ZM71.0668 56.8218H71.1668V56.7804L71.1376 56.7511L71.0668 56.8218ZM70.8845 56.6392L70.9553 56.5685L70.9008 56.514L70.8342 56.5528L70.8845 56.6392ZM70.1005 57.0956L70.04 57.1752L70.0932 57.2156L70.1508 57.182L70.1005 57.0956ZM61.7399 57.7528L61.8116 57.8225L61.7399 57.7528ZM61.7494 67.2562L61.8208 67.1861L61.8207 67.186L61.7494 67.2562ZM70.0276 68.0507L70.0662 67.9585L70.019 67.9387L69.9754 67.9654L70.0276 68.0507ZM71.0304 68.4706L70.9917 68.5628L71.0538 68.5888L71.1012 68.5411L71.0304 68.4706ZM78.5631 56.4746V56.3746H78.4631V56.4746H78.5631ZM78.5631 62.6277H78.4631V62.7277H78.5631V62.6277ZM82.6383 61.8427L82.7103 61.9121V61.9121L82.6383 61.8427ZM82.6383 57.2692L82.7108 57.2002L82.7107 57.2002L82.6383 57.2692ZM84.5075 61.8157L84.5779 61.8867L84.578 61.8867L84.5075 61.8157ZM82.1001 62.9015L82.087 62.8024L82.066 62.9955L82.1001 62.9015ZM83.3581 64.2159L83.2708 64.2647L83.2714 64.2657L83.3581 64.2159ZM85.7655 68.4156L85.6788 68.4653L85.6992 68.501L85.7389 68.512L85.7655 68.4156ZM86.823 68.7077H86.923V68.6315L86.8496 68.6113L86.823 68.7077ZM86.823 68.8902V68.9902H86.923V68.8902H86.823ZM83.997 68.8902L83.9099 68.9393L83.9386 68.9902H83.997V68.8902ZM80.678 62.9928L80.7651 62.9437L80.7365 62.8928H80.678V62.9928ZM78.5631 62.9928V62.8928H78.4631V62.9928H78.5631ZM78.5631 68.3608H78.4631V68.4357L78.535 68.4568L78.5631 68.3608ZM79.7482 68.7077H79.8482V68.6327L79.7762 68.6117L79.7482 68.7077ZM79.7482 68.8902V68.9902H79.8482V68.8902H79.7482ZM75.4081 68.8902H75.3081V68.9902H75.4081V68.8902ZM75.4081 68.7077L75.38 68.6117L75.3081 68.6327V68.7077H75.4081ZM76.5932 68.3608L76.6213 68.4568L76.6932 68.4357V68.3608H76.5932ZM76.5932 56.5477H76.6932V56.4681L76.6157 56.4502L76.5932 56.5477ZM75.4081 56.2738H75.3081V56.3534L75.3856 56.3713L75.4081 56.2738ZM75.4081 56.1095V56.0095H75.3081V56.1095H75.4081ZM84.1611 57.0318L84.2208 56.9516L84.2207 56.9516L84.1611 57.0318ZM95.5953 58.1179L95.6878 58.08L95.5979 57.86L95.5035 58.0782L95.5953 58.1179ZM92.9334 64.2709L92.8416 64.2312L92.7812 64.3709H92.9334V64.2709ZM98.1121 64.2709V64.3709H98.261L98.2047 64.233L98.1121 64.2709ZM96.7074 56.1097L96.7997 56.0711L96.774 56.0097H96.7074V56.1097ZM101.831 68.361L101.739 68.3996L101.757 68.4433L101.803 68.4568L101.831 68.361ZM96.1058 56.1097V56.0097H96.0403L96.0141 56.0697L96.1058 56.1097ZM90.763 68.361L90.7899 68.4573L90.8357 68.4445L90.8546 68.401L90.763 68.361ZM89.5232 68.7078L89.4963 68.6115L89.4232 68.632V68.7078H89.5232ZM89.5232 68.8904H89.4232V68.9904H89.5232V68.8904ZM92.7693 68.8904V68.9904H92.8693V68.8904H92.7693ZM92.7693 68.7078H92.8693V68.6271L92.7904 68.6101L92.7693 68.7078ZM91.1641 68.361L91.0723 68.3212L91.0239 68.433L91.143 68.4587L91.1641 68.361ZM92.7693 64.6542V64.5542H92.7036L92.6775 64.6145L92.7693 64.6542ZM98.2762 64.6542L98.3686 64.6161L98.3431 64.5542H98.2762V64.6542ZM99.8077 68.361L99.8354 68.4571L99.9428 68.4261L99.9001 68.3228L99.8077 68.361ZM98.6044 68.7078L98.5767 68.6118L98.5044 68.6326V68.7078H98.6044ZM98.6044 68.8904H98.5044V68.9904H98.6044V68.8904ZM102.998 68.8904V68.9904H103.098V68.8904H102.998ZM102.998 68.7078H103.098V68.6332L103.027 68.612L102.998 68.7078ZM109.036 56.4746V56.3746H108.936V56.4746H109.036ZM109.036 68.3608H108.936V68.4436L109.018 68.459L109.036 68.3608ZM110.86 68.7077H110.96V68.6249L110.878 68.6094L110.86 68.7077ZM110.86 68.8902V68.9902H110.96V68.8902H110.86ZM105.881 68.8902H105.781V68.9902H105.881V68.8902ZM105.881 68.7077L105.853 68.6117L105.781 68.6327V68.7077H105.881ZM107.067 68.3608L107.095 68.4568L107.167 68.4357V68.3608H107.067ZM107.067 56.5477H107.167V56.4681L107.089 56.4502L107.067 56.5477ZM105.881 56.2738H105.781V56.3534L105.859 56.3713L105.881 56.2738ZM105.881 56.1095V56.0095H105.781V56.1095H105.881ZM114.561 57.0953L114.621 57.0146L114.62 57.0146L114.561 57.0953ZM114.561 62.4268L114.62 62.5076L114.621 62.5076L114.561 62.4268ZM109.547 63.4127L109.476 63.4833L109.505 63.5127H109.547V63.4127ZM109.31 63.1753H109.21V63.2167L109.239 63.246L109.31 63.1753ZM109.31 63.0475V62.9475H109.21V63.0475H109.31ZM113.057 62.199L113.128 62.2697L113.128 62.2697L113.057 62.199ZM113.057 57.3239L113.128 57.2533L113.057 57.3239ZM119.108 68.7077L119.08 68.6117L119.008 68.6328V68.7077H119.108ZM120.293 68.3609L120.321 68.4568L120.393 68.4358V68.3609H120.293ZM119.108 68.8903H119.008V68.9903H119.108V68.8903ZM123.448 68.8903V68.9903H123.548V68.8903H123.448ZM123.448 68.7077H123.548V68.6328L123.476 68.6117L123.448 68.7077ZM122.263 68.3609H122.163V68.4358L122.235 68.4568L122.263 68.3609ZM122.263 62.573V62.473H122.163V62.573H122.263ZM128.864 62.573H128.964V62.473H128.864V62.573ZM128.864 68.3609L128.892 68.4568L128.964 68.4358V68.3609H128.864ZM127.678 68.7077L127.65 68.6117L127.578 68.6328V68.7077H127.678ZM127.678 68.8903H127.578V68.9903H127.678V68.8903ZM132 68.8903V68.9903H132.1V68.8903H132ZM132 68.7077H132.1V68.6328L132.028 68.6117L132 68.7077ZM130.815 68.3609H130.715V68.4358L130.787 68.4568L130.815 68.3609ZM130.815 56.639L130.787 56.543L130.715 56.5641V56.639H130.815ZM132 56.2921L132.028 56.3881L132.1 56.3671V56.2921H132ZM132 56.1096H132.1V56.0096H132V56.1096ZM127.678 56.1096V56.0096H127.578V56.1096H127.678ZM127.678 56.2921H127.578V56.3671L127.65 56.3881L127.678 56.2921ZM128.864 56.639H128.964V56.5641L128.892 56.543L128.864 56.639ZM128.864 62.1896V62.2896H128.964V62.1896H128.864ZM122.263 62.1896H122.163V62.2896H122.263V62.1896ZM122.263 56.639L122.235 56.543L122.163 56.5641V56.639H122.263ZM123.448 56.2921L123.476 56.3881L123.548 56.3671V56.2921H123.448ZM123.448 56.1096H123.548V56.0096H123.448V56.1096ZM119.108 56.1096V56.0096H119.008V56.1096H119.108ZM119.108 56.2921H119.008V56.3671L119.08 56.3881L119.108 56.2921ZM120.293 56.639H120.393V56.5641L120.321 56.543L120.293 56.639ZM47.5079 67.0622C46.7761 66.0141 46.4043 64.504 46.4043 62.5181H46.2043C46.2043 64.5247 46.5792 66.0816 47.344 67.1767L47.5079 67.0622ZM50.3891 68.6259C49.1963 68.6259 48.2382 68.1081 47.508 67.0622L47.344 67.1766C48.1088 68.2722 49.1261 68.8259 50.3891 68.8259V68.6259ZM53.2605 67.0625C52.5366 68.1082 51.5811 68.6259 50.3891 68.6259V68.8259C51.6513 68.8259 52.6664 68.2721 53.4249 67.1763L53.2605 67.0625ZM54.3548 62.5181C54.3548 64.5041 53.9854 66.0144 53.2604 67.0625L53.4249 67.1763C54.1823 66.0813 54.5548 64.5246 54.5548 62.5181H54.3548ZM53.2603 57.9466C53.9854 59.0003 54.3548 60.5201 54.3548 62.5181H54.5548C54.5548 60.4998 54.1823 58.9337 53.4251 57.8332L53.2603 57.9466ZM50.3891 56.3738C51.5808 56.3738 52.5363 56.8945 53.2603 57.9466L53.4251 57.8332C52.6667 56.7311 51.6515 56.1738 50.3891 56.1738V56.3738ZM47.5081 57.9469C48.2385 56.8946 49.1965 56.3738 50.3891 56.3738V56.1738C49.1259 56.1738 48.1085 56.731 47.3438 57.8329L47.5081 57.9469ZM46.4043 62.5181C46.4043 60.5202 46.7761 59.0005 47.5081 57.9469L47.3438 57.8328C46.5792 58.9334 46.2043 60.4998 46.2043 62.5181H46.4043ZM45.8674 57.7017C44.7157 58.9051 44.1441 60.5081 44.1441 62.4999H44.3441C44.3441 60.5484 44.9029 58.9987 46.0119 57.84L45.8674 57.7017ZM50.3891 55.9C48.5296 55.9 47.0191 56.4992 45.8674 57.7017L46.0119 57.84C47.121 56.6819 48.5768 56.1 50.3891 56.1V55.9ZM54.901 57.7014C53.7432 56.4993 52.2361 55.9 50.3891 55.9V56.1C52.1885 56.1 53.6413 56.6818 54.757 57.8402L54.901 57.7014ZM56.6341 62.4999C56.6341 60.508 56.0592 58.9048 54.901 57.7015L54.7569 57.8402C55.8722 58.9989 56.4341 60.5485 56.4341 62.4999H56.6341ZM54.9008 67.3072C56.0593 66.11 56.6341 64.5043 56.6341 62.4999H56.4341C56.4341 64.4641 55.8721 66.0159 54.7571 67.1681L54.9008 67.3072ZM50.3891 69.0998C52.2359 69.0998 53.743 68.5037 54.9008 67.3072L54.7571 67.1681C53.6415 68.321 52.1886 68.8998 50.3891 68.8998V69.0998ZM45.8676 67.307C47.0193 68.5039 48.5298 69.0998 50.3891 69.0998V68.8998C48.5766 68.8998 47.1208 68.3209 46.0117 67.1683L45.8676 67.307ZM44.1441 62.4999C44.1441 64.5041 44.7155 66.1098 45.8676 67.307L46.0117 67.1683C44.903 66.0161 44.3441 64.4643 44.3441 62.4999H44.1441ZM25.7732 64.1428V56.6024H25.5732V64.1428H25.7732ZM24.3651 67.7673C25.3066 66.8743 25.7732 65.6618 25.7732 64.1428H25.5732C25.5732 65.6178 25.1218 66.7739 24.2274 67.6222L24.3651 67.7673ZM20.6768 69.0997C22.1924 69.0997 23.4252 68.6581 24.365 67.7674L24.2275 67.6222C23.3314 68.4714 22.1512 68.8997 20.6768 68.8997V69.0997ZM16.9608 67.7578C17.907 68.6549 19.1493 69.0997 20.6768 69.0997V68.8997C19.1905 68.8997 18.0008 68.4682 17.0984 67.6127L16.9608 67.7578ZM15.5439 64.1428C15.5439 65.6512 16.014 66.8595 16.9608 67.7578L17.0984 67.6127C16.1981 66.7585 15.7439 65.6062 15.7439 64.1428H15.5439ZM15.5439 56.6389V64.1428H15.7439V56.6389H15.5439ZM14.4308 56.388L15.6159 56.7349L15.672 56.5429L14.487 56.1961L14.4308 56.388ZM14.3589 56.1095V56.292H14.5589V56.1095H14.3589ZM18.7989 56.0095H14.4589V56.2095H18.7989V56.0095ZM18.8989 56.292V56.1095H18.6989V56.292H18.8989ZM17.6419 56.7349L18.827 56.388L18.7708 56.1961L17.5857 56.5429L17.6419 56.7349ZM17.7138 64.1428V56.6389H17.5138V64.1428H17.7138ZM18.7337 67.1316C18.0576 66.4316 17.7138 65.4396 17.7138 64.1428H17.5138C17.5138 65.4749 17.8676 66.5228 18.5898 67.2706L18.7337 67.1316ZM21.4061 68.1877C20.2992 68.1877 19.4116 67.8343 18.7337 67.1317L18.5898 67.2705C19.3102 68.0172 20.2522 68.3877 21.4061 68.3877V68.1877ZM24.1517 67.1043C23.4498 67.8248 22.5375 68.1877 21.4061 68.1877V68.3877C22.5846 68.3877 23.551 68.0076 24.295 67.2439L24.1517 67.1043ZM25.2085 64.1428C25.2085 65.4019 24.8524 66.385 24.1517 67.1043L24.295 67.2439C25.0401 66.4789 25.4085 65.4412 25.4085 64.1428H25.2085ZM25.2085 56.6024V64.1428H25.4085V56.6024H25.2085ZM24.0967 56.3701L25.2818 56.6987L25.3353 56.506L24.1502 56.1774L24.0967 56.3701ZM24.0235 56.1095V56.2738H24.2235V56.1095H24.0235ZM26.8583 56.0095H24.1235V56.2095H26.8583V56.0095ZM26.9583 56.2738V56.1095H26.7583V56.2738H26.9583ZM25.6999 56.6987L26.885 56.3701L26.8315 56.1774L25.6465 56.506L25.6999 56.6987ZM3.50197 64.3106L6.16386 58.1575L5.9803 58.0781L3.31841 64.2312L3.50197 64.3106ZM8.58889 64.1709H3.41019V64.3709H8.58889V64.1709ZM5.97952 58.1557L8.49634 64.3087L8.68145 64.233L6.16463 58.08L5.97952 58.1557ZM12.4005 68.3224L7.27649 56.0711L7.09198 56.1483L12.216 68.3996L12.4005 68.3224ZM13.5036 68.612L12.3367 68.2651L12.2797 68.4568L13.4466 68.8037L13.5036 68.612ZM13.5751 68.8904V68.7078H13.3751V68.8904H13.5751ZM9.08116 68.9904H13.4751V68.7904H9.08116V68.9904ZM8.98116 68.7078V68.8904H9.18116V68.7078H8.98116ZM10.2568 68.2649L9.05346 68.6117L9.10886 68.8039L10.3122 68.4571L10.2568 68.2649ZM8.66056 64.6924L10.1921 68.3992L10.3769 68.3228L8.84541 64.616L8.66056 64.6924ZM3.2461 64.7542H8.75298V64.5542H3.2461V64.7542ZM1.73265 68.4007L3.33787 64.694L3.15434 64.6145L1.54912 68.3212L1.73265 68.4007ZM3.26722 68.6101L1.66201 68.2632L1.61977 68.4587L3.22498 68.8056L3.26722 68.6101ZM3.3461 68.8904V68.7078H3.1461V68.8904H3.3461ZM0 68.9904H3.2461V68.7904H0V68.9904ZM-0.1 68.7078V68.8904H0.1V68.7078H-0.1ZM1.21284 68.2647L-0.0269429 68.6115L0.0269429 68.8041L1.26673 68.4573L1.21284 68.2647ZM6.49091 56.0697L1.14812 68.321L1.33145 68.4009L6.67424 56.1497L6.49091 56.0697ZM7.18423 56.0097H6.58257V56.2097H7.18423V56.0097ZM40.1348 56.3746H36.7246V56.5746H40.1348V56.3746ZM41.0648 58.3143L40.2262 56.4339L40.0435 56.5154L40.8822 58.3957L41.0648 58.3143ZM41.2835 58.255H40.9735V58.455H41.2835V58.255ZM41.1835 56.1095V58.355H41.3834V56.1095H41.1835ZM30.215 56.2095H41.2835V56.0095H30.215V56.2095ZM30.315 58.355V56.1095H30.115V58.355H30.315ZM30.5075 58.255H30.215V58.455H30.5075V58.255ZM31.2734 56.4332L30.4165 58.3135L30.5985 58.3965L31.4554 56.5161L31.2734 56.4332ZM34.7556 56.3746H31.3644V56.5746H34.7556V56.3746ZM34.8556 68.3608V56.4746H34.6556V68.3608H34.8556ZM33.5986 68.8036L34.7837 68.4568L34.7275 68.2648L33.5424 68.6117L33.5986 68.8036ZM33.6705 68.8902V68.7077H33.4705V68.8902H33.6705ZM37.9105 68.7902H33.5705V68.9902H37.9105V68.7902ZM37.8105 68.7077V68.8902H38.0105V68.7077H37.8105ZM36.6966 68.4568L37.8824 68.8036L37.9386 68.6117L36.7527 68.2648L36.6966 68.4568ZM36.6246 56.4746V68.3608H36.8246V56.4746H36.6246ZM71.1674 63.2851V68.2325H71.3674V63.2851H71.1674ZM72.3699 62.8605L71.2395 63.1891L71.2953 63.3812L72.4257 63.0525L72.3699 62.8605ZM72.2978 62.774V62.9565H72.4978V62.774H72.2978ZM68.1315 62.874H72.3978V62.674H68.1315V62.874ZM68.2315 62.9565V62.774H68.0315V62.9565H68.2315ZM69.3433 63.1888L68.1582 62.8602L68.1047 63.0529L69.2898 63.3815L69.3433 63.1888ZM69.4165 67.7213V63.2851H69.2166V67.7213H69.4165ZM66.6174 68.6436C67.7169 68.6436 68.6392 68.3651 69.3773 67.8007L69.2558 67.6419C68.5591 68.1745 67.682 68.4436 66.6174 68.4436V68.6436ZM63.1813 66.9674C63.9796 68.0853 65.1299 68.6436 66.6174 68.6436V68.4436C65.1878 68.4436 64.1011 67.9113 63.3441 66.8512L63.1813 66.9674ZM61.9958 62.5366C61.9958 64.3756 62.3871 65.8563 63.1813 66.9675L63.3441 66.8512C62.5815 65.7843 62.1958 64.3489 62.1958 62.5366H61.9958ZM63.2102 57.9207C62.3956 58.9857 61.9958 60.5293 61.9958 62.5366H62.1958C62.1958 60.5515 62.5919 59.0583 63.3691 58.0422L63.2102 57.9207ZM66.6356 56.3201C65.1739 56.3201 64.0278 56.8519 63.2102 57.9206L63.3691 58.0422C64.1448 57.0281 65.2294 56.5201 66.6356 56.5201V56.3201ZM67.7499 56.4316C67.3782 56.3573 67.007 56.3201 66.6356 56.3201V56.5201C66.9936 56.5201 67.3516 56.556 67.7108 56.6277L67.7499 56.4316ZM68.9641 56.8301C68.5281 56.6399 68.1232 56.5064 67.75 56.4316L67.7107 56.6277C68.0668 56.699 68.4578 56.8274 68.8842 57.0134L68.9641 56.8301ZM70.1424 57.7637C69.8053 57.3389 69.4122 57.0264 68.9643 56.8302L68.884 57.0134C69.2986 57.195 69.6665 57.4857 69.9857 57.888L70.1424 57.7637ZM70.8544 59.3191C70.7177 58.7107 70.4813 58.1916 70.1424 57.7637L69.9857 57.8879C70.3032 58.2887 70.5281 58.7793 70.6593 59.363L70.8544 59.3191ZM71.0668 59.2411H70.7569V59.4411H71.0668V59.2411ZM70.9668 56.8218V59.3411H71.1668V56.8218H70.9668ZM70.8138 56.7099L70.9961 56.8924L71.1376 56.7511L70.9553 56.5685L70.8138 56.7099ZM70.1508 57.182L70.9348 56.7256L70.8342 56.5528L70.0502 57.0092L70.1508 57.182ZM66.2892 56.1002C67.8548 56.1002 69.1014 56.4618 70.04 57.1752L70.161 57.016C69.1782 56.2689 67.885 55.9002 66.2892 55.9002V56.1002ZM61.8116 57.8225C62.9264 56.6767 64.4153 56.1002 66.2892 56.1002V55.9002C64.3709 55.9002 62.8269 56.4922 61.6683 57.6831L61.8116 57.8225ZM60.1348 62.5001C60.1348 60.5237 60.6969 58.9682 61.8116 57.8225L61.6683 57.6831C60.5095 58.8741 59.9348 60.484 59.9348 62.5001H60.1348ZM61.8207 67.186C60.7001 66.0469 60.1348 64.4885 60.1348 62.5001H59.9348C59.9348 64.528 60.5126 66.1414 61.6782 67.3263L61.8207 67.186ZM66.3622 68.9C64.451 68.9 62.9408 68.3262 61.8208 67.1861L61.6781 67.3263C62.8427 68.5117 64.4081 69.1 66.3622 69.1V68.9ZM69.9754 67.9654C68.9598 68.5869 67.757 68.9 66.3622 68.9V69.1C67.7878 69.1 69.028 68.7797 70.0798 68.136L69.9754 67.9654ZM71.069 68.3783L70.0662 67.9585L69.989 68.1429L70.9917 68.5628L71.069 68.3783ZM71.1965 68.1619L70.9595 68.4L71.1012 68.5411L71.3383 68.303L71.1965 68.1619ZM78.5631 56.5746H80.6415V56.3746H78.5631V56.5746ZM78.6631 62.6277V56.4746H78.4631V62.6277H78.6631ZM80.6415 62.5277H78.5631V62.7277H80.6415V62.5277ZM82.5663 61.7733C82.0829 62.2748 81.4453 62.5277 80.6415 62.5277V62.7277C81.4914 62.7277 82.1839 62.4582 82.7103 61.9121L82.5663 61.7733ZM83.2946 59.5607C83.2946 60.5424 83.0467 61.2749 82.5663 61.7733L82.7103 61.9121C83.2383 61.3643 83.4946 60.5744 83.4946 59.5607H83.2946ZM82.5659 57.3381C83.0467 57.843 83.2946 58.5783 83.2946 59.5607H83.4946C83.4946 58.546 83.2383 57.7541 82.7108 57.2002L82.5659 57.3381ZM80.6415 56.5746C81.4448 56.5746 82.0824 56.8312 82.566 57.3382L82.7107 57.2002C82.1844 56.6483 81.4918 56.3746 80.6415 56.3746V56.5746ZM84.578 61.8867C85.1937 61.2759 85.5009 60.5043 85.5009 59.5789H85.3009C85.3009 60.4553 85.012 61.1744 84.4371 61.7447L84.578 61.8867ZM82.1132 63.0006C83.1392 62.8651 83.9632 62.4957 84.5779 61.8867L84.4371 61.7446C83.8596 62.3168 83.0792 62.6713 82.087 62.8024L82.1132 63.0006ZM83.4454 64.1671C83.0407 63.4431 82.6062 62.9787 82.1342 62.8075L82.066 62.9955C82.4692 63.1418 82.8733 63.5536 83.2708 64.2647L83.4454 64.1671ZM85.8523 68.3658L83.4449 64.1662L83.2714 64.2657L85.6788 68.4653L85.8523 68.3658ZM86.8496 68.6113L85.7922 68.3192L85.7389 68.512L86.7964 68.804L86.8496 68.6113ZM86.923 68.8902V68.7077H86.723V68.8902H86.923ZM83.997 68.9902H86.823V68.7902H83.997V68.9902ZM80.5909 63.0418L83.9099 68.9393L84.0842 68.8412L80.7651 62.9437L80.5909 63.0418ZM78.5631 63.0928H80.678V62.8928H78.5631V63.0928ZM78.6631 68.3608V62.9928H78.4631V68.3608H78.6631ZM79.7762 68.6117L78.5912 68.2648L78.535 68.4568L79.7201 68.8036L79.7762 68.6117ZM79.8482 68.8902V68.7077H79.6482V68.8902H79.8482ZM75.4081 68.9902H79.7482V68.7902H75.4081V68.9902ZM75.3081 68.7077V68.8902H75.5081V68.7077H75.3081ZM76.5651 68.2648L75.38 68.6117L75.4362 68.8036L76.6213 68.4568L76.5651 68.2648ZM76.4932 56.5477V68.3608H76.6932V56.5477H76.4932ZM75.3856 56.3713L76.5707 56.6451L76.6157 56.4502L75.4306 56.1764L75.3856 56.3713ZM75.3081 56.1095V56.2738H75.5081V56.1095H75.3081ZM80.8785 56.0095H75.4081V56.2095H80.8785V56.0095ZM84.2207 56.9516C83.3711 56.3209 82.2543 56.0095 80.8785 56.0095V56.2095C82.2249 56.2095 83.2959 56.5141 84.1015 57.1121L84.2207 56.9516ZM85.5009 59.5789C85.5009 58.4658 85.0736 57.5859 84.2208 56.9516L84.1014 57.1121C84.9006 57.7065 85.3009 58.5252 85.3009 59.5789H85.5009ZM95.5035 58.0782L92.8416 64.2312L93.0252 64.3106L95.6871 58.1576L95.5035 58.0782ZM98.2047 64.233L95.6878 58.08L95.5027 58.1557L98.0195 64.3087L98.2047 64.233ZM92.9334 64.3709H98.1121V64.1709H92.9334V64.3709ZM96.6152 56.1483L101.739 68.3996L101.924 68.3224L96.7997 56.0711L96.6152 56.1483ZM96.1058 56.2097H96.7074V56.0097H96.1058V56.2097ZM90.8546 68.401L96.1974 56.1497L96.0141 56.0697L90.6713 68.321L90.8546 68.401ZM89.5501 68.8041L90.7899 68.4573L90.736 68.2647L89.4963 68.6115L89.5501 68.8041ZM89.6232 68.8904V68.7078H89.4232V68.8904H89.6232ZM92.7693 68.7904H89.5232V68.9904H92.7693V68.7904ZM92.6693 68.7078V68.8904H92.8693V68.7078H92.6693ZM91.143 68.4587L92.7482 68.8056L92.7904 68.6101L91.1852 68.2632L91.143 68.4587ZM92.6775 64.6145L91.0723 68.3212L91.2559 68.4007L92.8611 64.694L92.6775 64.6145ZM98.2762 64.5542H92.7693V64.7542H98.2762V64.5542ZM99.9001 68.3228L98.3686 64.6161L98.1838 64.6924L99.7153 68.3992L99.9001 68.3228ZM98.6321 68.8039L99.8354 68.4571L99.78 68.2649L98.5767 68.6118L98.6321 68.8039ZM98.7044 68.8904V68.7078H98.5044V68.8904H98.7044ZM102.998 68.7904H98.6044V68.9904H102.998V68.7904ZM102.898 68.7078V68.8904H103.098V68.7078H102.898ZM101.803 68.4568L102.97 68.8037L103.027 68.612L101.86 68.2651L101.803 68.4568ZM109.036 56.5746H110.787V56.3746H109.036V56.5746ZM109.136 68.3608V56.4746H108.936V68.3608H109.136ZM110.878 68.6094L109.055 68.2626L109.018 68.459L110.841 68.8059L110.878 68.6094ZM110.96 68.8902V68.7077H110.76V68.8902H110.96ZM105.881 68.9902H110.86V68.7902H105.881V68.9902ZM105.781 68.7077V68.8902H105.981V68.7077H105.781ZM107.038 68.2648L105.853 68.6117L105.91 68.8036L107.095 68.4568L107.038 68.2648ZM106.967 56.5477V68.3608H107.167V56.5477H106.967ZM105.859 56.3713L107.044 56.6451L107.089 56.4502L105.904 56.1764L105.859 56.3713ZM105.781 56.1095V56.2738H105.981V56.1095H105.781ZM111.024 56.0095H105.881V56.2095H111.024V56.0095ZM114.62 57.0146C113.699 56.3415 112.497 56.0095 111.024 56.0095V56.2095C112.468 56.2095 113.625 56.5348 114.503 57.1761L114.62 57.0146ZM116.011 59.7607C116.011 58.6098 115.545 57.6908 114.621 57.0146L114.502 57.1761C115.375 57.8144 115.811 58.6733 115.811 59.7607H116.011ZM114.621 62.5076C115.545 61.8314 116.011 60.9132 116.011 59.7607H115.811C115.811 60.8497 115.375 61.7078 114.502 62.3461L114.621 62.5076ZM111.024 63.5127C112.497 63.5127 113.699 63.1807 114.62 62.5076L114.503 62.3461C113.625 62.9874 112.468 63.3127 111.024 63.3127V63.5127ZM109.547 63.5127H111.024V63.3127H109.547V63.5127ZM109.239 63.246L109.476 63.4833L109.618 63.342L109.381 63.1047L109.239 63.246ZM109.21 63.0475V63.1753H109.41V63.0475H109.21ZM110.787 62.9475H109.31V63.1475H110.787V62.9475ZM112.986 62.1284C112.443 62.6721 111.714 62.9475 110.787 62.9475V63.1475C111.756 63.1475 112.54 62.8579 113.128 62.2697L112.986 62.1284ZM113.805 59.7607C113.805 60.8027 113.527 61.5859 112.986 62.1284L113.128 62.2697C113.717 61.6788 114.005 60.838 114.005 59.7607H113.805ZM112.986 57.3946C113.527 57.9363 113.805 58.7203 113.805 59.7607H114.005C114.005 58.685 113.717 57.8434 113.128 57.2533L112.986 57.3946ZM110.787 56.5746C111.713 56.5746 112.443 56.8509 112.986 57.3946L113.128 57.2533C112.54 56.6651 111.756 56.3746 110.787 56.3746V56.5746ZM119.136 68.8037L120.321 68.4568L120.265 68.2649L119.08 68.6117L119.136 68.8037ZM119.208 68.8903V68.7077H119.008V68.8903H119.208ZM123.448 68.7903H119.108V68.9903H123.448V68.7903ZM123.348 68.7077V68.8903H123.548V68.7077H123.348ZM122.235 68.4568L123.42 68.8037L123.476 68.6117L122.291 68.2649L122.235 68.4568ZM122.163 62.573V68.3609H122.363V62.573H122.163ZM128.864 62.473H122.263V62.673H128.864V62.473ZM128.964 68.3609V62.573H128.764V68.3609H128.964ZM127.706 68.8037L128.892 68.4568L128.836 68.2649L127.65 68.6117L127.706 68.8037ZM127.778 68.8903V68.7077H127.578V68.8903H127.778ZM132 68.7903H127.678V68.9903H132V68.7903ZM131.9 68.7077V68.8903H132.1V68.7077H131.9ZM130.787 68.4568L131.972 68.8037L132.028 68.6117L130.843 68.2649L130.787 68.4568ZM130.715 56.639V68.3609H130.915V56.639H130.715ZM131.972 56.1962L130.787 56.543L130.843 56.735L132.028 56.3881L131.972 56.1962ZM131.9 56.1096V56.2921H132.1V56.1096H131.9ZM127.678 56.2096H132V56.0096H127.678V56.2096ZM127.778 56.2921V56.1096H127.578V56.2921H127.778ZM128.892 56.543L127.706 56.1962L127.65 56.3881L128.836 56.735L128.892 56.543ZM128.964 62.1896V56.639H128.764V62.1896H128.964ZM122.263 62.2896H128.864V62.0896H122.263V62.2896ZM122.163 56.639V62.1896H122.363V56.639H122.163ZM123.42 56.1962L122.235 56.543L122.291 56.735L123.476 56.3881L123.42 56.1962ZM123.348 56.1096V56.2921H123.548V56.1096H123.348ZM119.108 56.2096H123.448V56.0096H119.108V56.2096ZM119.208 56.2921V56.1096H119.008V56.2921H119.208ZM120.321 56.543L119.136 56.1962L119.08 56.3881L120.265 56.735L120.321 56.543ZM120.393 68.3609V56.639H120.193V68.3609H120.393Z" fill="#E3DACF"/>
<path fill-rule="evenodd" clip-rule="evenodd" d="M17.5134 80.2009L17.8604 79.9332C17.6484 79.6382 17.3776 79.4088 17.046 79.2458C16.7144 79.0819 16.3439 79 15.9326 79C15.2514 79 14.6852 79.2212 14.2331 79.6637C13.7811 80.1062 13.5546 80.6515 13.5546 81.2989C13.5546 81.9152 13.7412 82.4406 14.1154 82.8758C14.5602 83.3911 15.168 83.6496 15.9381 83.6496C16.3439 83.6496 16.7099 83.5722 17.0388 83.4193C17.3667 83.2654 17.6412 83.0487 17.8604 82.7674L17.5134 82.5025C17.0976 82.9887 16.5822 83.2308 15.9652 83.2308C15.4045 83.2308 14.9397 83.0506 14.5719 82.6891C14.2032 82.3286 14.0193 81.8779 14.0193 81.338C14.0193 80.9811 14.1018 80.6597 14.2657 80.3739C14.4306 80.088 14.6625 79.8604 14.9624 79.691C15.2613 79.5217 15.5866 79.437 15.9381 79.437C16.2597 79.437 16.5541 79.5017 16.8231 79.6309C17.0913 79.7602 17.3214 79.9505 17.5134 80.2009ZM11.0022 83.5379H11.4606V79.1113H11.3618L8.43937 82.5637V79.1113H8V83.5379H8.09875L11.0022 80.1438V83.5379ZM19.5329 79.545V79.1117H21.9472V79.545H20.9648V83.5382H20.5153V79.545H19.5329ZM24.9973 79.6865C25.289 79.5163 25.5979 79.4307 25.924 79.4307C26.2556 79.4307 26.5699 79.5163 26.8653 79.6865C27.1615 79.8577 27.3907 80.0844 27.5537 80.3685C27.7168 80.6525 27.7983 80.9703 27.7983 81.3217C27.7983 81.6749 27.7168 81.9963 27.5537 82.2859C27.3907 82.5745 27.1642 82.8021 26.8734 82.9687C26.5826 83.1353 26.2655 83.2191 25.924 83.2191C25.4122 83.2191 24.9746 83.0379 24.6122 82.6755C24.249 82.3132 24.0678 81.8689 24.0678 81.3426C24.0678 80.9876 24.1493 80.6653 24.3142 80.3767C24.4773 80.0871 24.7055 79.8577 24.9973 79.6865ZM27.5791 79.6711C27.1298 79.224 26.5717 79.0001 25.905 79.0001C25.4928 79.0001 25.1105 79.1029 24.7572 79.3087C24.4039 79.5145 24.124 79.7985 23.9201 80.1618C23.7154 80.5251 23.613 80.9193 23.613 81.3445C23.613 81.9827 23.8377 82.5262 24.287 82.9751C24.7364 83.4248 25.2871 83.6497 25.9403 83.6497C26.5853 83.6497 27.1325 83.4239 27.5809 82.9723C28.0294 82.5207 28.2531 81.9708 28.2531 81.3235C28.2531 80.6698 28.0284 80.119 27.5791 79.6711ZM30.7999 79.545V81.0464L31.5455 81.0555C31.8472 81.0555 32.0673 81.0281 32.2068 80.9726C32.3472 80.918 32.4568 80.8288 32.5366 80.7059C32.6163 80.5829 32.6561 80.4446 32.6561 80.2925C32.6561 80.145 32.6163 80.0094 32.5366 79.8855C32.4568 79.7626 32.3508 79.6752 32.2204 79.6233C32.0899 79.5714 31.8761 79.545 31.5781 79.545H30.7999ZM30.3596 79.1117H31.2366C31.7403 79.1117 32.0791 79.1335 32.2548 79.1781C32.5067 79.24 32.7123 79.3684 32.8717 79.5614C33.0312 79.7553 33.1109 79.9984 33.1109 80.2916C33.1109 80.5866 33.033 80.8297 32.8781 81.0209C32.7223 81.2121 32.5076 81.3413 32.234 81.4078C32.0347 81.4561 31.6614 81.4797 31.1143 81.4797H30.7999V83.5382H30.3596V79.1117ZM38.2234 83.5379H38.6818V79.1113H38.583L35.6605 82.5637V79.1113H35.2212V83.5379H35.3199L38.2234 80.1438V83.5379ZM42.2601 79.545C41.9584 79.545 41.7428 79.5714 41.6124 79.6233C41.4828 79.6752 41.3778 79.7626 41.298 79.8837C41.2174 80.0048 41.1775 80.1396 41.1775 80.288C41.1775 80.4409 41.2174 80.5784 41.2962 80.7022C41.375 80.8251 41.4847 80.9153 41.626 80.9717C41.7673 81.0272 41.9838 81.0555 42.2782 81.0555L43.0365 81.0491V79.545H42.2601ZM43.4768 83.5382H43.0365V81.4825H42.7883L41.2038 83.5382H40.6594L42.2438 81.4825C41.8742 81.4806 41.5843 81.4333 41.375 81.3395C41.1658 81.2467 41.0045 81.1083 40.8913 80.9253C40.7789 80.7423 40.7228 80.531 40.7228 80.2898C40.7228 80.0003 40.8043 79.7572 40.9683 79.5587C41.1313 79.3611 41.3442 79.2328 41.606 79.1718C41.7791 79.1317 42.1106 79.1117 42.5998 79.1117H43.4768V83.5382ZM52.4659 80.2009L52.8129 79.9332C52.6009 79.6382 52.33 79.4088 51.9985 79.2458C51.6669 79.0819 51.2964 79 50.8851 79C50.2039 79 49.6377 79.2212 49.1856 79.6637C48.7336 80.1062 48.508 80.6515 48.508 81.2989C48.508 81.9152 48.6946 82.4406 49.0678 82.8758C49.5126 83.3911 50.1205 83.6496 50.8905 83.6496C51.2964 83.6496 51.6624 83.5722 51.9912 83.4193C52.3192 83.2654 52.5937 83.0487 52.8129 82.7674L52.4659 82.5025C52.0501 82.9887 51.5347 83.2308 50.9177 83.2308C50.357 83.2308 49.8922 83.0506 49.5244 82.6891C49.1557 82.3286 48.9718 81.8779 48.9718 81.338C48.9718 80.9811 49.0543 80.6597 49.2182 80.3739C49.3831 80.088 49.615 79.8604 49.9149 79.691C50.2138 79.5217 50.5391 79.437 50.8905 79.437C51.2121 79.437 51.5075 79.5017 51.7756 79.6309C52.0438 79.7602 52.2739 79.9505 52.4659 80.2009ZM57.0391 79.4307C56.7129 79.4307 56.404 79.5163 56.1123 79.6865C55.8206 79.8577 55.5923 80.0871 55.4283 80.3767C55.2644 80.6653 55.1828 80.9876 55.1828 81.3426C55.1828 81.8689 55.364 82.3132 55.7273 82.6755C56.0897 83.0379 56.5272 83.2191 57.0391 83.2191C57.3806 83.2191 57.6977 83.1353 57.9885 82.9687C58.2793 82.8021 58.5057 82.5745 58.6688 82.2859C58.8319 81.9963 58.9134 81.6749 58.9134 81.3217C58.9134 80.9703 58.8319 80.6525 58.6688 80.3685C58.5057 80.0844 58.2765 79.8577 57.9803 79.6865C57.685 79.5163 57.3706 79.4307 57.0391 79.4307ZM57.02 79.0001C57.6868 79.0001 58.2448 79.224 58.6942 79.6711C59.1435 80.119 59.3682 80.6698 59.3682 81.3235C59.3682 81.9708 59.1444 82.5207 58.696 82.9723C58.2476 83.4239 57.7004 83.6497 57.0554 83.6497C56.4022 83.6497 55.8514 83.4248 55.4021 82.9751C54.9527 82.5262 54.7281 81.9827 54.7281 81.3445C54.7281 80.9193 54.8295 80.5251 55.0352 80.1618C55.239 79.7985 55.5189 79.5145 55.8722 79.3087C56.2255 79.1029 56.6078 79.0001 57.02 79.0001ZM62.7139 79.0003C62.2591 79.0003 61.8759 79.1805 61.567 79.542L61.8696 79.8124C62.1287 79.5438 62.4068 79.41 62.7021 79.41C62.9295 79.41 63.1179 79.4819 63.2665 79.6276C63.416 79.7723 63.4903 79.9681 63.4903 80.2148C63.4903 80.7447 63.1632 81.0105 62.511 81.0105H62.3642V81.3984H62.4394C62.6903 81.3984 62.8715 81.4084 62.9811 81.4284C63.0908 81.4485 63.2067 81.4967 63.3281 81.5732C63.4504 81.6497 63.5446 81.7489 63.6108 81.8727C63.6778 81.9956 63.7113 82.1404 63.7113 82.307C63.7113 82.622 63.6135 82.8606 63.4178 83.0235C63.2221 83.1856 62.9848 83.2675 62.7048 83.2675C62.5137 83.2675 62.3289 83.2247 62.1513 83.1391C61.9729 83.0536 61.7826 82.8606 61.5788 82.5601L61.2373 82.7613C61.4429 83.0909 61.6621 83.3203 61.895 83.4523C62.1278 83.5834 62.4014 83.649 62.7166 83.649C63.1687 83.649 63.5238 83.527 63.7829 83.2821C64.0429 83.0372 64.1724 82.714 64.1724 82.3134C64.1724 81.7116 63.8825 81.3201 63.3009 81.1398C63.7421 80.935 63.9632 80.5981 63.9632 80.1274C63.9632 79.7951 63.8454 79.5238 63.6098 79.3144C63.3743 79.105 63.0754 79.0003 62.7139 79.0003ZM66.6758 83.1257H69.3645L67.9857 80.0229L66.6758 83.1257ZM66.2554 84.2H65.8206V83.1257H66.1784L67.9069 79.1115H68.06L69.8854 83.1257H70.2279V84.2H69.7939V83.5381H66.2554V84.2ZM73.0693 81.6544L73.8239 80.052L74.5749 81.6544H73.0693ZM75.9338 83.5381L73.8792 79.1115H73.7714L71.6914 83.5381H72.1824L72.8682 82.0814H74.7652L75.4582 83.5381H75.9338ZM77.8363 79.1118H78.2766V80.9682H80.5188V79.1118H80.959V83.5384H80.5188V81.4016H78.2766V83.5384H77.8363V79.1118ZM83.6917 79.1118H83.2514V83.5384H83.6917V81.4016H85.9338V83.5384H86.3741V79.1118H85.9338V80.9682H83.6917V79.1118ZM90.4161 80.052L89.6615 81.6544H91.1671L90.4161 80.052ZM90.4713 79.1115L92.526 83.5381H92.0504L91.3573 82.0814H89.4604L88.7746 83.5381H88.2836L90.3636 79.1115H90.4713ZM95.0669 79.6233C95.1973 79.5714 95.4129 79.545 95.7146 79.545H96.491V81.0491L95.7327 81.0555C95.4383 81.0555 95.2218 81.0272 95.0805 80.9717C94.9391 80.9153 94.8295 80.8251 94.7507 80.7022C94.6719 80.5784 94.632 80.4409 94.632 80.288C94.632 80.1396 94.6719 80.0048 94.7525 79.8837C94.8322 79.7626 94.9373 79.6752 95.0669 79.6233ZM96.491 83.5382H96.9313V79.1117H96.0543C95.5651 79.1117 95.2336 79.1317 95.0605 79.1718C94.7987 79.2328 94.5858 79.3611 94.4228 79.5587C94.2588 79.7572 94.1773 80.0003 94.1773 80.2898C94.1773 80.531 94.2334 80.7423 94.3458 80.9253C94.459 81.1083 94.6203 81.2467 94.8295 81.3395C95.0388 81.4333 95.3287 81.4806 95.6983 81.4825L94.1139 83.5382H94.6583L96.2428 81.4825H96.491V83.5382ZM102.609 81.4076V83.1047H103.155C103.477 83.1047 103.713 83.0728 103.863 83.01C104.013 82.9462 104.133 82.8479 104.225 82.7132C104.315 82.5793 104.361 82.4337 104.361 82.2771C104.361 82.0804 104.297 81.9092 104.169 81.7627C104.041 81.6161 103.865 81.5159 103.641 81.4613C103.492 81.4258 103.23 81.4076 102.858 81.4076H102.609ZM102.609 79.5448V80.9624H102.861C103.167 80.9624 103.393 80.9332 103.536 80.8768C103.68 80.8194 103.794 80.7293 103.879 80.6055C103.963 80.4826 104.005 80.3451 104.005 80.1949C104.005 79.9928 103.934 79.8334 103.793 79.7178C103.652 79.6031 103.427 79.5448 103.119 79.5448H102.609ZM102.178 79.1115H103.046C103.396 79.1115 103.664 79.1533 103.852 79.2362C104.04 79.3199 104.188 79.4474 104.296 79.6204C104.405 79.7925 104.459 79.9846 104.459 80.1949C104.459 80.3915 104.412 80.5709 104.317 80.732C104.221 80.8932 104.082 81.0243 103.897 81.1244C104.125 81.2027 104.302 81.2947 104.425 81.4003C104.548 81.505 104.644 81.6325 104.713 81.7818C104.782 81.932 104.817 82.0941 104.817 82.268C104.817 82.623 104.687 82.9235 104.429 83.1693C104.169 83.4151 103.823 83.538 103.387 83.538H102.178V79.1115ZM107.902 81.6544L108.657 80.052L109.408 81.6544H107.902ZM110.767 83.5381L108.712 79.1115H108.604L106.524 83.5381H107.015L107.701 82.0814H109.598L110.291 83.5381H110.767ZM112.474 83.5379L113.105 79.1113H113.176L114.966 82.744L116.74 79.1113H116.811L117.444 83.5379H117.013L116.577 80.3723L115.021 83.5379H114.908L113.332 80.3486L112.899 83.5379H112.474ZM122.542 83.5379H123V79.1113H122.901L119.979 82.5637V79.1113H119.539V83.5379H119.638L122.542 80.1438V83.5379Z" fill="#E3DACF"/>
<path d="M17.8604 79.9332L17.9215 80.0124L17.998 79.9533L17.9416 79.8748L17.8604 79.9332ZM17.5134 80.2009L17.4341 80.2617L17.4951 80.3413L17.5745 80.2801L17.5134 80.2009ZM17.046 79.2458L17.0017 79.3355L17.0019 79.3356L17.046 79.2458ZM14.2331 79.6637L14.3031 79.7352V79.7352L14.2331 79.6637ZM14.1154 82.8758L14.0395 82.9409L14.0397 82.9411L14.1154 82.8758ZM17.0388 83.4193L17.0809 83.51L17.0812 83.5098L17.0388 83.4193ZM17.8604 82.7674L17.9393 82.8289L18.0014 82.7492L17.9211 82.6879L17.8604 82.7674ZM17.5134 82.5025L17.5741 82.423L17.4989 82.3656L17.4375 82.4375L17.5134 82.5025ZM14.5719 82.6891L14.642 82.6178L14.6419 82.6176L14.5719 82.6891ZM14.2657 80.3739L14.1791 80.3239L14.179 80.3241L14.2657 80.3739ZM14.9624 79.691L15.0116 79.7781L15.0117 79.778L14.9624 79.691ZM16.8231 79.6309L16.8666 79.5409L16.8665 79.5408L16.8231 79.6309ZM11.4606 83.5379V83.6379H11.5606V83.5379H11.4606ZM11.0022 83.5379H10.9022V83.6379H11.0022V83.5379ZM11.4606 79.1113H11.5606V79.0113H11.4606V79.1113ZM11.3618 79.1113V79.0113H11.3155L11.2855 79.0467L11.3618 79.1113ZM8.43937 82.5637H8.33937V82.8366L8.51569 82.6283L8.43937 82.5637ZM8.43937 79.1113H8.53937V79.0113H8.43937V79.1113ZM8 79.1113V79.0113H7.9V79.1113H8ZM8 83.5379H7.9V83.6379H8V83.5379ZM8.09875 83.5379V83.6379H8.1448L8.17474 83.6029L8.09875 83.5379ZM11.0022 80.1438H11.1022V79.873L10.9262 80.0788L11.0022 80.1438ZM19.5329 79.1117V79.0117H19.4329V79.1117H19.5329ZM19.5329 79.545H19.4329V79.645H19.5329V79.545ZM21.9472 79.1117H22.0472V79.0117H21.9472V79.1117ZM21.9472 79.545V79.645H22.0472V79.545H21.9472ZM20.9648 79.545V79.445H20.8648V79.545H20.9648ZM20.9648 83.5382V83.6382H21.0648V83.5382H20.9648ZM20.5153 83.5382H20.4153V83.6382H20.5153V83.5382ZM20.5153 79.545H20.6153V79.445H20.5153V79.545ZM24.9973 79.6865L24.9468 79.6002L24.9466 79.6003L24.9973 79.6865ZM26.8653 79.6865L26.9153 79.6L26.9152 79.5999L26.8653 79.6865ZM27.5537 80.3685L27.6405 80.3187L27.6405 80.3187L27.5537 80.3685ZM27.5537 82.2859L27.6408 82.335L27.6409 82.3349L27.5537 82.2859ZM26.8734 82.9687L26.8237 82.8819L26.8734 82.9687ZM24.6122 82.6755L24.683 82.6048L24.6829 82.6047L24.6122 82.6755ZM24.3142 80.3767L24.401 80.4263L24.4013 80.4257L24.3142 80.3767ZM27.5791 79.6711L27.6497 79.6002L27.6496 79.6002L27.5791 79.6711ZM24.7572 79.3087L24.8075 79.3951V79.3951L24.7572 79.3087ZM23.9201 80.1618L24.0072 80.2109L24.0073 80.2107L23.9201 80.1618ZM24.287 82.9751L24.3578 82.9044L24.3577 82.9043L24.287 82.9751ZM27.5809 82.9723L27.51 82.9019V82.9019L27.5809 82.9723ZM30.7999 81.0464H30.6999V81.1451L30.7987 81.1463L30.7999 81.0464ZM30.7999 79.545V79.445H30.6999V79.545H30.7999ZM31.5455 81.0555L31.5443 81.1555H31.5455V81.0555ZM32.2068 80.9726L32.1706 80.8794L32.1698 80.8797L32.2068 80.9726ZM32.5366 80.7059L32.4527 80.6514L32.4527 80.6514L32.5366 80.7059ZM32.5366 79.8855L32.6206 79.8314L32.6205 79.8311L32.5366 79.8855ZM32.2204 79.6233L32.2574 79.5304L32.2574 79.5304L32.2204 79.6233ZM30.3596 79.1117V79.0117H30.2596V79.1117H30.3596ZM32.2548 79.1781L32.2302 79.2751L32.2309 79.2752L32.2548 79.1781ZM32.8717 79.5614L32.949 79.4979L32.9488 79.4977L32.8717 79.5614ZM32.8781 81.0209L32.9556 81.084L32.9558 81.0838L32.8781 81.0209ZM32.234 81.4078L32.2575 81.505L32.2576 81.505L32.234 81.4078ZM30.7999 81.4797V81.3797H30.6999V81.4797H30.7999ZM30.7999 83.5382V83.6382H30.8999V83.5382H30.7999ZM30.3596 83.5382H30.2596V83.6382H30.3596V83.5382ZM38.6818 83.5379V83.6379H38.7818V83.5379H38.6818ZM38.2234 83.5379H38.1234V83.6379H38.2234V83.5379ZM38.6818 79.1113H38.7818V79.0113H38.6818V79.1113ZM38.583 79.1113V79.0113H38.5367L38.5067 79.0467L38.583 79.1113ZM35.6605 82.5637H35.5605V82.8366L35.7369 82.6283L35.6605 82.5637ZM35.6605 79.1113H35.7605V79.0113H35.6605V79.1113ZM35.2212 79.1113V79.0113H35.1212V79.1113H35.2212ZM35.2212 83.5379H35.1212V83.6379H35.2212V83.5379ZM35.3199 83.5379V83.6379H35.366L35.3959 83.6029L35.3199 83.5379ZM38.2234 80.1438H38.3234V79.873L38.1474 80.0788L38.2234 80.1438ZM41.6124 79.6233L41.5754 79.5304L41.5752 79.5305L41.6124 79.6233ZM41.298 79.8837L41.3813 79.9391L41.3816 79.9387L41.298 79.8837ZM41.2962 80.7022L41.2119 80.7559L41.212 80.7562L41.2962 80.7022ZM41.626 80.9717L41.5889 81.0646L41.5894 81.0648L41.626 80.9717ZM42.2782 81.0555V81.1555L42.2791 81.1555L42.2782 81.0555ZM43.0365 81.0491L43.0373 81.1491L43.1365 81.1482V81.0491H43.0365ZM43.0365 79.545H43.1365V79.445H43.0365V79.545ZM43.0365 83.5382H42.9365V83.6382H43.0365V83.5382ZM43.4768 83.5382V83.6382H43.5768V83.5382H43.4768ZM43.0365 81.4825H43.1365V81.3825H43.0365V81.4825ZM42.7883 81.4825V81.3825H42.7391L42.7091 81.4214L42.7883 81.4825ZM41.2038 83.5382V83.6382H41.253L41.283 83.5993L41.2038 83.5382ZM40.6594 83.5382L40.5802 83.4772L40.456 83.6382H40.6594V83.5382ZM42.2438 81.4825L42.323 81.5435L42.4464 81.3835L42.2443 81.3825L42.2438 81.4825ZM41.375 81.3395L41.4159 81.2483L41.4156 81.2481L41.375 81.3395ZM40.8913 80.9253L40.8061 80.9776L40.8062 80.9779L40.8913 80.9253ZM40.9683 79.5587L41.0454 79.6224L41.0454 79.6223L40.9683 79.5587ZM41.606 79.1718L41.5835 79.0743L41.5834 79.0744L41.606 79.1718ZM43.4768 79.1117H43.5768V79.0117H43.4768V79.1117ZM52.8129 79.9332L52.874 80.0124L52.9505 79.9533L52.8941 79.8748L52.8129 79.9332ZM52.4659 80.2009L52.3866 80.2617L52.4476 80.3413L52.527 80.2801L52.4659 80.2009ZM51.9985 79.2458L51.9542 79.3355L51.9544 79.3356L51.9985 79.2458ZM49.1856 79.6637L49.1157 79.5922V79.5923L49.1856 79.6637ZM49.0678 82.8758L48.9919 82.9409L48.9921 82.9411L49.0678 82.8758ZM51.9912 83.4193L52.0334 83.51L52.0337 83.5098L51.9912 83.4193ZM52.8129 82.7674L52.8918 82.8289L52.9538 82.7492L52.8736 82.6879L52.8129 82.7674ZM52.4659 82.5025L52.5266 82.423L52.4514 82.3656L52.3899 82.4375L52.4659 82.5025ZM49.5244 82.6891L49.5945 82.6178L49.5943 82.6176L49.5244 82.6891ZM49.2182 80.3739L49.1316 80.3239L49.1315 80.3241L49.2182 80.3739ZM49.9149 79.691L49.9641 79.7781L49.9642 79.778L49.9149 79.691ZM51.7756 79.6309L51.8191 79.5409V79.5409L51.7756 79.6309ZM56.1123 79.6865L56.0619 79.6002L56.0617 79.6003L56.1123 79.6865ZM55.4283 80.3767L55.5153 80.4261L55.5154 80.4259L55.4283 80.3767ZM55.7273 82.6755L55.798 82.6048L55.7979 82.6047L55.7273 82.6755ZM57.9885 82.9687L58.0382 83.0555L57.9885 82.9687ZM58.6688 82.2859L58.7559 82.335L58.7559 82.3349L58.6688 82.2859ZM58.6688 80.3685L58.7555 80.3187V80.3187L58.6688 80.3685ZM57.9803 79.6865L58.0303 79.6L58.0302 79.5999L57.9803 79.6865ZM58.6942 79.6711L58.7648 79.6002L58.7647 79.6002L58.6942 79.6711ZM58.696 82.9723L58.7669 83.0428V83.0428L58.696 82.9723ZM55.4021 82.9751L55.4728 82.9044L55.4727 82.9043L55.4021 82.9751ZM55.0352 80.1618L55.1222 80.2111L55.1224 80.2107L55.0352 80.1618ZM55.8722 79.3087L55.8219 79.2223V79.2223L55.8722 79.3087ZM61.567 79.542L61.491 79.477L61.4274 79.5514L61.5004 79.6166L61.567 79.542ZM61.8696 79.8124L61.803 79.887L61.8747 79.9511L61.9416 79.8818L61.8696 79.8124ZM63.2665 79.6276L63.1965 79.699L63.1969 79.6994L63.2665 79.6276ZM62.3642 81.0105V80.9105H62.2642V81.0105H62.3642ZM62.3642 81.3984H62.2642V81.4984H62.3642V81.3984ZM62.9811 81.4284L62.9632 81.5268L62.9811 81.4284ZM63.3281 81.5732L63.2748 81.6578L63.2751 81.658L63.3281 81.5732ZM63.6108 81.8727L63.5225 81.9198L63.523 81.9206L63.6108 81.8727ZM63.4178 83.0235L63.4816 83.1005L63.4818 83.1004L63.4178 83.0235ZM62.1513 83.1391L62.1947 83.0491L62.1946 83.049L62.1513 83.1391ZM61.5788 82.5601L61.6615 82.504L61.6089 82.4263L61.528 82.4739L61.5788 82.5601ZM61.2373 82.7613L61.1865 82.6752L61.0981 82.7272L61.1524 82.8142L61.2373 82.7613ZM61.895 83.4523L61.8456 83.5393L61.8459 83.5395L61.895 83.4523ZM63.7829 83.2821L63.7143 83.2093L63.7142 83.2094L63.7829 83.2821ZM63.3009 81.1398L63.2588 81.0491L63.0233 81.1585L63.2713 81.2353L63.3009 81.1398ZM63.6098 79.3144L63.5434 79.3891L63.5434 79.3891L63.6098 79.3144ZM69.3645 83.1257V83.2257H69.5184L69.4559 83.085L69.3645 83.1257ZM66.6758 83.1257L66.5836 83.0868L66.525 83.2257H66.6758V83.1257ZM67.9857 80.0229L68.0771 79.9823L67.9834 79.7713L67.8936 79.984L67.9857 80.0229ZM65.8206 84.2H65.7206V84.3H65.8206V84.2ZM66.2554 84.2V84.3H66.3554V84.2H66.2554ZM65.8206 83.1257V83.0257H65.7206V83.1257H65.8206ZM66.1784 83.1257V83.2257H66.2442L66.2703 83.1652L66.1784 83.1257ZM67.9069 79.1115V79.0115H67.8411L67.8151 79.072L67.9069 79.1115ZM68.06 79.1115L68.151 79.0701L68.1244 79.0115H68.06V79.1115ZM69.8854 83.1257L69.7944 83.1671L69.821 83.2257H69.8854V83.1257ZM70.2279 83.1257H70.3279V83.0257H70.2279V83.1257ZM70.2279 84.2V84.3H70.3279V84.2H70.2279ZM69.7939 84.2H69.6939V84.3H69.7939V84.2ZM69.7939 83.5381H69.8939V83.4381H69.7939V83.5381ZM66.2554 83.5381V83.4381H66.1554V83.5381H66.2554ZM73.8239 80.052L73.9145 80.0096L73.8241 79.8168L73.7334 80.0094L73.8239 80.052ZM73.0693 81.6544L72.9788 81.6118L72.9117 81.7544H73.0693V81.6544ZM74.5749 81.6544V81.7544H74.7322L74.6655 81.6119L74.5749 81.6544ZM73.8792 79.1115L73.9699 79.0694L73.943 79.0115H73.8792V79.1115ZM75.9338 83.5381V83.6381H76.0905L76.0245 83.496L75.9338 83.5381ZM73.7714 79.1115V79.0115H73.7079L73.6809 79.069L73.7714 79.1115ZM71.6914 83.5381L71.6009 83.4956L71.5339 83.6381H71.6914V83.5381ZM72.1824 83.5381V83.6381H72.2459L72.2729 83.5807L72.1824 83.5381ZM72.8682 82.0814V81.9814H72.8047L72.7777 82.0388L72.8682 82.0814ZM74.7652 82.0814L74.8555 82.0384L74.8283 81.9814H74.7652V82.0814ZM75.4582 83.5381L75.3679 83.5811L75.395 83.6381H75.4582V83.5381ZM78.2766 79.1118H78.3766V79.0118H78.2766V79.1118ZM77.8363 79.1118V79.0118H77.7363V79.1118H77.8363ZM78.2766 80.9682H78.1766V81.0682H78.2766V80.9682ZM80.5188 80.9682V81.0682H80.6188V80.9682H80.5188ZM80.5188 79.1118V79.0118H80.4188V79.1118H80.5188ZM80.959 79.1118H81.059V79.0118H80.959V79.1118ZM80.959 83.5384V83.6384H81.059V83.5384H80.959ZM80.5188 83.5384H80.4188V83.6384H80.5188V83.5384ZM80.5188 81.4016H80.6188V81.3016H80.5188V81.4016ZM78.2766 81.4016V81.3016H78.1766V81.4016H78.2766ZM78.2766 83.5384V83.6384H78.3766V83.5384H78.2766ZM77.8363 83.5384H77.7363V83.6384H77.8363V83.5384ZM83.2514 79.1118V79.0118H83.1514V79.1118H83.2514ZM83.6917 79.1118H83.7917V79.0118H83.6917V79.1118ZM83.2514 83.5384H83.1514V83.6384H83.2514V83.5384ZM83.6917 83.5384V83.6384H83.7917V83.5384H83.6917ZM83.6917 81.4016V81.3016H83.5917V81.4016H83.6917ZM85.9338 81.4016H86.0338V81.3016H85.9338V81.4016ZM85.9338 83.5384H85.8338V83.6384H85.9338V83.5384ZM86.3741 83.5384V83.6384H86.4741V83.5384H86.3741ZM86.3741 79.1118H86.4741V79.0118H86.3741V79.1118ZM85.9338 79.1118V79.0118H85.8338V79.1118H85.9338ZM85.9338 80.9682V81.0682H86.0338V80.9682H85.9338ZM83.6917 80.9682H83.5917V81.0682H83.6917V80.9682ZM89.6615 81.6544L89.571 81.6118L89.5038 81.7544H89.6615V81.6544ZM90.4161 80.052L90.5066 80.0096L90.4163 79.8168L90.3256 80.0094L90.4161 80.052ZM91.1671 81.6544V81.7544H91.3244L91.2576 81.6119L91.1671 81.6544ZM92.526 83.5381V83.6381H92.6826L92.6167 83.496L92.526 83.5381ZM90.4713 79.1115L90.562 79.0694L90.5352 79.0115H90.4713V79.1115ZM92.0504 83.5381L91.9601 83.5811L91.9872 83.6381H92.0504V83.5381ZM91.3573 82.0814L91.4476 82.0384L91.4205 81.9814H91.3573V82.0814ZM89.4604 82.0814V81.9814H89.3969L89.3699 82.0388L89.4604 82.0814ZM88.7746 83.5381V83.6381H88.838L88.8651 83.5807L88.7746 83.5381ZM88.2836 83.5381L88.1931 83.4956L88.1261 83.6381H88.2836V83.5381ZM90.3636 79.1115V79.0115H90.3001L90.273 79.069L90.3636 79.1115ZM95.0669 79.6233L95.0299 79.5304L95.0297 79.5305L95.0669 79.6233ZM96.491 79.545H96.591V79.445H96.491V79.545ZM96.491 81.0491L96.4918 81.1491L96.591 81.1482V81.0491H96.491ZM95.7327 81.0555V81.1555L95.7336 81.1555L95.7327 81.0555ZM95.0805 80.9717L95.0434 81.0646L95.0439 81.0648L95.0805 80.9717ZM94.7507 80.7022L94.6664 80.7559L94.6665 80.7562L94.7507 80.7022ZM94.7525 79.8837L94.8358 79.9391L94.8361 79.9387L94.7525 79.8837ZM96.9313 83.5382V83.6382H97.0312V83.5382H96.9313ZM96.491 83.5382H96.391V83.6382H96.491V83.5382ZM96.9313 79.1117H97.0312V79.0117H96.9313V79.1117ZM95.0605 79.1718L95.038 79.0743L95.0378 79.0744L95.0605 79.1718ZM94.4228 79.5587L94.4999 79.6224L94.4999 79.6223L94.4228 79.5587ZM94.3458 80.9253L94.2605 80.9776L94.2607 80.9779L94.3458 80.9253ZM94.8295 81.3395L94.8704 81.2483L94.8701 81.2481L94.8295 81.3395ZM95.6983 81.4825L95.7775 81.5435L95.9009 81.3835L95.6988 81.3825L95.6983 81.4825ZM94.1139 83.5382L94.0346 83.4772L93.9105 83.6382H94.1139V83.5382ZM94.6583 83.5382V83.6382H94.7075L94.7375 83.5993L94.6583 83.5382ZM96.2428 81.4825V81.3825H96.1936L96.1636 81.4214L96.2428 81.4825ZM96.491 81.4825H96.591V81.3825H96.491V81.4825ZM102.609 83.1047H102.509V83.2047H102.609V83.1047ZM102.609 81.4076V81.3076H102.509V81.4076H102.609ZM103.863 83.01L103.902 83.1023L103.902 83.102L103.863 83.01ZM104.225 82.7132L104.307 82.7694L104.308 82.7692L104.225 82.7132ZM104.169 81.7627L104.245 81.697L104.245 81.6967L104.169 81.7627ZM103.641 81.4613L103.665 81.3642L103.664 81.364L103.641 81.4613ZM102.609 80.9624H102.509V81.0624H102.609V80.9624ZM102.609 79.5448V79.4448H102.509V79.5448H102.609ZM103.536 80.8768L103.573 80.9698L103.573 80.9697L103.536 80.8768ZM103.879 80.6055L103.796 80.5489L103.796 80.5492L103.879 80.6055ZM103.793 79.7178L103.857 79.6406L103.856 79.6402L103.793 79.7178ZM102.178 79.1115V79.0115H102.078V79.1115H102.178ZM103.852 79.2362L103.893 79.1449L103.893 79.1446L103.852 79.2362ZM104.296 79.6204L104.212 79.6736L104.212 79.6738L104.296 79.6204ZM104.317 80.732L104.403 80.7832L104.403 80.7829L104.317 80.732ZM103.897 81.1244L103.849 81.0365L103.649 81.1451L103.864 81.219L103.897 81.1244ZM104.425 81.4003L104.36 81.4762L104.36 81.4765L104.425 81.4003ZM104.713 81.7818L104.804 81.7401L104.804 81.7399L104.713 81.7818ZM104.429 83.1693L104.497 83.2419L104.498 83.2417L104.429 83.1693ZM102.178 83.538H102.078V83.638H102.178V83.538ZM108.657 80.052L108.747 80.0096L108.657 79.8168L108.566 80.0094L108.657 80.052ZM107.902 81.6544L107.812 81.6118L107.745 81.7544H107.902V81.6544ZM109.408 81.6544V81.7544H109.565L109.498 81.6119L109.408 81.6544ZM108.712 79.1115L108.803 79.0694L108.776 79.0115H108.712V79.1115ZM110.767 83.5381V83.6381H110.923L110.857 83.496L110.767 83.5381ZM108.604 79.1115V79.0115H108.541L108.514 79.069L108.604 79.1115ZM106.524 83.5381L106.434 83.4956L106.367 83.6381H106.524V83.5381ZM107.015 83.5381V83.6381H107.079L107.106 83.5807L107.015 83.5381ZM107.701 82.0814V81.9814H107.638L107.611 82.0388L107.701 82.0814ZM109.598 82.0814L109.688 82.0384L109.661 81.9814H109.598V82.0814ZM110.291 83.5381L110.201 83.5811L110.228 83.6381H110.291V83.5381ZM113.105 79.1113V79.0113H113.018L113.006 79.0972L113.105 79.1113ZM112.474 83.5379L112.375 83.5238L112.359 83.6379H112.474V83.5379ZM113.176 79.1113L113.266 79.0671L113.239 79.0113H113.176V79.1113ZM114.966 82.744L114.877 82.7882L114.967 82.9711L115.056 82.7879L114.966 82.744ZM116.74 79.1113V79.0113H116.678L116.65 79.0675L116.74 79.1113ZM116.811 79.1113L116.91 79.0972L116.898 79.0113H116.811V79.1113ZM117.444 83.5379V83.6379H117.559L117.543 83.5237L117.444 83.5379ZM117.013 83.5379L116.914 83.5515L116.926 83.6379H117.013V83.5379ZM116.577 80.3723L116.676 80.3587L116.632 80.0348L116.487 80.3282L116.577 80.3723ZM115.021 83.5379V83.6379H115.083L115.11 83.582L115.021 83.5379ZM114.908 83.5379L114.818 83.5822L114.845 83.6379H114.908V83.5379ZM113.332 80.3486L113.422 80.3043L113.277 80.0113L113.233 80.3352L113.332 80.3486ZM112.899 83.5379V83.6379H112.986L112.998 83.5514L112.899 83.5379ZM123 83.5379V83.6379H123.1V83.5379H123ZM122.542 83.5379H122.442V83.6379H122.542V83.5379ZM123 79.1113H123.1V79.0113H123V79.1113ZM122.901 79.1113V79.0113H122.855L122.825 79.0467L122.901 79.1113ZM119.979 82.5637H119.879V82.8366L120.055 82.6283L119.979 82.5637ZM119.979 79.1113H120.079V79.0113H119.979V79.1113ZM119.539 79.1113V79.0113H119.439V79.1113H119.539ZM119.539 83.5379H119.439V83.6379H119.539V83.5379ZM119.638 83.5379V83.6379H119.684L119.714 83.6029L119.638 83.5379ZM122.542 80.1438H122.642V79.873L122.466 80.0788L122.542 80.1438ZM17.7993 79.854L17.4524 80.1217L17.5745 80.2801L17.9215 80.0124L17.7993 79.854ZM17.0019 79.3356C17.3188 79.4913 17.5769 79.71 17.7792 79.9916L17.9416 79.8748C17.72 79.5664 17.4363 79.3262 17.0901 79.1561L17.0019 79.3356ZM15.9326 79.1C16.3303 79.1 16.6854 79.1791 17.0017 79.3355L17.0903 79.1562C16.7435 78.9848 16.3576 78.9 15.9326 78.9V79.1ZM14.3031 79.7352C14.7349 79.3125 15.2753 79.1 15.9326 79.1V78.9C15.2274 78.9 14.6354 79.13 14.1632 79.5922L14.3031 79.7352ZM13.6546 81.2989C13.6546 80.6778 13.8707 80.1584 14.3031 79.7352L14.1632 79.5922C13.6914 80.054 13.4546 80.6253 13.4546 81.2989H13.6546ZM14.1912 82.8106C13.8339 82.3949 13.6546 81.8933 13.6546 81.2989H13.4546C13.4546 81.9372 13.6486 82.4862 14.0395 82.9409L14.1912 82.8106ZM15.9381 83.5496C15.1929 83.5496 14.6143 83.3007 14.1911 82.8104L14.0397 82.9411C14.506 83.4814 15.1431 83.7496 15.9381 83.7496V83.5496ZM16.9966 83.3286C16.6823 83.4748 16.3309 83.5496 15.9381 83.5496V83.7496C16.357 83.7496 16.7376 83.6697 17.0809 83.51L16.9966 83.3286ZM17.7815 82.7059C17.5723 82.9745 17.3104 83.1814 16.9963 83.3288L17.0812 83.5098C17.423 83.3495 17.7101 83.123 17.9393 82.8289L17.7815 82.7059ZM17.4528 82.582L17.7997 82.8469L17.9211 82.6879L17.5741 82.423L17.4528 82.582ZM15.9652 83.3308C16.6126 83.3308 17.1554 83.075 17.5894 82.5675L17.4375 82.4375C17.0399 82.9023 16.5518 83.1308 15.9652 83.1308V83.3308ZM14.5019 82.7604C14.8901 83.142 15.3809 83.3308 15.9652 83.3308V83.1308C15.4281 83.1308 14.9894 82.9591 14.642 82.6178L14.5019 82.7604ZM13.9193 81.338C13.9193 81.9033 14.113 82.3802 14.502 82.7606L14.6419 82.6176C14.2934 82.2769 14.1193 81.8525 14.1193 81.338H13.9193ZM14.179 80.3241C14.0057 80.6263 13.9193 80.9651 13.9193 81.338H14.1193C14.1193 80.9972 14.1979 80.6932 14.3525 80.4236L14.179 80.3241ZM14.9132 79.604C14.5984 79.7817 14.3533 80.0219 14.1791 80.3239L14.3524 80.4238C14.5079 80.1541 14.7266 79.939 15.0116 79.7781L14.9132 79.604ZM15.9381 79.337C15.5697 79.337 15.2275 79.426 14.9131 79.604L15.0117 79.778C15.2952 79.6174 15.6034 79.537 15.9381 79.537V79.337ZM16.8665 79.5408C16.5829 79.4046 16.2735 79.337 15.9381 79.337V79.537C16.2458 79.537 16.5253 79.5988 16.7798 79.7211L16.8665 79.5408ZM17.5928 80.14C17.3919 79.8781 17.1497 79.6774 16.8666 79.5409L16.7797 79.721C17.0329 79.8431 17.2509 80.0229 17.4341 80.2617L17.5928 80.14ZM11.4606 83.4379H11.0022V83.6379H11.4606V83.4379ZM11.3606 79.1113V83.5379H11.5606V79.1113H11.3606ZM11.3618 79.2113H11.4606V79.0113H11.3618V79.2113ZM8.51569 82.6283L11.4382 79.1759L11.2855 79.0467L8.36304 82.4991L8.51569 82.6283ZM8.33937 79.1113V82.5637H8.53937V79.1113H8.33937ZM8 79.2113H8.43937V79.0113H8V79.2113ZM8.1 83.5379V79.1113H7.9V83.5379H8.1ZM8.09875 83.4379H8V83.6379H8.09875V83.4379ZM10.9262 80.0788L8.02276 83.4729L8.17474 83.6029L11.0782 80.2088L10.9262 80.0788ZM11.1022 83.5379V80.1438H10.9022V83.5379H11.1022ZM19.4329 79.1117V79.545H19.6329V79.1117H19.4329ZM21.9472 79.0117H19.5329V79.2117H21.9472V79.0117ZM22.0472 79.545V79.1117H21.8472V79.545H22.0472ZM20.9648 79.645H21.9472V79.445H20.9648V79.645ZM21.0648 83.5382V79.545H20.8648V83.5382H21.0648ZM20.5153 83.6382H20.9648V83.4382H20.5153V83.6382ZM20.4153 79.545V83.5382H20.6153V79.545H20.4153ZM19.5329 79.645H20.5153V79.445H19.5329V79.645ZM25.924 79.3307C25.5794 79.3307 25.2532 79.4214 24.9468 79.6002L25.0477 79.7729C25.3247 79.6112 25.6163 79.5307 25.924 79.5307V79.3307ZM26.9152 79.5999C26.6052 79.4212 26.2737 79.3307 25.924 79.3307V79.5307C26.2375 79.5307 26.5347 79.6114 26.8153 79.7732L26.9152 79.5999ZM27.6405 80.3187C27.4682 80.0186 27.226 79.7795 26.9153 79.6L26.8152 79.7731C27.097 79.9359 27.3132 80.1502 27.467 80.4182L27.6405 80.3187ZM27.8983 81.3217C27.8983 80.9541 27.8129 80.619 27.6405 80.3187L27.467 80.4182C27.6207 80.6861 27.6983 80.9864 27.6983 81.3217H27.8983ZM27.6409 82.3349C27.8129 82.0295 27.8983 81.691 27.8983 81.3217H27.6983C27.6983 81.6589 27.6207 81.9632 27.4666 82.2368L27.6409 82.3349ZM26.9231 83.0555C27.2294 82.88 27.4688 82.6394 27.6408 82.335L27.4667 82.2367C27.3125 82.5095 27.099 82.7242 26.8237 82.8819L26.9231 83.0555ZM25.924 83.3191C26.2827 83.3191 26.6169 83.2309 26.9231 83.0555L26.8237 82.8819C26.5483 83.0397 26.2484 83.1191 25.924 83.1191V83.3191ZM24.5415 82.7462C24.9226 83.1273 25.3856 83.3191 25.924 83.3191V83.1191C25.4387 83.1191 25.0266 82.9484 24.683 82.6048L24.5415 82.7462ZM23.9678 81.3426C23.9678 81.8946 24.159 82.3646 24.5416 82.7463L24.6829 82.6047C24.339 82.2617 24.1678 81.8431 24.1678 81.3426H23.9678ZM24.2274 80.327C24.0532 80.632 23.9678 80.9716 23.9678 81.3426H24.1678C24.1678 81.0035 24.2455 80.6986 24.401 80.4263L24.2274 80.327ZM24.9466 79.6003C24.6402 79.7801 24.3991 80.0221 24.2271 80.3276L24.4013 80.4257C24.5554 80.1521 24.7709 79.9353 25.0479 79.7728L24.9466 79.6003ZM25.905 79.1001C26.5468 79.1001 27.079 79.3146 27.5086 79.7419L27.6496 79.6002C27.1805 79.1335 26.5967 78.9001 25.905 78.9001V79.1001ZM24.8075 79.3951C25.1454 79.1983 25.5103 79.1001 25.905 79.1001V78.9001C25.4752 78.9001 25.0756 79.0076 24.7069 79.2223L24.8075 79.3951ZM24.0073 80.2107C24.2025 79.8629 24.4697 79.5918 24.8075 79.3951L24.7069 79.2223C24.338 79.4371 24.0454 79.7341 23.8329 80.1129L24.0073 80.2107ZM23.713 81.3445C23.713 80.9361 23.8111 80.5589 24.0072 80.2109L23.833 80.1127C23.6197 80.4912 23.513 80.9024 23.513 81.3445H23.713ZM24.3577 82.9043C23.9272 82.4743 23.713 81.9563 23.713 81.3445H23.513C23.513 82.0091 23.7481 82.5781 24.2163 83.0458L24.3577 82.9043ZM25.9403 83.5497C25.3129 83.5497 24.7878 83.3348 24.3578 82.9044L24.2163 83.0457C24.6849 83.5148 25.2614 83.7497 25.9403 83.7497V83.5497ZM27.51 82.9019C27.0806 83.3342 26.5591 83.5497 25.9403 83.5497V83.7497C26.6115 83.7497 27.1844 83.5136 27.6519 83.0428L27.51 82.9019ZM28.1531 81.3235C28.1531 81.945 27.9394 82.4694 27.51 82.9019L27.6519 83.0428C28.1193 82.5721 28.3531 81.9967 28.3531 81.3235H28.1531ZM27.5085 79.7419C27.9384 80.1704 28.1531 80.6955 28.1531 81.3235H28.3531C28.3531 80.6441 28.1185 80.0676 27.6497 79.6002L27.5085 79.7419ZM30.8999 81.0464V79.545H30.6999V81.0464H30.8999ZM31.5467 80.9555L30.8011 80.9464L30.7987 81.1463L31.5443 81.1555L31.5467 80.9555ZM32.1698 80.8797C32.0489 80.9278 31.8448 80.9555 31.5455 80.9555V81.1555C31.8495 81.1555 32.0857 81.1285 32.2438 81.0655L32.1698 80.8797ZM32.4527 80.6514C32.3845 80.7565 32.2917 80.8323 32.1706 80.8794L32.2431 81.0658C32.4027 81.0037 32.5291 80.901 32.6205 80.7603L32.4527 80.6514ZM32.5561 80.2925C32.5561 80.4261 32.5214 80.5455 32.4527 80.6514L32.6205 80.7603C32.7112 80.6204 32.7561 80.463 32.7561 80.2925H32.5561ZM32.4525 79.9397C32.5218 80.0473 32.5561 80.1642 32.5561 80.2925H32.7561C32.7561 80.1259 32.7108 79.9714 32.6206 79.8314L32.4525 79.9397ZM32.1834 79.7163C32.294 79.7602 32.3839 79.8339 32.4527 79.94L32.6205 79.8311C32.5298 79.6914 32.4077 79.5902 32.2574 79.5304L32.1834 79.7163ZM31.5781 79.645C31.8743 79.645 32.0718 79.6718 32.1834 79.7163L32.2574 79.5304C32.1081 79.471 31.878 79.445 31.5781 79.445V79.645ZM30.7999 79.645H31.5781V79.445H30.7999V79.645ZM31.2366 79.0117H30.3596V79.2117H31.2366V79.0117ZM32.2794 79.0812C32.0897 79.0331 31.7387 79.0117 31.2366 79.0117V79.2117C31.7418 79.2117 32.0684 79.234 32.2302 79.2751L32.2794 79.0812ZM32.9488 79.4977C32.7753 79.2877 32.5508 79.1479 32.2787 79.081L32.2309 79.2752C32.4625 79.3322 32.6493 79.4491 32.7946 79.6251L32.9488 79.4977ZM33.2109 80.2916C33.2109 79.9793 33.1255 79.7126 32.949 79.4979L32.7945 79.6249C32.9369 79.7981 33.0109 80.0176 33.0109 80.2916H33.2109ZM32.9558 81.0838C33.1278 80.8715 33.2109 80.6049 33.2109 80.2916H33.0109C33.0109 80.5683 32.9382 80.7878 32.8004 80.9579L32.9558 81.0838ZM32.2576 81.505C32.5494 81.4341 32.7842 81.2944 32.9556 81.084L32.8006 80.9577C32.6604 81.1297 32.4658 81.2486 32.2104 81.3106L32.2576 81.505ZM31.1143 81.5797C31.6603 81.5797 32.045 81.5564 32.2575 81.505L32.2105 81.3106C32.0244 81.3557 31.6626 81.3797 31.1143 81.3797V81.5797ZM30.7999 81.5797H31.1143V81.3797H30.7999V81.5797ZM30.8999 83.5382V81.4797H30.6999V83.5382H30.8999ZM30.3596 83.6382H30.7999V83.4382H30.3596V83.6382ZM30.2596 79.1117V83.5382H30.4596V79.1117H30.2596ZM38.6818 83.4379H38.2234V83.6379H38.6818V83.4379ZM38.5818 79.1113V83.5379H38.7818V79.1113H38.5818ZM38.583 79.2113H38.6818V79.0113H38.583V79.2113ZM35.7369 82.6283L38.6594 79.1759L38.5067 79.0467L35.5842 82.4991L35.7369 82.6283ZM35.5605 79.1113V82.5637H35.7605V79.1113H35.5605ZM35.2212 79.2113H35.6605V79.0113H35.2212V79.2113ZM35.3212 83.5379V79.1113H35.1212V83.5379H35.3212ZM35.3199 83.4379H35.2212V83.6379H35.3199V83.4379ZM38.1474 80.0788L35.2439 83.4729L35.3959 83.6029L38.2994 80.2088L38.1474 80.0788ZM38.3234 83.5379V80.1438H38.1234V83.5379H38.3234ZM41.6494 79.7163C41.7609 79.6719 41.9601 79.645 42.2601 79.645V79.445C41.9568 79.445 41.7247 79.471 41.5754 79.5304L41.6494 79.7163ZM41.3816 79.9387C41.4506 79.8338 41.5399 79.7601 41.6496 79.7162L41.5752 79.5305C41.4258 79.5904 41.3049 79.6915 41.2145 79.8287L41.3816 79.9387ZM41.2775 80.288C41.2775 80.1586 41.3119 80.0433 41.3813 79.9391L41.2148 79.8283C41.1229 79.9663 41.0775 80.1205 41.0775 80.288H41.2775ZM41.3806 80.6485C41.3122 80.5412 41.2775 80.4224 41.2775 80.288H41.0775C41.0775 80.4594 41.1226 80.6156 41.2119 80.7559L41.3806 80.6485ZM41.6631 80.8788C41.5405 80.8299 41.4476 80.7531 41.3804 80.6482L41.212 80.7562C41.3024 80.8972 41.4288 81.0006 41.5889 81.0646L41.6631 80.8788ZM42.2782 80.9555C41.9871 80.9555 41.7859 80.9271 41.6626 80.8786L41.5894 81.0648C41.7487 81.1274 41.9805 81.1555 42.2782 81.1555V80.9555ZM43.0356 80.9491L42.2774 80.9555L42.2791 81.1555L43.0373 81.1491L43.0356 80.9491ZM42.9365 79.545V81.0491H43.1365V79.545H42.9365ZM42.2601 79.645H43.0365V79.445H42.2601V79.645ZM43.0365 83.6382H43.4768V83.4382H43.0365V83.6382ZM42.9365 81.4825V83.5382H43.1365V81.4825H42.9365ZM42.7883 81.5825H43.0365V81.3825H42.7883V81.5825ZM41.283 83.5993L42.8675 81.5435L42.7091 81.4214L41.1246 83.4772L41.283 83.5993ZM40.6594 83.6382H41.2038V83.4382H40.6594V83.6382ZM42.1646 81.4214L40.5802 83.4772L40.7386 83.5993L42.323 81.5435L42.1646 81.4214ZM41.3341 81.4308C41.5616 81.5327 41.8675 81.5806 42.2433 81.5825L42.2443 81.3825C41.8809 81.3807 41.607 81.3339 41.4159 81.2483L41.3341 81.4308ZM40.8062 80.9779C40.9307 81.179 41.108 81.3304 41.3345 81.4309L41.4156 81.2481C41.2236 81.1629 41.0783 81.0375 40.9763 80.8726L40.8062 80.9779ZM40.6228 80.2898C40.6228 80.5472 40.6829 80.777 40.8061 80.9776L40.9765 80.873C40.875 80.7075 40.8228 80.5148 40.8228 80.2898H40.6228ZM40.8912 79.495C40.7105 79.7137 40.6228 79.9801 40.6228 80.2898H40.8228C40.8228 80.0204 40.8981 79.8007 41.0454 79.6224L40.8912 79.495ZM41.5834 79.0744C41.3016 79.14 41.0691 79.2795 40.8912 79.495L41.0454 79.6223C41.1936 79.4428 41.3869 79.3255 41.6287 79.2691L41.5834 79.0744ZM42.5998 79.0117C42.1119 79.0117 41.7693 79.0313 41.5835 79.0743L41.6286 79.2692C41.7889 79.2321 42.1094 79.2117 42.5998 79.2117V79.0117ZM43.4768 79.0117H42.5998V79.2117H43.4768V79.0117ZM43.5768 83.5382V79.1117H43.3768V83.5382H43.5768ZM52.7518 79.854L52.4049 80.1217L52.527 80.2801L52.874 80.0124L52.7518 79.854ZM51.9544 79.3356C52.2713 79.4913 52.5294 79.71 52.7317 79.9916L52.8941 79.8748C52.6725 79.5664 52.3888 79.3262 52.0426 79.1561L51.9544 79.3356ZM50.8851 79.1C51.2827 79.1 51.6378 79.1791 51.9542 79.3355L52.0428 79.1562C51.696 78.9848 51.3101 78.9 50.8851 78.9V79.1ZM49.2556 79.7352C49.6874 79.3125 50.2278 79.1 50.8851 79.1V78.9C50.1799 78.9 49.5879 79.13 49.1157 79.5922L49.2556 79.7352ZM48.608 81.2989C48.608 80.6777 48.8233 80.1583 49.2556 79.7352L49.1157 79.5923C48.6438 80.0541 48.408 80.6254 48.408 81.2989H48.608ZM49.1438 82.8107C48.7873 82.395 48.608 81.8933 48.608 81.2989H48.408C48.408 81.9372 48.602 82.4861 48.9919 82.9409L49.1438 82.8107ZM50.8905 83.5496C50.1454 83.5496 49.5668 83.3007 49.1435 82.8104L48.9921 82.9411C49.4585 83.4814 50.0956 83.7496 50.8905 83.7496V83.5496ZM51.9491 83.3286C51.6347 83.4748 51.2833 83.5496 50.8905 83.5496V83.7496C51.3094 83.7496 51.69 83.6697 52.0334 83.51L51.9491 83.3286ZM52.734 82.7059C52.5248 82.9745 52.2629 83.1814 51.9488 83.3288L52.0337 83.5098C52.3754 83.3495 52.6626 83.123 52.8918 82.8289L52.734 82.7059ZM52.4052 82.582L52.7522 82.8469L52.8736 82.6879L52.5266 82.423L52.4052 82.582ZM50.9177 83.3308C51.565 83.3308 52.1079 83.075 52.5419 82.5675L52.3899 82.4375C51.9924 82.9023 51.5043 83.1308 50.9177 83.1308V83.3308ZM49.4543 82.7604C49.8426 83.142 50.3334 83.3308 50.9177 83.3308V83.1308C50.3806 83.1308 49.9418 82.9591 49.5945 82.6178L49.4543 82.7604ZM48.8718 81.338C48.8718 81.9033 49.0655 82.3802 49.4545 82.7606L49.5943 82.6176C49.2459 82.2769 49.0718 81.8525 49.0718 81.338H48.8718ZM49.1315 80.3241C48.9582 80.6263 48.8718 80.9651 48.8718 81.338H49.0718C49.0718 80.9972 49.1504 80.6932 49.305 80.4236L49.1315 80.3241ZM49.8657 79.604C49.5509 79.7817 49.3058 80.0219 49.1316 80.3239L49.3049 80.4238C49.4604 80.1541 49.6791 79.939 49.9641 79.7781L49.8657 79.604ZM50.8905 79.337C50.5222 79.337 50.1799 79.426 49.8656 79.604L49.9642 79.778C50.2477 79.6174 50.5559 79.537 50.8905 79.537V79.337ZM51.8191 79.5409C51.5363 79.4045 51.2259 79.337 50.8905 79.337V79.537C51.1984 79.537 51.4787 79.5988 51.7322 79.721L51.8191 79.5409ZM52.5453 80.14C52.3443 79.8781 52.1022 79.6774 51.8191 79.5409L51.7322 79.721C51.9853 79.8431 52.2034 80.023 52.3866 80.2617L52.5453 80.14ZM56.1627 79.7729C56.4398 79.6112 56.7314 79.5307 57.0391 79.5307V79.3307C56.6945 79.3307 56.3682 79.4214 56.0619 79.6002L56.1627 79.7729ZM55.5154 80.4259C55.6704 80.1522 55.8859 79.9353 56.1629 79.7728L56.0617 79.6003C55.7553 79.7801 55.5142 80.0221 55.3413 80.3274L55.5154 80.4259ZM55.2828 81.3426C55.2828 81.0035 55.3605 80.6985 55.5153 80.4261L55.3414 80.3273C55.1682 80.6321 55.0828 80.9716 55.0828 81.3426H55.2828ZM55.7979 82.6047C55.454 82.2617 55.2828 81.8431 55.2828 81.3426H55.0828C55.0828 81.8946 55.274 82.3646 55.6567 82.7463L55.7979 82.6047ZM57.0391 83.1191C56.5537 83.1191 56.1416 82.9484 55.798 82.6048L55.6566 82.7462C56.0377 83.1273 56.5007 83.3191 57.0391 83.3191V83.1191ZM57.9387 82.8819C57.6633 83.0397 57.3634 83.1191 57.0391 83.1191V83.3191C57.3977 83.3191 57.732 83.2309 58.0382 83.0555L57.9387 82.8819ZM58.5817 82.2367C58.4276 82.5095 58.2141 82.7242 57.9387 82.8819L58.0382 83.0555C58.3444 82.88 58.5839 82.6394 58.7559 82.335L58.5817 82.2367ZM58.8134 81.3217C58.8134 81.6589 58.7358 81.9632 58.5817 82.2368L58.7559 82.3349C58.928 82.0295 59.0134 81.691 59.0134 81.3217H58.8134ZM58.5821 80.4182C58.7358 80.686 58.8134 80.9864 58.8134 81.3217H59.0134C59.0134 80.9541 58.9279 80.619 58.7555 80.3187L58.5821 80.4182ZM57.9303 79.7731C58.212 79.9359 58.4282 80.1502 58.5821 80.4182L58.7555 80.3187C58.5833 80.0186 58.3411 79.7795 58.0303 79.6L57.9303 79.7731ZM57.0391 79.5307C57.3525 79.5307 57.6497 79.6114 57.9304 79.7732L58.0302 79.5999C57.7202 79.4212 57.3887 79.3307 57.0391 79.3307V79.5307ZM58.7647 79.6002C58.2956 79.1335 57.7117 78.9001 57.02 78.9001V79.1001C57.6618 79.1001 58.1941 79.3146 58.6236 79.7419L58.7647 79.6002ZM59.4682 81.3235C59.4682 80.6441 59.2336 80.0676 58.7648 79.6002L58.6236 79.7419C59.0535 80.1704 59.2682 80.6955 59.2682 81.3235H59.4682ZM58.7669 83.0428C59.2344 82.5721 59.4682 81.9967 59.4682 81.3235H59.2682C59.2682 81.945 59.0544 82.4694 58.625 82.9019L58.7669 83.0428ZM57.0554 83.7497C57.7266 83.7497 58.2994 83.5136 58.7669 83.0428L58.625 82.9019C58.1957 83.3342 57.6742 83.5497 57.0554 83.5497V83.7497ZM55.3313 83.0457C55.8 83.5148 56.3765 83.7497 57.0554 83.7497V83.5497C56.4279 83.5497 55.9028 83.3348 55.4728 82.9044L55.3313 83.0457ZM54.6281 81.3445C54.6281 82.0091 54.8632 82.5781 55.3314 83.0458L55.4727 82.9043C55.0423 82.4743 54.8281 81.9563 54.8281 81.3445H54.6281ZM54.9482 80.1125C54.7337 80.4913 54.6281 80.9026 54.6281 81.3445H54.8281C54.8281 80.936 54.9253 80.5588 55.1222 80.2111L54.9482 80.1125ZM55.8219 79.2223C55.4531 79.4371 55.1605 79.7341 54.948 80.1129L55.1224 80.2107C55.3176 79.8629 55.5848 79.5918 55.9226 79.3951L55.8219 79.2223ZM57.02 78.9001C56.5903 78.9001 56.1906 79.0076 55.8219 79.2223L55.9226 79.3951C56.2605 79.1983 56.6254 79.1001 57.02 79.1001V78.9001ZM61.643 79.607C61.9338 79.2667 62.2897 79.1003 62.7139 79.1003V78.9003C62.2286 78.9003 61.818 79.0944 61.491 79.477L61.643 79.607ZM61.9362 79.7378L61.6336 79.4674L61.5004 79.6166L61.803 79.887L61.9362 79.7378ZM62.7021 79.31C62.3731 79.31 62.0704 79.4601 61.7976 79.743L61.9416 79.8818C62.1869 79.6275 62.4405 79.51 62.7021 79.51V79.31ZM63.3365 79.5562C63.1672 79.3901 62.9526 79.31 62.7021 79.31V79.51C62.9064 79.51 63.0687 79.5737 63.1965 79.699L63.3365 79.5562ZM63.5903 80.2148C63.5903 79.9466 63.5087 79.7229 63.3361 79.5557L63.1969 79.6994C63.3233 79.8218 63.3903 79.9896 63.3903 80.2148H63.5903ZM62.511 81.1105C62.8481 81.1105 63.1197 81.0422 63.3083 80.889C63.5008 80.7325 63.5903 80.5014 63.5903 80.2148H63.3903C63.3903 80.4581 63.3162 80.6248 63.1822 80.7338C63.0442 80.8459 62.8261 80.9105 62.511 80.9105V81.1105ZM62.3642 81.1105H62.511V80.9105H62.3642V81.1105ZM62.4642 81.3984V81.0105H62.2642V81.3984H62.4642ZM62.4394 81.2984H62.3642V81.4984H62.4394V81.2984ZM62.9991 81.3301C62.8798 81.3083 62.6908 81.2984 62.4394 81.2984V81.4984C62.6899 81.4984 62.8632 81.5085 62.9632 81.5268L62.9991 81.3301ZM63.3814 81.4886C63.2521 81.4071 63.1242 81.3529 62.9991 81.3301L62.9632 81.5268C63.0573 81.544 63.1613 81.5863 63.2748 81.6578L63.3814 81.4886ZM63.699 81.8256C63.6242 81.6857 63.5176 81.5737 63.3811 81.4884L63.2751 81.658C63.3833 81.7256 63.465 81.8121 63.5225 81.9198L63.699 81.8256ZM63.8113 82.307C63.8113 82.1268 63.775 81.965 63.6985 81.8248L63.523 81.9206C63.5806 82.0263 63.6113 82.1539 63.6113 82.307H63.8113ZM63.4818 83.1004C63.7056 82.914 63.8113 82.6441 63.8113 82.307H63.6113C63.6113 82.6 63.5214 82.8071 63.3538 82.9467L63.4818 83.1004ZM62.7048 83.3675C63.0058 83.3675 63.2663 83.2788 63.4816 83.1005L63.354 82.9465C63.1779 83.0923 62.9637 83.1675 62.7048 83.1675V83.3675ZM62.1079 83.2292C62.2986 83.3211 62.4982 83.3675 62.7048 83.3675V83.1675C62.5292 83.1675 62.3592 83.1283 62.1947 83.0491L62.1079 83.2292ZM61.496 82.6163C61.7026 82.9208 61.9051 83.132 62.1081 83.2293L62.1946 83.049C62.0406 82.9751 61.8626 82.8003 61.6615 82.504L61.496 82.6163ZM61.288 82.8475L61.6296 82.6463L61.528 82.4739L61.1865 82.6752L61.288 82.8475ZM61.9443 83.3654C61.7309 83.2443 61.5225 83.0296 61.3221 82.7084L61.1524 82.8142C61.3633 83.1522 61.5934 83.3963 61.8456 83.5393L61.9443 83.3654ZM62.7166 83.549C62.4155 83.549 62.1594 83.4865 61.944 83.3652L61.8459 83.5395C62.0962 83.6804 62.3872 83.749 62.7166 83.749V83.549ZM63.7142 83.2094C63.4783 83.4324 63.1503 83.549 62.7166 83.549V83.749C63.187 83.749 63.5693 83.6216 63.8516 83.3548L63.7142 83.2094ZM64.0724 82.3134C64.0724 82.6902 63.9516 82.9858 63.7143 83.2093L63.8514 83.3549C64.1341 83.0886 64.2724 82.7377 64.2724 82.3134H64.0724ZM63.2713 81.2353C63.5469 81.3208 63.7448 81.4534 63.8745 81.6281C64.0041 81.8028 64.0724 82.0288 64.0724 82.3134H64.2724C64.2724 81.9962 64.1958 81.7255 64.0351 81.5089C63.8744 81.2924 63.6365 81.1391 63.3305 81.0443L63.2713 81.2353ZM63.8632 80.1274C63.8632 80.3466 63.8119 80.5287 63.7138 80.6785C63.6156 80.8286 63.466 80.9529 63.2588 81.0491L63.3431 81.2305C63.577 81.1219 63.7586 80.9753 63.8812 80.7881C64.0039 80.6006 64.0631 80.3789 64.0631 80.1274H63.8632ZM63.5434 79.3891C63.7563 79.5784 63.8632 79.8218 63.8632 80.1274H64.0631C64.0631 79.7683 63.9345 79.4692 63.6763 79.2396L63.5434 79.3891ZM62.7139 79.1003C63.0547 79.1003 63.3289 79.1984 63.5434 79.3891L63.6763 79.2396C63.4197 79.0116 63.096 78.9003 62.7139 78.9003V79.1003ZM69.3645 83.0257H66.6758V83.2257H69.3645V83.0257ZM67.8943 80.0635L69.2731 83.1663L69.4559 83.085L68.0771 79.9823L67.8943 80.0635ZM66.7679 83.1646L68.0779 80.0618L67.8936 79.984L66.5836 83.0868L66.7679 83.1646ZM65.8206 84.3H66.2554V84.1H65.8206V84.3ZM65.7206 83.1257V84.2H65.9206V83.1257H65.7206ZM66.1784 83.0257H65.8206V83.2257H66.1784V83.0257ZM67.8151 79.072L66.0866 83.0861L66.2703 83.1652L67.9988 79.1511L67.8151 79.072ZM68.06 79.0115H67.9069V79.2115H68.06V79.0115ZM69.9765 83.0843L68.151 79.0701L67.969 79.1529L69.7944 83.1671L69.9765 83.0843ZM70.2279 83.0257H69.8854V83.2257H70.2279V83.0257ZM70.3279 84.2V83.1257H70.1279V84.2H70.3279ZM69.7939 84.3H70.2279V84.1H69.7939V84.3ZM69.6939 83.5381V84.2H69.8939V83.5381H69.6939ZM66.2554 83.6381H69.7939V83.4381H66.2554V83.6381ZM66.3554 84.2V83.5381H66.1554V84.2H66.3554ZM73.7334 80.0094L72.9788 81.6118L73.1598 81.697L73.9144 80.0946L73.7334 80.0094ZM74.6655 81.6119L73.9145 80.0096L73.7334 80.0944L74.4844 81.6968L74.6655 81.6119ZM73.0693 81.7544H74.5749V81.5544H73.0693V81.7544ZM73.7885 79.1536L75.8431 83.5802L76.0245 83.496L73.9699 79.0694L73.7885 79.1536ZM73.7714 79.2115H73.8792V79.0115H73.7714V79.2115ZM71.7819 83.5806L73.8619 79.154L73.6809 79.069L71.6009 83.4956L71.7819 83.5806ZM72.1824 83.4381H71.6914V83.6381H72.1824V83.4381ZM72.7777 82.0388L72.0919 83.4955L72.2729 83.5807L72.9587 82.124L72.7777 82.0388ZM74.7652 81.9814H72.8682V82.1814H74.7652V81.9814ZM75.5485 83.4951L74.8555 82.0384L74.6749 82.1243L75.3679 83.5811L75.5485 83.4951ZM75.9338 83.4381H75.4582V83.6381H75.9338V83.4381ZM78.2766 79.0118H77.8363V79.2118H78.2766V79.0118ZM78.3766 80.9682V79.1118H78.1766V80.9682H78.3766ZM80.5188 80.8682H78.2766V81.0682H80.5188V80.8682ZM80.4188 79.1118V80.9682H80.6188V79.1118H80.4188ZM80.959 79.0118H80.5188V79.2118H80.959V79.0118ZM81.059 83.5384V79.1118H80.859V83.5384H81.059ZM80.5188 83.6384H80.959V83.4384H80.5188V83.6384ZM80.4188 81.4016V83.5384H80.6188V81.4016H80.4188ZM78.2766 81.5016H80.5188V81.3016H78.2766V81.5016ZM78.3766 83.5384V81.4016H78.1766V83.5384H78.3766ZM77.8363 83.6384H78.2766V83.4384H77.8363V83.6384ZM77.7363 79.1118V83.5384H77.9363V79.1118H77.7363ZM83.2514 79.2118H83.6917V79.0118H83.2514V79.2118ZM83.3514 83.5384V79.1118H83.1514V83.5384H83.3514ZM83.6917 83.4384H83.2514V83.6384H83.6917V83.4384ZM83.5917 81.4016V83.5384H83.7917V81.4016H83.5917ZM85.9338 81.3016H83.6917V81.5016H85.9338V81.3016ZM86.0338 83.5384V81.4016H85.8338V83.5384H86.0338ZM86.3741 83.4384H85.9338V83.6384H86.3741V83.4384ZM86.2741 79.1118V83.5384H86.4741V79.1118H86.2741ZM85.9338 79.2118H86.3741V79.0118H85.9338V79.2118ZM86.0338 80.9682V79.1118H85.8338V80.9682H86.0338ZM83.6917 81.0682H85.9338V80.8682H83.6917V81.0682ZM83.5917 79.1118V80.9682H83.7917V79.1118H83.5917ZM89.7519 81.697L90.5066 80.0946L90.3256 80.0094L89.571 81.6118L89.7519 81.697ZM91.1671 81.5544H89.6615V81.7544H91.1671V81.5544ZM90.3255 80.0944L91.0765 81.6968L91.2576 81.6119L90.5066 80.0096L90.3255 80.0944ZM92.6167 83.496L90.562 79.0694L90.3806 79.1536L92.4353 83.5802L92.6167 83.496ZM92.0504 83.6381H92.526V83.4381H92.0504V83.6381ZM91.267 82.1243L91.9601 83.5811L92.1407 83.4951L91.4476 82.0384L91.267 82.1243ZM89.4604 82.1814H91.3573V81.9814H89.4604V82.1814ZM88.8651 83.5807L89.5508 82.124L89.3699 82.0388L88.6841 83.4955L88.8651 83.5807ZM88.2836 83.6381H88.7746V83.4381H88.2836V83.6381ZM90.273 79.069L88.1931 83.4956L88.3741 83.5806L90.4541 79.154L90.273 79.069ZM90.4713 79.0115H90.3636V79.2115H90.4713V79.0115ZM95.7146 79.445C95.4112 79.445 95.1792 79.471 95.0299 79.5304L95.1038 79.7163C95.2154 79.6719 95.4146 79.645 95.7146 79.645V79.445ZM96.491 79.445H95.7146V79.645H96.491V79.445ZM96.591 81.0491V79.545H96.391V81.0491H96.591ZM95.7336 81.1555L96.4918 81.1491L96.4901 80.9491L95.7319 80.9555L95.7336 81.1555ZM95.0439 81.0648C95.2032 81.1274 95.435 81.1555 95.7327 81.1555V80.9555C95.4416 80.9555 95.2404 80.9271 95.117 80.8786L95.0439 81.0648ZM94.6665 80.7562C94.7569 80.8972 94.8833 81.0006 95.0434 81.0646L95.1176 80.8788C94.995 80.8299 94.9021 80.7531 94.8349 80.6482L94.6665 80.7562ZM94.532 80.288C94.532 80.4594 94.5771 80.6156 94.6664 80.7559L94.8351 80.6485C94.7667 80.5412 94.732 80.4224 94.732 80.288H94.532ZM94.6693 79.8283C94.5774 79.9663 94.532 80.1205 94.532 80.288H94.732C94.732 80.1586 94.7664 80.0433 94.8358 79.9391L94.6693 79.8283ZM95.0297 79.5305C94.8802 79.5904 94.7594 79.6915 94.669 79.8287L94.8361 79.9387C94.9051 79.8338 94.9944 79.7601 95.1041 79.7162L95.0297 79.5305ZM96.9313 83.4382H96.491V83.6382H96.9313V83.4382ZM96.8313 79.1117V83.5382H97.0312V79.1117H96.8313ZM96.0543 79.2117H96.9313V79.0117H96.0543V79.2117ZM95.0831 79.2692C95.2434 79.2321 95.5639 79.2117 96.0543 79.2117V79.0117C95.5664 79.0117 95.2237 79.0313 95.038 79.0743L95.0831 79.2692ZM94.4999 79.6223C94.6481 79.4428 94.8413 79.3255 95.0832 79.2691L95.0378 79.0744C94.7561 79.14 94.5236 79.2795 94.3456 79.495L94.4999 79.6223ZM94.2773 80.2898C94.2773 80.0204 94.3526 79.8007 94.4999 79.6224L94.3457 79.495C94.165 79.7137 94.0773 79.9801 94.0773 80.2898H94.2773ZM94.431 80.873C94.3294 80.7075 94.2773 80.5148 94.2773 80.2898H94.0773C94.0773 80.5472 94.1374 80.777 94.2605 80.9776L94.431 80.873ZM94.8701 81.2481C94.6781 81.1629 94.5328 81.0375 94.4308 80.8726L94.2607 80.9779C94.3852 81.179 94.5625 81.3304 94.789 81.4309L94.8701 81.2481ZM95.6988 81.3825C95.3354 81.3807 95.0615 81.3339 94.8704 81.2483L94.7886 81.4308C95.0161 81.5327 95.3219 81.5806 95.6978 81.5825L95.6988 81.3825ZM94.1931 83.5993L95.7775 81.5435L95.6191 81.4214L94.0346 83.4772L94.1931 83.5993ZM94.6583 83.4382H94.1139V83.6382H94.6583V83.4382ZM96.1636 81.4214L94.5791 83.4772L94.7375 83.5993L96.322 81.5435L96.1636 81.4214ZM96.491 81.3825H96.2428V81.5825H96.491V81.3825ZM96.591 83.5382V81.4825H96.391V83.5382H96.591ZM102.709 83.1047V81.4076H102.509V83.1047H102.709ZM103.155 83.0047H102.609V83.2047H103.155V83.0047ZM103.825 82.9177C103.693 82.9726 103.474 83.0047 103.155 83.0047V83.2047C103.48 83.2047 103.732 83.173 103.902 83.1022L103.825 82.9177ZM104.142 82.657C104.061 82.7756 103.956 82.8617 103.824 82.918L103.902 83.102C104.069 83.0308 104.205 82.9202 104.307 82.7694L104.142 82.657ZM104.261 82.2771C104.261 82.4131 104.222 82.5393 104.142 82.6571L104.308 82.7692C104.409 82.6194 104.461 82.4543 104.461 82.2771H104.261ZM104.094 81.8284C104.206 81.9564 104.261 82.1042 104.261 82.2771H104.461C104.461 82.0567 104.389 81.862 104.245 81.697L104.094 81.8284ZM103.617 81.5585C103.825 81.6091 103.982 81.7002 104.094 81.8286L104.245 81.6967C104.1 81.532 103.905 81.4227 103.665 81.3642L103.617 81.5585ZM102.858 81.5076C103.23 81.5076 103.481 81.5261 103.618 81.5586L103.664 81.364C103.502 81.3255 103.23 81.3076 102.858 81.3076V81.5076ZM102.609 81.5076H102.858V81.3076H102.609V81.5076ZM102.709 80.9624V79.5448H102.509V80.9624H102.709ZM102.861 80.8624H102.609V81.0624H102.861V80.8624ZM103.499 80.7838C103.374 80.8331 103.164 80.8624 102.861 80.8624V81.0624C103.17 81.0624 103.411 81.0334 103.573 80.9698L103.499 80.7838ZM103.796 80.5492C103.723 80.6558 103.625 80.7336 103.499 80.7839L103.573 80.9697C103.735 80.9053 103.865 80.8028 103.961 80.6618L103.796 80.5492ZM103.905 80.1949C103.905 80.3254 103.869 80.4431 103.796 80.5489L103.961 80.662C104.057 80.5221 104.105 80.3648 104.105 80.1949H103.905ZM103.73 79.795C103.845 79.8894 103.905 80.019 103.905 80.1949H104.105C104.105 79.9665 104.023 79.7774 103.857 79.6406L103.73 79.795ZM103.119 79.6448C103.418 79.6448 103.615 79.7021 103.73 79.7955L103.856 79.6402C103.689 79.504 103.436 79.4448 103.119 79.4448V79.6448ZM102.609 79.6448H103.119V79.4448H102.609V79.6448ZM103.046 79.0115H102.178V79.2115H103.046V79.0115ZM103.893 79.1446C103.686 79.0537 103.401 79.0115 103.046 79.0115V79.2115C103.39 79.2115 103.642 79.253 103.812 79.3277L103.893 79.1446ZM104.381 79.5672C104.262 79.3772 104.098 79.2366 103.893 79.1449L103.812 79.3275C103.981 79.4033 104.114 79.5176 104.212 79.6736L104.381 79.5672ZM104.559 80.1949C104.559 79.9664 104.5 79.7556 104.381 79.567L104.212 79.6738C104.31 79.8293 104.359 80.0027 104.359 80.1949H104.559ZM104.403 80.7829C104.508 80.6054 104.559 80.4083 104.559 80.1949H104.359C104.359 80.3748 104.317 80.5364 104.231 80.6812L104.403 80.7829ZM103.944 81.2124C104.143 81.1045 104.297 80.9614 104.403 80.7832L104.231 80.6808C104.145 80.825 104.02 80.9441 103.849 81.0365L103.944 81.2124ZM104.49 81.3244C104.354 81.2075 104.164 81.1104 103.929 81.0298L103.864 81.219C104.086 81.2951 104.25 81.3819 104.36 81.4762L104.49 81.3244ZM104.804 81.7399C104.729 81.5777 104.624 81.4384 104.49 81.3241L104.36 81.4765C104.472 81.5716 104.559 81.6872 104.622 81.8237L104.804 81.7399ZM104.917 82.268C104.917 82.0805 104.879 81.9041 104.804 81.7401L104.622 81.8235C104.685 81.9599 104.717 82.1077 104.717 82.268H104.917ZM104.498 83.2417C104.776 82.9772 104.917 82.6506 104.917 82.268H104.717C104.717 82.5954 104.598 82.8698 104.36 83.0969L104.498 83.2417ZM103.387 83.638C103.843 83.638 104.216 83.509 104.497 83.2419L104.36 83.0967C104.123 83.3213 103.804 83.438 103.387 83.438V83.638ZM102.178 83.638H103.387V83.438H102.178V83.638ZM102.078 79.1115V83.538H102.278V79.1115H102.078ZM108.566 80.0094L107.812 81.6118L107.993 81.697L108.747 80.0946L108.566 80.0094ZM109.498 81.6119L108.747 80.0096L108.566 80.0944L109.317 81.6968L109.498 81.6119ZM107.902 81.7544H109.408V81.5544H107.902V81.7544ZM108.621 79.1536L110.676 83.5802L110.857 83.496L108.803 79.0694L108.621 79.1536ZM108.604 79.2115H108.712V79.0115H108.604V79.2115ZM106.615 83.5806L108.695 79.154L108.514 79.069L106.434 83.4956L106.615 83.5806ZM107.015 83.4381H106.524V83.6381H107.015V83.4381ZM107.611 82.0388L106.925 83.4955L107.106 83.5807L107.792 82.124L107.611 82.0388ZM109.598 81.9814H107.701V82.1814H109.598V81.9814ZM110.381 83.4951L109.688 82.0384L109.508 82.1243L110.201 83.5811L110.381 83.4951ZM110.767 83.4381H110.291V83.6381H110.767V83.4381ZM113.006 79.0972L112.375 83.5238L112.573 83.552L113.204 79.1254L113.006 79.0972ZM113.176 79.0113H113.105V79.2113H113.176V79.0113ZM115.056 82.6998L113.266 79.0671L113.087 79.1555L114.877 82.7882L115.056 82.6998ZM116.65 79.0675L114.877 82.7001L115.056 82.7879L116.83 79.1552L116.65 79.0675ZM116.811 79.0113H116.74V79.2113H116.811V79.0113ZM117.543 83.5237L116.91 79.0972L116.712 79.1255L117.345 83.5521L117.543 83.5237ZM117.013 83.6379H117.444V83.4379H117.013V83.6379ZM116.478 80.3859L116.914 83.5515L117.112 83.5243L116.676 80.3587L116.478 80.3859ZM115.11 83.582L116.667 80.4164L116.487 80.3282L114.931 83.4938L115.11 83.582ZM114.908 83.6379H115.021V83.4379H114.908V83.6379ZM113.242 80.3929L114.818 83.5822L114.997 83.4936L113.422 80.3043L113.242 80.3929ZM112.998 83.5514L113.431 80.3621L113.233 80.3352L112.8 83.5245L112.998 83.5514ZM112.474 83.6379H112.899V83.4379H112.474V83.6379ZM123 83.4379H122.542V83.6379H123V83.4379ZM122.9 79.1113V83.5379H123.1V79.1113H122.9ZM122.901 79.2113H123V79.0113H122.901V79.2113ZM120.055 82.6283L122.978 79.1759L122.825 79.0467L119.902 82.4991L120.055 82.6283ZM119.879 79.1113V82.5637H120.079V79.1113H119.879ZM119.539 79.2113H119.979V79.0113H119.539V79.2113ZM119.639 83.5379V79.1113H119.439V83.5379H119.639ZM119.638 83.4379H119.539V83.6379H119.638V83.4379ZM122.466 80.0788L119.562 83.4729L119.714 83.6029L122.618 80.2088L122.466 80.0788ZM122.642 83.5379V80.1438H122.442V83.5379H122.642Z" fill="#E3DACF"/>
</g>
<defs>
<clipPath id="clip0_130_857">
<rect width="132" height="86" fill="white"/>
</clipPath>
</defs>
</svg>
