<svg width="133" height="89" viewBox="0 0 133 89" fill="none" xmlns="http://www.w3.org/2000/svg">
<path d="M62.9954 44.8051C60.0152 44.1532 58.8068 42.9616 58.943 41.395C59.0647 39.9956 60.4188 38.3837 62.6086 36.6667C67.067 33.1707 75.1839 29.0084 83.2124 25.3404C77.5599 26.9451 71.9194 28.8126 66.0712 31.0334C57.4672 34.3026 48.4261 38.3384 38.2627 43.4248L34.2461 45.4355L37.5129 42.3526C46.5945 33.7844 54.2028 26.3314 60.4737 20.1894C73.7869 7.14847 81.1515 -0.06811 84.0028 0.588595C85.7102 0.980229 85.9061 3.46377 84.7909 8.3186C84.213 10.838 81.7151 19.8002 80.6118 21.5578C80.9844 19.6378 81.4261 17.4719 81.9419 15.0504C82.3981 12.9131 82.9163 10.5729 83.5013 8.02249C84.4159 4.04167 84.5091 2.06439 83.7067 1.88051C81.5599 1.38619 74.3791 8.42129 61.4002 21.1351C55.8648 26.5583 49.2906 32.9988 41.6036 40.3037C50.2458 36.0912 58.0928 32.6525 65.6031 29.7988C74.243 26.5153 82.4482 23.9983 90.9137 21.959L98.6151 20.1035L91.3269 23.2127C81.3808 27.4538 69.2043 33.1802 63.4205 37.7127C61.5172 39.2052 60.3495 40.5138 60.2635 41.5144C60.1919 42.3478 61.0922 43.038 63.2748 43.5156C68.2992 44.6165 79.2554 44.2702 98.9924 41.6028C88.5066 44.8051 68.2228 45.949 62.9954 44.8051Z" fill="#A18B7C"/>
<path d="M7.90596 62.6483L13.1023 75.0564L14.2867 75.4075V75.5914H9.8307V75.4075L11.051 75.0564L9.49876 71.3025H3.9108L2.28457 75.0564L3.9108 75.4075V75.5914H0.620117V75.4075L1.87861 75.0564L7.29701 62.6483H7.90596ZM6.77881 64.6805L4.07797 70.9132H9.32921L6.77881 64.6805Z" fill="#1B1B1B"/>
<path d="M27.046 63.1451V70.782C27.046 72.2984 26.5803 73.4971 25.649 74.3783C24.7177 75.2595 23.495 75.7013 21.9786 75.7013C20.4503 75.7013 19.2157 75.2571 18.2796 74.3688C17.3435 73.4804 16.873 72.2864 16.873 70.782V63.1809L15.6719 62.8299V62.646H20.073V62.8299L18.8718 63.1809V70.782C18.8718 72.1145 19.2252 73.1461 19.9345 73.8792C20.6437 74.6123 21.5703 74.9801 22.7189 74.9801C23.889 74.9801 24.8419 74.6052 25.575 73.853C26.3081 73.1007 26.6759 72.0787 26.6759 70.782V63.1451L25.4747 62.8132V62.646H28.2496V62.8132L27.046 63.1451Z" fill="#1B1B1B"/>
<path d="M41.1379 63.0161H37.68V75.0541L38.8812 75.4051V75.589H34.4801V75.4051L35.6812 75.0541V63.0161H32.2425L31.3733 64.9217H31.0771V62.6483H42.3032V64.9217H41.988L41.1379 63.0161Z" fill="#1B1B1B"/>
<path d="M45.2812 69.1199C45.2812 67.1235 45.8544 65.5259 47.0006 64.3295C48.1469 63.1331 49.6513 62.5361 51.514 62.5361C53.3623 62.5361 54.8644 63.1331 56.0178 64.3295C57.1712 65.5259 57.7467 67.1211 57.7467 69.1199C57.7467 71.1282 57.1712 72.7282 56.0178 73.9198C54.8644 75.109 53.3647 75.7037 51.514 75.7037C49.6513 75.7037 48.1493 75.109 47.0006 73.9198C45.8544 72.7282 45.2812 71.1282 45.2812 69.1199ZM47.3708 69.139C47.3708 71.1617 47.7505 72.7139 48.5075 73.8004C49.2645 74.8846 50.2674 75.4266 51.5116 75.4266C52.7557 75.4266 53.7563 74.8846 54.5085 73.8004C55.2608 72.7162 55.6357 71.1617 55.6357 69.139C55.6357 67.1044 55.2584 65.5426 54.5085 64.4513C53.7563 63.36 52.7581 62.8155 51.5116 62.8155C50.265 62.8155 49.2645 63.36 48.5075 64.4513C47.7481 65.5403 47.3708 67.1044 47.3708 69.139Z" fill="#1B1B1B"/>
<path d="M72.7409 69.9151V74.9275L72.4997 75.1687L71.4824 74.7437C70.4341 75.386 69.1947 75.706 67.7643 75.706C65.8037 75.706 64.2443 75.1186 63.0861 73.9389C61.928 72.7616 61.3477 71.1545 61.3477 69.1223C61.3477 67.0996 61.9232 65.4973 63.0766 64.3152C64.23 63.1307 65.7679 62.5409 67.6902 62.5409C69.2926 62.5409 70.5821 62.911 71.554 63.6513L72.3492 63.188L72.5331 63.3719V65.9247H72.2179C72.0818 65.3205 71.8478 64.8095 71.5158 64.3892C71.1839 63.9713 70.797 63.6657 70.36 63.4746C69.923 63.2836 69.5195 63.1498 69.1493 63.0758C68.7792 63.0018 68.409 62.966 68.0389 62.966C66.5846 62.966 65.4527 63.4937 64.6455 64.5468C63.8384 65.5999 63.4348 67.1378 63.4348 69.1605C63.4348 71.0112 63.8288 72.487 64.6192 73.5902C65.4073 74.6935 66.5416 75.2451 68.0222 75.2451C69.1183 75.2451 70.0305 74.9681 70.7588 74.4117V69.9175L69.5577 69.5855V69.4017H73.8847V69.5855L72.7409 69.9151Z" fill="#1B1B1B"/>
<path d="M86.5937 66.1611C86.5937 67.0734 86.2904 67.828 85.6887 68.4274C85.0845 69.0244 84.2702 69.3921 83.2481 69.5282C83.6923 69.6882 84.1173 70.1324 84.5233 70.8608L86.9639 75.1138L88.0361 75.4099V75.5938H85.1705L81.8058 69.6214H79.6613V75.0589L80.8625 75.4099V75.5938H76.459V75.4099L77.6601 75.0589V63.0949L76.459 62.8179V62.6508H82.0063C83.3866 62.6508 84.497 62.9612 85.3352 63.5845C86.1734 64.203 86.5937 65.0627 86.5937 66.1611ZM81.7651 63.0161H79.6565V69.2488H81.7651C82.6033 69.2488 83.2792 68.9838 83.7902 68.4536C84.3012 67.9235 84.5567 67.1522 84.5567 66.142C84.5567 65.1319 84.3012 64.3582 83.7902 63.8209C83.2792 63.286 82.6033 63.0161 81.7651 63.0161Z" fill="#1B1B1B"/>
<path d="M97.5754 62.6483L102.772 75.0564L103.956 75.4075V75.5914H99.5002V75.4075L100.72 75.0564L99.1682 71.3025H93.5827L91.9564 75.0564L93.5827 75.4075V75.5914H90.292V75.4075L91.5505 75.0564L96.9689 62.6483H97.5754ZM96.4483 64.6805L93.7474 70.9132H98.9987L96.4483 64.6805Z" fill="#1B1B1B"/>
<path d="M111.281 63.0161H109.507V75.0541L111.355 75.4052V75.589H106.307V75.4052L107.508 75.0541V63.0902L106.307 62.8132V62.646H111.522C113 62.646 114.197 62.9779 115.109 63.6442C116.021 64.3104 116.477 65.2107 116.477 66.345C116.477 67.4793 116.021 68.3796 115.109 69.0459C114.197 69.7121 113 70.0441 111.522 70.0441H110.025L109.784 69.8029V69.6739H111.281C112.243 69.6739 113.01 69.3874 113.583 68.8142C114.156 68.2411 114.443 67.4173 114.443 66.345C114.443 65.2728 114.156 64.4489 113.583 63.8758C113.01 63.3027 112.241 63.0161 111.281 63.0161Z" fill="#1B1B1B"/>
<path d="M119.546 75.4075L120.747 75.0564V63.1832L119.546 62.8322V62.6483H123.947V62.8322L122.746 63.1832V68.8046H129.439V63.1832L128.238 62.8322V62.6483H132.62V62.8322L131.419 63.1832V75.0564L132.62 75.4075V75.5914H128.238V75.4075L129.439 75.0564V69.1939H122.746V75.0564L123.947 75.4075V75.5914H119.546V75.4075Z" fill="#1B1B1B"/>
<path d="M18.6647 87.9589H18.2588V84.9619L15.6821 87.9589H15.5938V84.0497H15.9854V87.0968L18.5788 84.0497H18.6671V87.9589H18.6647Z" fill="#1B1B1B"/>
<path d="M24.3437 84.7757L24.0357 85.0121C23.8661 84.79 23.6607 84.6229 23.4243 84.5082C23.1855 84.3936 22.9252 84.3363 22.6387 84.3363C22.3258 84.3363 22.0393 84.4103 21.7718 84.5608C21.5044 84.7112 21.3014 84.9118 21.1533 85.1649C21.0077 85.4181 20.9336 85.7023 20.9336 86.0175C20.9336 86.4951 21.096 86.8915 21.4232 87.2115C21.7503 87.5315 22.1611 87.6891 22.6602 87.6891C23.207 87.6891 23.6655 87.4742 24.0333 87.0467L24.3413 87.2807C24.1455 87.5291 23.9043 87.7201 23.613 87.8562C23.3216 87.9924 22.9969 88.0592 22.6363 88.0592C21.9533 88.0592 21.4136 87.8324 21.0172 87.3763C20.6853 86.9918 20.5205 86.5285 20.5205 85.984C20.5205 85.4109 20.7211 84.9309 21.1223 84.5393C21.5235 84.1477 22.025 83.9542 22.6291 83.9542C22.9945 83.9542 23.324 84.0259 23.6178 84.1715C23.9163 84.3124 24.1575 84.5154 24.3437 84.7757Z" fill="#1B1B1B"/>
<path d="M25.8291 84.4318V84.0497H27.9712V84.4318H27.0995V87.9565H26.7007V84.4318H25.8291Z" fill="#1B1B1B"/>
<path d="M31.4833 83.9518C32.0755 83.9518 32.5698 84.15 32.9686 84.544C33.3674 84.938 33.568 85.4252 33.568 86.0031C33.568 86.5762 33.3698 87.061 32.971 87.4598C32.5722 87.8586 32.0874 88.0568 31.5143 88.0568C30.934 88.0568 30.4445 87.8586 30.0457 87.4622C29.6469 87.0658 29.4463 86.5858 29.4463 86.0222C29.4463 85.6473 29.537 85.2986 29.7185 84.9786C29.9 84.6586 30.1484 84.4079 30.4612 84.2264C30.7788 84.0425 31.1179 83.9518 31.4833 83.9518ZM31.5 84.3315C31.211 84.3315 30.9364 84.4079 30.6785 84.5583C30.4206 84.7088 30.2176 84.9118 30.072 85.1673C29.9263 85.4228 29.8546 85.707 29.8546 86.0198C29.8546 86.4855 30.0146 86.8771 30.337 87.1971C30.6594 87.5171 31.0463 87.6771 31.5024 87.6771C31.8057 87.6771 32.0874 87.6031 32.3453 87.4574C32.6033 87.3093 32.8038 87.1087 32.9495 86.8532C33.0952 86.5977 33.1668 86.3135 33.1668 86.0031C33.1668 85.6927 33.0952 85.4133 32.9495 85.1625C32.8038 84.9118 32.6009 84.7112 32.3382 84.5607C32.0755 84.4103 31.7937 84.3315 31.5 84.3315Z" fill="#1B1B1B"/>
<path d="M35.436 84.0497H36.2145C36.661 84.0497 36.9619 84.0688 37.1171 84.107C37.3392 84.1619 37.5231 84.2742 37.664 84.4461C37.8049 84.618 37.8765 84.833 37.8765 85.0909C37.8765 85.3512 37.8073 85.5661 37.6688 85.7356C37.5303 85.9052 37.3392 86.0174 37.098 86.0771C36.9213 86.1201 36.5894 86.1416 36.1046 86.1416H35.8252V87.9589H35.4336V84.0497H35.436ZM35.8276 84.4318V85.7571L36.4891 85.7643C36.7566 85.7643 36.9524 85.7404 37.0766 85.6903C37.2007 85.6425 37.2986 85.5637 37.3679 85.4538C37.4395 85.344 37.4754 85.2246 37.4754 85.0885C37.4754 84.9571 37.4395 84.8377 37.3679 84.7303C37.2962 84.6204 37.2031 84.544 37.0885 84.4986C36.9715 84.4533 36.7828 84.4294 36.5178 84.4294H35.8276V84.4318Z" fill="#1B1B1B"/>
<path d="M42.822 87.9589H42.416V84.9619L39.8393 87.9589H39.751V84.0497H40.1426V87.0968L42.736 84.0497H42.8244V87.9589H42.822Z" fill="#1B1B1B"/>
<path d="M47.0774 87.9589H46.6858V86.144H46.4661L45.0595 87.9589H44.5771L45.9837 86.144C45.6565 86.1416 45.3986 86.1011 45.2124 86.0175C45.0261 85.9363 44.8828 85.8121 44.7825 85.6521C44.6822 85.4897 44.6321 85.3035 44.6321 85.0909C44.6321 84.8354 44.7037 84.6205 44.8494 84.4462C44.995 84.2718 45.1837 84.1572 45.4153 84.1047C45.5706 84.0688 45.8643 84.0521 46.2965 84.0521H47.075V87.9589H47.0774ZM45.998 84.4318C45.7306 84.4318 45.5395 84.4557 45.4225 84.5011C45.3055 84.5464 45.2147 84.6229 45.1431 84.7303C45.0715 84.8378 45.0356 84.9572 45.0356 85.0885C45.0356 85.2223 45.0715 85.344 45.1407 85.4539C45.21 85.5637 45.3079 85.6425 45.4344 85.6927C45.5586 85.7428 45.7521 85.7667 46.0123 85.7667L46.6858 85.762V84.4342H45.998V84.4318Z" fill="#1B1B1B"/>
<path d="M55.3613 84.7757L55.0532 85.0121C54.8837 84.79 54.6783 84.6229 54.4419 84.5082C54.2031 84.3936 53.9428 84.3363 53.6563 84.3363C53.3434 84.3363 53.0569 84.4103 52.7894 84.5608C52.5219 84.7112 52.319 84.9118 52.1709 85.1649C52.0252 85.4181 51.9512 85.7023 51.9512 86.0175C51.9512 86.4951 52.1136 86.8915 52.4407 87.2115C52.7679 87.5315 53.1786 87.6891 53.6777 87.6891C54.2246 87.6891 54.6831 87.4742 55.0508 87.0467L55.3589 87.2807C55.1631 87.5291 54.9219 87.7201 54.6306 87.8562C54.3392 87.9924 54.0145 88.0592 53.6539 88.0592C52.9709 88.0592 52.4312 87.8324 52.0348 87.3763C51.7028 86.9918 51.5381 86.5285 51.5381 85.984C51.5381 85.4109 51.7387 84.9309 52.1399 84.5393C52.541 84.1477 53.0425 83.9542 53.6467 83.9542C54.0121 83.9542 54.3416 84.0259 54.6353 84.1715C54.9338 84.3124 55.175 84.5154 55.3613 84.7757Z" fill="#1B1B1B"/>
<path d="M59.0965 83.9518C59.6888 83.9518 60.1831 84.15 60.5819 84.544C60.9807 84.938 61.1813 85.4252 61.1813 86.0031C61.1813 86.5762 60.9831 87.061 60.5843 87.4598C60.1855 87.8586 59.7007 88.0568 59.1276 88.0568C58.5473 88.0568 58.0577 87.8586 57.659 87.4622C57.2602 87.0658 57.0596 86.5858 57.0596 86.0222C57.0596 85.6473 57.1503 85.2986 57.3318 84.9786C57.5133 84.6586 57.7616 84.4079 58.0745 84.2264C58.3921 84.0425 58.7312 83.9518 59.0965 83.9518ZM59.1133 84.3315C58.8243 84.3315 58.5497 84.4079 58.2918 84.5583C58.0339 84.7088 57.8309 84.9118 57.6852 85.1673C57.5396 85.4228 57.4679 85.707 57.4679 86.0198C57.4679 86.4855 57.6279 86.8771 57.9503 87.1971C58.2727 87.5171 58.6595 87.6771 59.1156 87.6771C59.4189 87.6771 59.7007 87.6031 59.9586 87.4574C60.2165 87.3093 60.4171 87.1087 60.5628 86.8532C60.7085 86.5977 60.7801 86.3135 60.7801 86.0031C60.7801 85.6927 60.7085 85.4133 60.5628 85.1625C60.4171 84.9118 60.2141 84.7112 59.9515 84.5607C59.6888 84.4103 59.407 84.3315 59.1133 84.3315Z" fill="#1B1B1B"/>
<path d="M63.1322 84.4294C63.4068 84.1094 63.7459 83.9518 64.1495 83.9518C64.4695 83.9518 64.7345 84.0449 64.9447 84.2288C65.1548 84.4127 65.2575 84.6539 65.2575 84.9476C65.2575 85.3631 65.0617 85.6616 64.67 85.8407C65.1859 86.0007 65.4438 86.3446 65.4438 86.8771C65.4438 87.2305 65.3291 87.5171 65.0975 87.732C64.8659 87.9469 64.5506 88.0568 64.1518 88.0568C63.8724 88.0568 63.6289 87.9995 63.4235 87.8825C63.2157 87.7654 63.0223 87.5625 62.8408 87.2735L63.1441 87.0944C63.3256 87.3595 63.4928 87.5314 63.6528 87.6054C63.8104 87.6819 63.9751 87.7177 64.1447 87.7177C64.393 87.7177 64.6032 87.646 64.7775 87.5028C64.9518 87.3595 65.0378 87.1493 65.0378 86.8699C65.0378 86.7219 65.0091 86.5953 64.9494 86.4855C64.8897 86.3756 64.8062 86.2873 64.6987 86.2204C64.5912 86.1535 64.4885 86.1106 64.3906 86.0938C64.2927 86.0771 64.1327 86.0676 63.9107 86.0676H63.8438V85.7237H63.9751C64.5554 85.7237 64.8444 85.4897 64.8444 85.0216C64.8444 84.8043 64.7775 84.6324 64.6462 84.5034C64.5148 84.3745 64.3477 84.3124 64.1447 84.3124C63.882 84.3124 63.636 84.4318 63.4068 84.6682L63.1322 84.4294Z" fill="#1B1B1B"/>
<path d="M67.2917 88.544H66.9072V87.5959H67.2248L68.7579 84.0521H68.8941L70.5131 87.5959H70.8164V88.544H70.4319V87.9589H67.2917V88.544ZM67.6642 87.5936H70.0498L68.8272 84.8545L67.6642 87.5936Z" fill="#1B1B1B"/>
<path d="M74.0577 84.0497L75.8797 87.9589H75.457L74.8433 86.6717H73.1598L72.5508 87.9589H72.1162L73.9621 84.0497H74.0577ZM74.0075 84.8807L73.3389 86.2944H74.6762L74.0075 84.8807Z" fill="#1B1B1B"/>
<path d="M77.5703 84.0497H77.962V85.6879H79.9512V84.0497H80.3428V87.9589H79.9512V86.0723H77.962V87.9589H77.5703V84.0497Z" fill="#1B1B1B"/>
<path d="M82.375 84.0497H82.7666V85.6879H84.7559V84.0497H85.1475V87.9589H84.7559V86.0723H82.7666V87.9589H82.375V84.0497Z" fill="#1B1B1B"/>
<path d="M88.7813 84.0497L90.6034 87.9589H90.1807L89.567 86.6717H87.8834L87.2745 87.9589H86.8398L88.6858 84.0497H88.7813ZM88.7312 84.8807L88.0625 86.2944H89.3998L88.7312 84.8807Z" fill="#1B1B1B"/>
<path d="M94.5129 87.9589H94.1213V86.144H93.9016L92.4951 87.9589H92.0127L93.4192 86.144C93.0921 86.1416 92.8342 86.1011 92.6479 86.0175C92.4616 85.9363 92.3184 85.8121 92.2181 85.6521C92.1178 85.4897 92.0676 85.3035 92.0676 85.0909C92.0676 84.8354 92.1392 84.6205 92.2849 84.4462C92.4306 84.2718 92.6193 84.1572 92.8509 84.1047C93.0061 84.0688 93.2998 84.0521 93.7321 84.0521H94.5106V87.9589H94.5129ZM93.4336 84.4318C93.1661 84.4318 92.9751 84.4557 92.858 84.5011C92.7434 84.5464 92.6503 84.6229 92.5787 84.7303C92.507 84.8378 92.4712 84.9572 92.4712 85.0885C92.4712 85.2223 92.507 85.344 92.5763 85.4539C92.6455 85.5637 92.7434 85.6425 92.87 85.6927C92.9965 85.7428 93.1876 85.7667 93.4479 85.7667L94.1213 85.762V84.4342H93.4336V84.4318Z" fill="#1B1B1B"/>
<path d="M99.1699 84.0497H99.9413C100.252 84.0497 100.491 84.0855 100.655 84.1595C100.822 84.2336 100.954 84.3458 101.049 84.4986C101.145 84.6515 101.195 84.821 101.195 85.0073C101.195 85.1816 101.152 85.3392 101.068 85.4825C100.985 85.6258 100.858 85.7404 100.696 85.8288C100.899 85.898 101.054 85.9792 101.164 86.0723C101.274 86.1655 101.36 86.2777 101.419 86.409C101.482 86.5404 101.51 86.6837 101.51 86.8389C101.51 87.1517 101.396 87.4168 101.166 87.6341C100.937 87.8514 100.629 87.9589 100.242 87.9589H99.1699V84.0497ZM99.552 84.4318V85.6831H99.7765C100.049 85.6831 100.247 85.6568 100.376 85.6067C100.502 85.5565 100.605 85.4753 100.679 85.3679C100.753 85.258 100.791 85.1386 100.791 85.0049C100.791 84.8258 100.729 84.6849 100.603 84.5846C100.476 84.4843 100.278 84.4318 100.006 84.4318H99.552ZM99.552 86.0771V87.5768H100.037C100.323 87.5768 100.531 87.5481 100.665 87.4932C100.799 87.4383 100.904 87.3499 100.985 87.2305C101.066 87.1111 101.107 86.9846 101.107 86.8461C101.107 86.6717 101.049 86.5213 100.937 86.3923C100.825 86.2634 100.667 86.175 100.469 86.1273C100.335 86.0962 100.104 86.0795 99.7741 86.0795H99.552V86.0771Z" fill="#1B1B1B"/>
<path d="M104.968 84.0497L106.79 87.9589H106.367L105.753 86.6717H104.07L103.461 87.9589H103.026L104.872 84.0497H104.968ZM104.92 84.8807L104.251 86.2944H105.589L104.92 84.8807Z" fill="#1B1B1B"/>
<path d="M108.309 87.9589L108.867 84.0497H108.932L110.52 87.2568L112.094 84.0497H112.156L112.719 87.9589H112.337L111.95 85.1649L110.568 87.9589H110.467L109.068 85.1434L108.684 87.9589H108.309Z" fill="#1B1B1B"/>
<path d="M117.648 87.9589H117.242V84.9619L114.666 87.9589H114.577V84.0497H114.969V87.0968L117.562 84.0497H117.651V87.9589H117.648Z" fill="#1B1B1B"/>
<path d="M48.6438 87.6628C48.6892 87.7081 48.7107 87.7654 48.7107 87.8347C48.7107 87.8705 48.7059 87.9087 48.6963 87.9493C48.6868 87.9899 48.6701 88.0377 48.6486 88.0926L48.4623 88.7063H48.2498L48.4002 88.0616C48.3525 88.0472 48.3142 88.0186 48.2856 87.9804C48.2569 87.9422 48.2402 87.892 48.2402 87.8347C48.2402 87.7654 48.2617 87.7081 48.3071 87.6628C48.3525 87.6174 48.4074 87.5935 48.4766 87.5935C48.5435 87.5935 48.6008 87.6174 48.6438 87.6628Z" fill="#1B1B1B"/>
</svg>
