<svg width="133" height="89" viewBox="0 0 133 89" fill="none" xmlns="http://www.w3.org/2000/svg">
<path d="M62.9945 44.8051C60.0142 44.1532 58.8059 42.9616 58.942 41.395C59.0638 39.9956 60.4178 38.3837 62.6076 36.6667C67.066 33.1707 75.1829 29.0084 83.2114 25.3404C77.559 26.9451 71.9185 28.8126 66.0702 31.0334C57.4662 34.3026 48.4252 38.3384 38.2618 43.4248L34.2451 45.4355L37.5119 42.3526C46.5935 33.7844 54.2018 26.3314 60.4727 20.1894C73.7859 7.14847 81.1505 -0.06811 84.0018 0.588595C85.7093 0.980229 85.9051 3.46377 84.7899 8.3186C84.212 10.838 81.7141 19.8002 80.6109 21.5578C80.9834 19.6378 81.4252 17.4719 81.941 15.0504C82.3971 12.9131 82.9153 10.5729 83.5003 8.02249C84.415 4.04167 84.5081 2.06439 83.7057 1.88051C81.5589 1.38619 74.3781 8.42129 61.3993 21.1351C55.8638 26.5583 49.2896 32.9988 41.6026 40.3037C50.2448 36.0912 58.0918 32.6525 65.6022 29.7988C74.242 26.5153 82.4472 23.9983 90.9127 21.959L98.6141 20.1035L91.3259 23.2127C81.3798 27.4538 69.2033 33.1802 63.4195 37.7127C61.5163 39.2052 60.3485 40.5138 60.2626 41.5144C60.1909 42.3478 61.0912 43.038 63.2738 43.5156C68.2982 44.6165 79.2545 44.2702 98.9914 41.6028C88.5056 44.8051 68.2218 45.949 62.9945 44.8051Z" fill="#E2D7C3"/>
<path d="M7.90596 62.6484L13.1023 75.0566L14.2867 75.4076V75.5915H9.8307V75.4076L11.051 75.0566L9.49876 71.3026H3.9108L2.28457 75.0566L3.9108 75.4076V75.5915H0.620117V75.4076L1.87861 75.0566L7.29701 62.6484H7.90596ZM6.77881 64.6806L4.07797 70.9134H9.32921L6.77881 64.6806Z" fill="#E2D7C3"/>
<path d="M27.046 63.1451V70.782C27.046 72.2984 26.5803 73.4971 25.649 74.3783C24.7177 75.2595 23.495 75.7013 21.9786 75.7013C20.4503 75.7013 19.2157 75.2571 18.2796 74.3688C17.3435 73.4804 16.873 72.2864 16.873 70.782V63.1809L15.6719 62.8299V62.646H20.073V62.8299L18.8718 63.1809V70.782C18.8718 72.1145 19.2252 73.1461 19.9345 73.8792C20.6437 74.6123 21.5703 74.9801 22.7189 74.9801C23.889 74.9801 24.8419 74.6052 25.575 73.853C26.3081 73.1007 26.6759 72.0787 26.6759 70.782V63.1451L25.4747 62.8132V62.646H28.2496V62.8132L27.046 63.1451Z" fill="#E2D7C3"/>
<path d="M41.1379 63.0162H37.68V75.0542L38.8812 75.4052V75.5891H34.4801V75.4052L35.6812 75.0542V63.0162H32.2425L31.3733 64.9218H31.0771V62.6484H42.3032V64.9218H41.988L41.1379 63.0162Z" fill="#E2D7C3"/>
<path d="M45.2812 69.1199C45.2812 67.1235 45.8544 65.5259 47.0006 64.3295C48.1469 63.1331 49.6513 62.5361 51.514 62.5361C53.3623 62.5361 54.8644 63.1331 56.0178 64.3295C57.1712 65.5259 57.7467 67.1211 57.7467 69.1199C57.7467 71.1282 57.1712 72.7282 56.0178 73.9198C54.8644 75.109 53.3647 75.7037 51.514 75.7037C49.6513 75.7037 48.1493 75.109 47.0006 73.9198C45.8544 72.7282 45.2812 71.1282 45.2812 69.1199ZM47.3708 69.139C47.3708 71.1617 47.7505 72.7139 48.5075 73.8004C49.2645 74.8846 50.2674 75.4266 51.5116 75.4266C52.7557 75.4266 53.7563 74.8846 54.5085 73.8004C55.2608 72.7162 55.6357 71.1617 55.6357 69.139C55.6357 67.1044 55.2584 65.5426 54.5085 64.4513C53.7563 63.36 52.7581 62.8155 51.5116 62.8155C50.265 62.8155 49.2645 63.36 48.5075 64.4513C47.7481 65.5403 47.3708 67.1044 47.3708 69.139Z" fill="#E2D7C3"/>
<path d="M72.7409 69.915V74.9274L72.4997 75.1686L71.4824 74.7435C70.4341 75.3859 69.1947 75.7059 67.7643 75.7059C65.8037 75.7059 64.2443 75.1185 63.0861 73.9388C61.928 72.7615 61.3477 71.1544 61.3477 69.1222C61.3477 67.0995 61.9232 65.4971 63.0766 64.3151C64.23 63.1306 65.7679 62.5408 67.6902 62.5408C69.2926 62.5408 70.5821 62.9109 71.554 63.6512L72.3492 63.1879L72.5331 63.3718V65.9246H72.2179C72.0818 65.3204 71.8478 64.8094 71.5158 64.3891C71.1839 63.9712 70.797 63.6655 70.36 63.4745C69.923 63.2834 69.5195 63.1497 69.1493 63.0757C68.7792 63.0017 68.409 62.9658 68.0389 62.9658C66.5846 62.9658 65.4527 63.4936 64.6455 64.5467C63.8384 65.5998 63.4348 67.1377 63.4348 69.1604C63.4348 71.0111 63.8288 72.4869 64.6192 73.5901C65.4073 74.6934 66.5416 75.245 68.0222 75.245C69.1183 75.245 70.0305 74.968 70.7588 74.4116V69.9174L69.5577 69.5854V69.4015H73.8847V69.5854L72.7409 69.915Z" fill="#E2D7C3"/>
<path d="M86.5937 66.161C86.5937 67.0732 86.2904 67.8279 85.6887 68.4272C85.0845 69.0243 84.2702 69.392 83.2481 69.5281C83.6923 69.6881 84.1173 70.1323 84.5233 70.8606L86.9639 75.1137L88.0361 75.4098V75.5937H85.1705L81.8058 69.6213H79.6613V75.0588L80.8625 75.4098V75.5937H76.459V75.4098L77.6601 75.0588V63.0948L76.459 62.8178V62.6506H82.0063C83.3866 62.6506 84.497 62.9611 85.3352 63.5844C86.1734 64.2028 86.5937 65.0625 86.5937 66.161ZM81.7651 63.016H79.6565V69.2487H81.7651C82.6033 69.2487 83.2792 68.9837 83.7902 68.4535C84.3012 67.9234 84.5567 67.152 84.5567 66.1419C84.5567 65.1318 84.3012 64.3581 83.7902 63.8208C83.2792 63.2859 82.6033 63.016 81.7651 63.016Z" fill="#E2D7C3"/>
<path d="M97.5754 62.6484L102.772 75.0566L103.956 75.4076V75.5915H99.5002V75.4076L100.72 75.0566L99.1682 71.3026H93.5827L91.9564 75.0566L93.5827 75.4076V75.5915H90.292V75.4076L91.5505 75.0566L96.9689 62.6484H97.5754ZM96.4483 64.6806L93.7474 70.9134H98.9987L96.4483 64.6806Z" fill="#E2D7C3"/>
<path d="M111.281 63.0161H109.507V75.0541L111.355 75.4052V75.589H106.307V75.4052L107.508 75.0541V63.0902L106.307 62.8132V62.646H111.522C113 62.646 114.197 62.9779 115.109 63.6442C116.021 64.3104 116.477 65.2107 116.477 66.345C116.477 67.4793 116.021 68.3796 115.109 69.0459C114.197 69.7121 113 70.0441 111.522 70.0441H110.025L109.784 69.8029V69.6739H111.281C112.243 69.6739 113.01 69.3874 113.583 68.8142C114.156 68.2411 114.443 67.4173 114.443 66.345C114.443 65.2728 114.156 64.4489 113.583 63.8758C113.01 63.3027 112.241 63.0161 111.281 63.0161Z" fill="#E2D7C3"/>
<path d="M119.546 75.4076L120.747 75.0566V63.1834L119.546 62.8323V62.6484H123.947V62.8323L122.746 63.1834V68.8047H129.439V63.1834L128.238 62.8323V62.6484H132.62V62.8323L131.419 63.1834V75.0566L132.62 75.4076V75.5915H128.238V75.4076L129.439 75.0566V69.194H122.746V75.0566L123.947 75.4076V75.5915H119.546V75.4076Z" fill="#E2D7C3"/>
<path d="M18.6647 87.959H18.2588V84.962L15.6821 87.959H15.5938V84.0498H15.9854V87.0969L18.5788 84.0498H18.6671V87.959H18.6647Z" fill="#E2D7C3"/>
<path d="M24.3437 84.7758L24.0357 85.0122C23.8661 84.7901 23.6607 84.623 23.4243 84.5084C23.1855 84.3937 22.9252 84.3364 22.6387 84.3364C22.3258 84.3364 22.0393 84.4105 21.7718 84.5609C21.5044 84.7113 21.3014 84.9119 21.1533 85.1651C21.0077 85.4182 20.9336 85.7024 20.9336 86.0176C20.9336 86.4952 21.096 86.8916 21.4232 87.2116C21.7503 87.5316 22.1611 87.6892 22.6602 87.6892C23.207 87.6892 23.6655 87.4743 24.0333 87.0468L24.3413 87.2809C24.1455 87.5292 23.9043 87.7202 23.613 87.8564C23.3216 87.9925 22.9969 88.0593 22.6363 88.0593C21.9533 88.0593 21.4136 87.8325 21.0172 87.3764C20.6853 86.9919 20.5205 86.5286 20.5205 85.9842C20.5205 85.411 20.7211 84.931 21.1223 84.5394C21.5235 84.1478 22.025 83.9543 22.6291 83.9543C22.9945 83.9543 23.324 84.026 23.6178 84.1716C23.9163 84.3125 24.1575 84.5155 24.3437 84.7758Z" fill="#E2D7C3"/>
<path d="M25.8291 84.4319V84.0498H27.9712V84.4319H27.0995V87.9566H26.7007V84.4319H25.8291Z" fill="#E2D7C3"/>
<path d="M31.4833 83.9519C32.0755 83.9519 32.5698 84.1501 32.9686 84.5441C33.3674 84.9382 33.568 85.4253 33.568 86.0032C33.568 86.5763 33.3698 87.0611 32.971 87.4599C32.5722 87.8587 32.0874 88.0569 31.5143 88.0569C30.934 88.0569 30.4445 87.8587 30.0457 87.4623C29.6469 87.0659 29.4463 86.5859 29.4463 86.0223C29.4463 85.6474 29.537 85.2987 29.7185 84.9787C29.9 84.6588 30.1484 84.408 30.4612 84.2265C30.7788 84.0427 31.1179 83.9519 31.4833 83.9519ZM31.5 84.3316C31.211 84.3316 30.9364 84.408 30.6785 84.5585C30.4206 84.7089 30.2176 84.9119 30.072 85.1674C29.9263 85.4229 29.8546 85.7071 29.8546 86.0199C29.8546 86.4856 30.0146 86.8772 30.337 87.1972C30.6594 87.5172 31.0463 87.6772 31.5024 87.6772C31.8057 87.6772 32.0874 87.6032 32.3453 87.4575C32.6033 87.3095 32.8038 87.1089 32.9495 86.8534C33.0952 86.5978 33.1668 86.3137 33.1668 86.0032C33.1668 85.6928 33.0952 85.4134 32.9495 85.1626C32.8038 84.9119 32.6009 84.7113 32.3382 84.5608C32.0755 84.4104 31.7937 84.3316 31.5 84.3316Z" fill="#E2D7C3"/>
<path d="M35.436 84.0498H36.2145C36.661 84.0498 36.9619 84.0689 37.1171 84.1071C37.3392 84.1621 37.5231 84.2743 37.664 84.4462C37.8049 84.6182 37.8765 84.8331 37.8765 85.091C37.8765 85.3513 37.8073 85.5662 37.6688 85.7358C37.5303 85.9053 37.3392 86.0175 37.098 86.0772C36.9213 86.1202 36.5894 86.1417 36.1046 86.1417H35.8252V87.959H35.4336V84.0498H35.436ZM35.8276 84.4319V85.7572L36.4891 85.7644C36.7566 85.7644 36.9524 85.7405 37.0766 85.6904C37.2007 85.6426 37.2986 85.5638 37.3679 85.454C37.4395 85.3441 37.4754 85.2247 37.4754 85.0886C37.4754 84.9573 37.4395 84.8379 37.3679 84.7304C37.2962 84.6205 37.2031 84.5441 37.0885 84.4988C36.9715 84.4534 36.7828 84.4295 36.5178 84.4295H35.8276V84.4319Z" fill="#E2D7C3"/>
<path d="M42.822 87.959H42.416V84.962L39.8393 87.959H39.751V84.0498H40.1426V87.0969L42.736 84.0498H42.8244V87.959H42.822Z" fill="#E2D7C3"/>
<path d="M47.0774 87.9591H46.6858V86.1442H46.4661L45.0595 87.9591H44.5771L45.9837 86.1442C45.6565 86.1418 45.3986 86.1012 45.2124 86.0176C45.0261 85.9364 44.8828 85.8122 44.7825 85.6522C44.6822 85.4898 44.6321 85.3036 44.6321 85.091C44.6321 84.8355 44.7037 84.6206 44.8494 84.4463C44.995 84.2719 45.1837 84.1573 45.4153 84.1048C45.5706 84.069 45.8643 84.0522 46.2965 84.0522H47.075V87.9591H47.0774ZM45.998 84.4319C45.7306 84.4319 45.5395 84.4558 45.4225 84.5012C45.3055 84.5466 45.2147 84.623 45.1431 84.7304C45.0715 84.8379 45.0356 84.9573 45.0356 85.0887C45.0356 85.2224 45.0715 85.3442 45.1407 85.454C45.21 85.5639 45.3079 85.6427 45.4344 85.6928C45.5586 85.743 45.7521 85.7668 46.0123 85.7668L46.6858 85.7621V84.4343H45.998V84.4319Z" fill="#E2D7C3"/>
<path d="M55.3613 84.7758L55.0532 85.0122C54.8837 84.7901 54.6783 84.623 54.4419 84.5084C54.2031 84.3937 53.9428 84.3364 53.6563 84.3364C53.3434 84.3364 53.0569 84.4105 52.7894 84.5609C52.5219 84.7113 52.319 84.9119 52.1709 85.1651C52.0252 85.4182 51.9512 85.7024 51.9512 86.0176C51.9512 86.4952 52.1136 86.8916 52.4407 87.2116C52.7679 87.5316 53.1786 87.6892 53.6777 87.6892C54.2246 87.6892 54.6831 87.4743 55.0508 87.0468L55.3589 87.2809C55.1631 87.5292 54.9219 87.7202 54.6306 87.8564C54.3392 87.9925 54.0145 88.0593 53.6539 88.0593C52.9709 88.0593 52.4312 87.8325 52.0348 87.3764C51.7028 86.9919 51.5381 86.5286 51.5381 85.9842C51.5381 85.411 51.7387 84.931 52.1399 84.5394C52.541 84.1478 53.0425 83.9543 53.6467 83.9543C54.0121 83.9543 54.3416 84.026 54.6353 84.1716C54.9338 84.3125 55.175 84.5155 55.3613 84.7758Z" fill="#E2D7C3"/>
<path d="M59.0965 83.9519C59.6888 83.9519 60.1831 84.1501 60.5819 84.5441C60.9807 84.9382 61.1813 85.4253 61.1813 86.0032C61.1813 86.5763 60.9831 87.0611 60.5843 87.4599C60.1855 87.8587 59.7007 88.0569 59.1276 88.0569C58.5473 88.0569 58.0577 87.8587 57.659 87.4623C57.2602 87.0659 57.0596 86.5859 57.0596 86.0223C57.0596 85.6474 57.1503 85.2987 57.3318 84.9787C57.5133 84.6588 57.7616 84.408 58.0745 84.2265C58.3921 84.0427 58.7312 83.9519 59.0965 83.9519ZM59.1133 84.3316C58.8243 84.3316 58.5497 84.408 58.2918 84.5585C58.0339 84.7089 57.8309 84.9119 57.6852 85.1674C57.5396 85.4229 57.4679 85.7071 57.4679 86.0199C57.4679 86.4856 57.6279 86.8772 57.9503 87.1972C58.2727 87.5172 58.6595 87.6772 59.1156 87.6772C59.4189 87.6772 59.7007 87.6032 59.9586 87.4575C60.2165 87.3095 60.4171 87.1089 60.5628 86.8534C60.7085 86.5978 60.7801 86.3137 60.7801 86.0032C60.7801 85.6928 60.7085 85.4134 60.5628 85.1626C60.4171 84.9119 60.2141 84.7113 59.9515 84.5608C59.6888 84.4104 59.407 84.3316 59.1133 84.3316Z" fill="#E2D7C3"/>
<path d="M63.1322 84.4295C63.4068 84.1095 63.7459 83.9519 64.1495 83.9519C64.4695 83.9519 64.7345 84.045 64.9447 84.2289C65.1548 84.4128 65.2575 84.654 65.2575 84.9477C65.2575 85.3632 65.0617 85.6617 64.67 85.8408C65.1859 86.0008 65.4438 86.3447 65.4438 86.8772C65.4438 87.2307 65.3291 87.5172 65.0975 87.7321C64.8659 87.9471 64.5506 88.0569 64.1518 88.0569C63.8724 88.0569 63.6289 87.9996 63.4235 87.8826C63.2157 87.7656 63.0223 87.5626 62.8408 87.2736L63.1441 87.0945C63.3256 87.3596 63.4928 87.5315 63.6528 87.6056C63.8104 87.682 63.9751 87.7178 64.1447 87.7178C64.393 87.7178 64.6032 87.6462 64.7775 87.5029C64.9518 87.3596 65.0378 87.1495 65.0378 86.8701C65.0378 86.722 65.0091 86.5954 64.9494 86.4856C64.8897 86.3757 64.8062 86.2874 64.6987 86.2205C64.5912 86.1537 64.4885 86.1107 64.3906 86.094C64.2927 86.0772 64.1327 86.0677 63.9107 86.0677H63.8438V85.7238H63.9751C64.5554 85.7238 64.8444 85.4898 64.8444 85.0217C64.8444 84.8044 64.7775 84.6325 64.6462 84.5035C64.5148 84.3746 64.3477 84.3125 64.1447 84.3125C63.882 84.3125 63.636 84.4319 63.4068 84.6683L63.1322 84.4295Z" fill="#E2D7C3"/>
<path d="M67.2917 88.5441H66.9072V87.5961H67.2248L68.7579 84.0522H68.8941L70.5131 87.5961H70.8164V88.5441H70.4319V87.9591H67.2917V88.5441ZM67.6642 87.5937H70.0498L68.8272 84.8546L67.6642 87.5937Z" fill="#E2D7C3"/>
<path d="M74.0577 84.0498L75.8797 87.959H75.457L74.8433 86.6719H73.1598L72.5508 87.959H72.1162L73.9621 84.0498H74.0577ZM74.0075 84.8808L73.3389 86.2945H74.6762L74.0075 84.8808Z" fill="#E2D7C3"/>
<path d="M77.5703 84.0498H77.962V85.688H79.9512V84.0498H80.3428V87.959H79.9512V86.0725H77.962V87.959H77.5703V84.0498Z" fill="#E2D7C3"/>
<path d="M82.375 84.0498H82.7666V85.688H84.7559V84.0498H85.1475V87.959H84.7559V86.0725H82.7666V87.959H82.375V84.0498Z" fill="#E2D7C3"/>
<path d="M88.7813 84.0498L90.6034 87.959H90.1807L89.567 86.6719H87.8834L87.2745 87.959H86.8398L88.6858 84.0498H88.7813ZM88.7312 84.8808L88.0625 86.2945H89.3998L88.7312 84.8808Z" fill="#E2D7C3"/>
<path d="M94.5129 87.9591H94.1213V86.1442H93.9016L92.4951 87.9591H92.0127L93.4192 86.1442C93.0921 86.1418 92.8342 86.1012 92.6479 86.0176C92.4616 85.9364 92.3184 85.8122 92.2181 85.6522C92.1178 85.4898 92.0676 85.3036 92.0676 85.091C92.0676 84.8355 92.1392 84.6206 92.2849 84.4463C92.4306 84.2719 92.6193 84.1573 92.8509 84.1048C93.0061 84.069 93.2998 84.0522 93.7321 84.0522H94.5106V87.9591H94.5129ZM93.4336 84.4319C93.1661 84.4319 92.9751 84.4558 92.858 84.5012C92.7434 84.5466 92.6503 84.623 92.5787 84.7304C92.507 84.8379 92.4712 84.9573 92.4712 85.0887C92.4712 85.2224 92.507 85.3442 92.5763 85.454C92.6455 85.5639 92.7434 85.6427 92.87 85.6928C92.9965 85.743 93.1876 85.7668 93.4479 85.7668L94.1213 85.7621V84.4343H93.4336V84.4319Z" fill="#E2D7C3"/>
<path d="M99.1699 84.0498H99.9413C100.252 84.0498 100.491 84.0856 100.655 84.1597C100.822 84.2337 100.954 84.3459 101.049 84.4988C101.145 84.6516 101.195 84.8211 101.195 85.0074C101.195 85.1817 101.152 85.3393 101.068 85.4826C100.985 85.6259 100.858 85.7405 100.696 85.8289C100.899 85.8981 101.054 85.9793 101.164 86.0725C101.274 86.1656 101.36 86.2778 101.419 86.4092C101.482 86.5405 101.51 86.6838 101.51 86.839C101.51 87.1519 101.396 87.4169 101.166 87.6342C100.937 87.8515 100.629 87.959 100.242 87.959H99.1699V84.0498ZM99.552 84.4319V85.6832H99.7765C100.049 85.6832 100.247 85.6569 100.376 85.6068C100.502 85.5566 100.605 85.4755 100.679 85.368C100.753 85.2581 100.791 85.1387 100.791 85.005C100.791 84.8259 100.729 84.685 100.603 84.5847C100.476 84.4844 100.278 84.4319 100.006 84.4319H99.552ZM99.552 86.0772V87.5769H100.037C100.323 87.5769 100.531 87.5483 100.665 87.4933C100.799 87.4384 100.904 87.35 100.985 87.2306C101.066 87.1112 101.107 86.9847 101.107 86.8462C101.107 86.6719 101.049 86.5214 100.937 86.3925C100.825 86.2635 100.667 86.1751 100.469 86.1274C100.335 86.0963 100.104 86.0796 99.7741 86.0796H99.552V86.0772Z" fill="#E2D7C3"/>
<path d="M104.968 84.0498L106.79 87.959H106.367L105.753 86.6719H104.07L103.461 87.959H103.026L104.872 84.0498H104.968ZM104.92 84.8808L104.251 86.2945H105.589L104.92 84.8808Z" fill="#E2D7C3"/>
<path d="M108.309 87.959L108.867 84.0498H108.932L110.52 87.2569L112.094 84.0498H112.156L112.719 87.959H112.337L111.95 85.165L110.568 87.959H110.467L109.068 85.1435L108.684 87.959H108.309Z" fill="#E2D7C3"/>
<path d="M117.648 87.959H117.242V84.962L114.666 87.959H114.577V84.0498H114.969V87.0969L117.562 84.0498H117.651V87.959H117.648Z" fill="#E2D7C3"/>
<path d="M48.6438 87.663C48.6892 87.7084 48.7107 87.7657 48.7107 87.8349C48.7107 87.8708 48.7059 87.909 48.6963 87.9496C48.6868 87.9902 48.6701 88.0379 48.6486 88.0929L48.4623 88.7066H48.2498L48.4002 88.0618C48.3525 88.0475 48.3142 88.0188 48.2856 87.9806C48.2569 87.9424 48.2402 87.8923 48.2402 87.8349C48.2402 87.7657 48.2617 87.7084 48.3071 87.663C48.3525 87.6176 48.4074 87.5938 48.4766 87.5938C48.5435 87.5937 48.6008 87.6176 48.6438 87.663Z" fill="#E2D7C3"/>
</svg>
