<svg width="369" height="322" viewBox="0 0 369 322" fill="none" xmlns="http://www.w3.org/2000/svg">
<path d="M367 254.56L302.769 268.075L252.665 249.616L316.896 236.101L367 254.56Z" fill="#2E2C2C" stroke="#CC9D7A" stroke-width="0.6" stroke-miterlimit="10"/>
<path d="M241.767 19.4586L367 254.56L316.896 236.102L191.663 1L241.767 19.4586Z" fill="#2E2C2C" stroke="#CC9D7A" stroke-width="0.6" stroke-miterlimit="10"/>
<path d="M191.664 1L316.897 236.102L252.667 249.617L159.314 74.6821L127.434 14.7782L191.664 1Z" fill="#2E2C2C" stroke="#CC9D7A" stroke-width="0.6" stroke-miterlimit="10"/>
<path d="M205.277 103.083L293.856 269.944L243.752 251.486L155.173 84.6382L205.277 103.083Z" fill="#2E2C2C" stroke="#CC9D7A" stroke-width="0.6" stroke-miterlimit="10"/>
<path d="M156.472 298.829L106.368 280.385L86.1025 242.263L136.207 260.721L156.472 298.829Z" fill="#2E2C2C" stroke="#CC9D7A" stroke-width="0.6" stroke-miterlimit="10"/>
<path d="M136.208 260.721L115.791 307.387L65.6865 288.942L86.1034 242.263L136.208 260.721Z" fill="#2E2C2C" stroke="#CC9D7A" stroke-width="0.6" stroke-miterlimit="10"/>
<path d="M241.766 19.4585L366.999 254.56L302.768 268.075L209.416 93.1406L177.535 33.2367L241.766 19.4585Z" fill="#2E2C2C" stroke="#CC9D7A" stroke-width="0.6" stroke-miterlimit="10"/>
<path d="M177.538 33.2368L127.434 14.7782L191.664 1L241.768 19.4586L177.538 33.2368Z" fill="#2E2C2C" stroke="#CC9D7A" stroke-width="0.6" stroke-miterlimit="10"/>
<path d="M293.855 269.943L229.625 283.458L179.521 264.999L243.751 251.484L293.855 269.943Z" fill="#2E2C2C" stroke="#CC9D7A" stroke-width="0.6" stroke-miterlimit="10"/>
<path d="M91.1855 98.8568L155.651 85.0371L244.23 251.885L179.999 265.4L123.301 158.982L91.1855 98.8568Z" fill="#2E2C2C" stroke="#CC9D7A" stroke-width="0.6" stroke-miterlimit="10"/>
<path d="M140.828 116.916L205.279 103.083L293.858 269.944L229.628 283.459L172.93 177.042L140.828 116.916Z" fill="#2E2C2C" stroke="#CC9D7A" stroke-width="0.6" stroke-miterlimit="10"/>
<path d="M140.827 116.917L90.709 98.4579L155.174 84.6382L205.278 103.083L140.827 116.917Z" fill="#2E2C2C" stroke="#CC9D7A" stroke-width="0.6" stroke-miterlimit="10"/>
<path d="M54.0012 182.138L118.466 168.582L170.612 266.871L106.368 280.386L86.1026 242.264L65.6857 288.943L1 302.542L54.0012 182.138Z" fill="#2E2C2C" stroke="#CC9D7A" stroke-width="0.6" stroke-miterlimit="10"/>
<path d="M168.57 187.04L220.716 285.329L170.612 266.871L118.466 168.582L168.57 187.04Z" fill="#2E2C2C" stroke="#CC9D7A" stroke-width="0.6" stroke-miterlimit="10"/>
<path d="M220.717 285.329L156.472 298.83L106.368 280.386L170.612 266.871L220.717 285.329Z" fill="#2E2C2C" stroke="#CC9D7A" stroke-width="0.6" stroke-miterlimit="10"/>
<path d="M104.106 200.596L168.571 187.039L220.717 285.328L156.472 298.829L136.207 260.721L115.79 307.387L51.1045 320.999L104.106 200.596Z" fill="#2E2C2C" stroke="#CC9D7A" stroke-width="0.6" stroke-miterlimit="10"/>
<path d="M104.106 200.597L54.002 182.138L118.467 168.582L168.571 187.04L104.106 200.597Z" fill="#2E2C2C" stroke="#CC9D7A" stroke-width="0.6" stroke-miterlimit="10"/>
<path d="M51.1042 321L1 302.542L54.0012 182.138L104.105 200.597L51.1042 321Z" fill="#2E2C2C" stroke="#CC9D7A" stroke-width="0.6" stroke-miterlimit="10"/>
<path d="M127.42 14.5142V14.791L127.198 14.5557L127.42 14.5142Z" fill="#2E2C2C" stroke="#CC9D7A" stroke-width="0.6" stroke-miterlimit="10"/>
<path d="M177.524 32.959V33.2358L177.303 33.0143L177.524 32.959Z" fill="#2E2C2C" stroke="#CC9D7A" stroke-width="0.6" stroke-miterlimit="10"/>
<path d="M177.522 32.9589V33.2359L127.418 14.7911V14.5142L177.522 32.9589Z" fill="#2E2C2C" stroke="#CC9D7A" stroke-width="0.6" stroke-miterlimit="10"/>
<path d="M177.523 33.2368L127.419 14.792L127.198 14.5566L177.302 33.0153L177.523 33.2368Z" fill="#2E2C2C" stroke="#CC9D7A" stroke-width="0.6" stroke-miterlimit="10"/>
<path d="M177.302 33.0143L127.198 14.5557L127.419 14.5142L177.523 32.9589L177.302 33.0143Z" fill="#2E2C2C" stroke="#CC9D7A" stroke-width="0.6" stroke-miterlimit="10"/>
</svg>
