<svg width="792" height="80" viewBox="0 0 792 80" fill="none" xmlns="http://www.w3.org/2000/svg">
<path fill-rule="evenodd" clip-rule="evenodd" d="M279.994 40.1115C279.994 52.3962 282.299 61.8363 286.91 68.4283C291.52 75.0167 297.609 78.3145 305.183 78.3145C312.754 78.3145 318.824 75.0167 323.398 68.4283C327.972 61.8363 330.259 52.3962 330.259 40.1115C330.259 27.7538 327.972 18.2588 323.398 11.6302C318.824 5.0016 312.754 1.68548 305.183 1.68548C297.609 1.68548 291.52 5.0016 286.91 11.6302C282.299 18.2588 279.994 27.7538 279.994 40.1115ZM267.286 39.9982C267.286 27.8635 270.773 18.1637 277.744 10.899C284.718 3.63421 293.862 0 305.183 0C316.428 0 325.553 3.63421 332.564 10.899C339.571 18.1637 343.077 27.8635 343.077 39.9982C343.077 52.2097 339.571 61.9277 332.564 69.1559C325.553 76.3841 316.428 80 305.183 80C293.862 80 284.718 76.3841 277.744 69.1559C270.773 61.9277 267.286 52.2097 267.286 39.9982ZM37.4434 13.0331L21.0251 50.8961H52.9615L37.4434 13.0331ZM44.3042 0.675353L75.9003 76.0686L83.0977 78.2002V79.3262H55.9986V78.2002L63.4192 76.0686L53.9751 53.258H20.0152L10.1174 76.0686L20.0152 78.2002V79.3262H0V78.2002L7.64382 76.0686L40.5939 0.675353H44.3042ZM160.687 3.70711V50.1108C160.687 59.3243 157.855 66.611 152.198 71.9672C146.537 77.3198 139.098 79.9998 129.877 79.9998C120.58 79.9998 113.082 77.3016 107.385 71.9088C101.688 66.5159 98.8411 59.2512 98.8411 50.1108V3.93378L91.5303 1.79859V0.676161H118.293V1.79859L110.986 3.93378V50.1108C110.986 58.2019 113.141 64.4758 117.451 68.9326C121.762 73.3895 127.404 75.6161 134.374 75.6161C141.495 75.6161 147.287 73.331 151.748 68.7645C156.205 64.1943 158.437 57.9789 158.437 50.1108V3.70711L151.129 1.68526V0.676161H167.994V1.68526L160.687 3.70711ZM225.341 2.92141H246.37L251.544 14.4931H253.454V0.676519H185.197V14.4931H186.998L192.281 2.92141H213.197V76.0661L205.889 78.2013V79.3237H232.652V78.2013L225.341 76.0661V2.92141ZM427.897 75.2799V44.8316L434.868 42.8097V41.6873H408.555V42.8097L415.866 44.8316V72.132C411.442 75.5029 405.895 77.1884 399.225 77.1884C390.227 77.1884 383.33 73.8358 378.533 67.134C373.736 60.4323 371.335 51.4602 371.335 40.2249C371.335 27.9402 373.79 18.5951 378.701 12.1932C383.611 5.78401 390.49 2.58489 399.334 2.58489C401.585 2.58489 403.835 2.81157 406.082 3.25762C408.332 3.70732 410.787 4.51534 413.448 5.67434C416.108 6.83699 418.453 8.69064 420.477 11.2353C422.5 13.7836 423.923 16.8914 424.75 20.5621H426.66V5.05645L425.537 3.93399L420.7 6.74193C414.779 2.24853 406.945 0 397.201 0C385.507 0 376.15 3.59398 369.143 10.7856C362.133 17.9772 358.631 27.7172 358.631 39.9982C358.631 52.3596 362.154 62.1178 369.202 69.2692C376.246 76.4243 385.73 80 397.648 80C406.345 80 413.879 78.0513 420.25 74.1575L426.437 76.7424L427.897 75.2799ZM482.77 2.92141H469.952V40.7844H482.77C487.867 40.7844 491.973 39.1757 495.083 35.9546C498.193 32.7336 499.748 28.0537 499.748 21.9114C499.748 15.7691 498.193 11.0673 495.083 7.80966C491.973 4.55204 487.867 2.92141 482.77 2.92141ZM512.12 22.0211C512.12 27.5674 510.279 32.1559 506.609 35.7864C502.935 39.4207 497.988 41.6472 491.768 42.4699C494.465 43.446 497.052 46.1443 499.525 50.5609L514.37 76.4062L520.891 78.2013V79.3237H503.462L482.993 43.0329H469.952V76.0661L477.26 78.2013V79.3237H450.497V78.2013L457.808 76.0661V3.37109L450.497 1.68562V0.676519H484.23C492.628 0.676519 499.371 2.56675 504.472 6.3472C509.569 10.1313 512.12 15.3559 512.12 22.0211ZM555.634 50.8962L572.053 13.0332L587.571 50.8962H555.634ZM610.51 76.0687L578.914 0.67546H575.203L542.253 76.0687L534.609 78.2003V79.3264H554.625V78.2003L544.727 76.0687L554.625 53.2581H588.585L598.029 76.0687L590.608 78.2003V79.3264H617.707V78.2003L610.51 76.0687ZM662.235 2.92141H651.441V76.0661L662.685 78.2013V79.3237H631.985V78.2013L639.296 76.0661V3.37109L631.985 1.68562V0.676519H663.699C672.693 0.676519 679.963 2.69838 685.51 6.74207C691.058 10.7858 693.835 16.2553 693.835 23.1435C693.835 30.039 691.058 35.5049 685.51 39.5523C679.963 43.596 672.693 45.6178 663.699 45.6178H654.588L653.128 44.159V43.3729H662.235C668.082 43.3729 672.751 41.6289 676.235 38.1483C679.722 34.6603 681.463 29.6624 681.463 23.1435C681.463 16.6319 679.722 11.6303 676.235 8.14601C672.751 4.66171 668.082 2.92141 662.235 2.92141ZM719.806 76.0661L712.499 78.2013V79.3237H739.262V78.2013L731.954 76.0661V40.448H772.658V76.0661L765.351 78.2013V79.3237H792V78.2013L784.689 76.0661V3.93416L792 1.79895V0.676519H765.351V1.79895L772.658 3.93416V38.0898H731.954V3.93416L739.262 1.79895V0.676519H712.499V1.79895L719.806 3.93416V76.0661Z" fill="#E3DACF"/>
</svg>
